<?xml version="1.0" encoding="utf-8"?>
<!-- Generator: Adobe Illustrator 24.0.2, SVG Export Plug-In . SVG Version: 6.00 Build 0)  -->
<svg version="1.1" id="Layer_1" xmlns="http://www.w3.org/2000/svg" xmlns:xlink="http://www.w3.org/1999/xlink" x="0px" y="0px"
	 viewBox="0 0 16 16" style="enable-background:new 0 0 16 16;" xml:space="preserve">
<style type="text/css">
	.st0{fill:#0762E5;}
	.st1{fill:#FFFFFF;}
</style>
<path class="st0" d="M14.67,16H1.33C0.59,16,0,15.41,0,14.67V1.33C0,0.59,0.59,0,1.33,0h13.35C15.41,0,16,0.59,16,1.33v13.35
	C16,15.41,15.41,16,14.67,16z"/>
<path class="st1" d="M15,6.03c-0.01-0.06-0.02-0.11-0.02-0.16c-0.17-1.87-1.4-2.98-3.26-2.92C10,3.01,8.83,4.27,8.82,6.09
	c-0.01,1.28,0,2.56,0,3.84c0,0.72-0.31,1.09-0.85,1.08C7.44,11,7.18,10.65,7.18,9.95c0-1.28,0-2.56,0-3.84
	c-0.01-1.9-1.25-3.16-3.08-3.16C2.24,2.94,1.01,4.18,1,6.09C1,8.16,1,12.68,1,12.87h2.26c0-0.35,0-0.64,0-0.93
	c0-2.02-0.01-4.03,0-6.05c0-0.59,0.31-0.93,0.79-0.94c0.47-0.01,0.81,0.35,0.85,0.91c0.01,0.17,0,0.34,0,0.5
	c0,1.28-0.01,2.56,0.01,3.84c0.03,1.31,0.82,2.31,2.07,2.69c2.13,0.65,4.05-0.74,4.07-2.96c0.02-1.34,0-2.69,0.01-4.03
	c0-0.59,0.35-0.99,0.84-0.95C12.49,5,12.7,5.38,12.71,5.91c0,0.15,0,0.29,0,0.44c0,1.95,0,6.3,0,6.49l2.28,0V9.88
	C14.99,9.89,15,9.89,15,9.9V6.03z"/>
</svg>
