<?xml version="1.0" encoding="utf-8"?>
<!-- Generator: Adobe Illustrator 24.0.2, SVG Export Plug-In . SVG Version: 6.00 Build 0)  -->
<svg version="1.1" id="Layer_1" xmlns="http://www.w3.org/2000/svg" xmlns:xlink="http://www.w3.org/1999/xlink" x="0px" y="0px"
	 viewBox="0 0 32 32" style="enable-background:new 0 0 32 32;" xml:space="preserve">
<style type="text/css">
	.st0{fill:#0762E5;}
	.st1{fill:#FFFFFF;}
</style>
<path class="st0" d="M29.51,32H2.46c-1.37,0-2.48-1.11-2.48-2.48V2.48C-0.02,1.11,1.09,0,2.46,0h27.05c1.37,0,2.48,1.11,2.48,2.48
	v27.05C31.98,30.89,30.88,32,29.51,32z"/>
<path class="st1" d="M29.98,12.05c-0.02-0.12-0.04-0.22-0.05-0.32c-0.33-3.74-2.81-5.96-6.52-5.83c-3.44,0.12-5.77,2.65-5.79,6.29
	c-0.01,2.56,0.01,5.12-0.01,7.68c-0.01,1.44-0.61,2.18-1.71,2.16c-1.04-0.02-1.57-0.72-1.57-2.14c-0.01-2.56,0.01-5.12-0.01-7.68
	c-0.02-3.79-2.49-6.32-6.17-6.32c-3.71,0-6.15,2.47-6.17,6.29c-0.02,4.16,0,13.18,0,13.56h4.53c0-0.7,0-1.28,0-1.86
	c0-4.03-0.01-8.06,0.01-12.09c0-1.17,0.63-1.87,1.58-1.89c0.93-0.02,1.62,0.71,1.69,1.81c0.02,0.33,0.01,0.67,0.01,1.01
	c0,2.56-0.03,5.12,0.02,7.68c0.05,2.61,1.64,4.63,4.15,5.39c4.26,1.29,8.1-1.48,8.15-5.92c0.03-2.69,0-5.37,0.01-8.06
	c0.01-1.19,0.71-1.99,1.69-1.91c1.13,0.09,1.56,0.85,1.58,1.9c0.01,0.29,0,0.59,0,0.88c0,3.9,0,12.59,0,12.98l4.55,0.01v-5.92
	c0.01,0.01,0.01,0.02,0.02,0.04V12.05z"/>
</svg>
