<?xml version="1.0" encoding="utf-8"?>
<!-- Generator: Adobe Illustrator 24.0.2, SVG Export Plug-In . SVG Version: 6.00 Build 0)  -->
<svg version="1.1" id="Layer_1" xmlns="http://www.w3.org/2000/svg" xmlns:xlink="http://www.w3.org/1999/xlink" x="0px" y="0px"
	 viewBox="0 0 48 48" style="enable-background:new 0 0 48 48;" xml:space="preserve">
<style type="text/css">
	.st0{fill:#0762E5;}
	.st1{fill:#FFFFFF;}
</style>
<path class="st0" d="M44.05,48.14H3.86c-2.18,0-3.95-1.77-3.95-3.95V4c0-2.18,1.77-3.95,3.95-3.95h40.19C46.23,0.05,48,1.82,48,4
	v40.19C48,46.37,46.23,48.14,44.05,48.14z"/>
<path class="st1" d="M44.99,18.16c-0.03-0.18-0.06-0.34-0.07-0.49c-0.5-5.62-4.22-8.96-9.8-8.76c-5.16,0.18-8.68,3.98-8.71,9.46
	c-0.02,3.85,0.01,7.7-0.01,11.55c-0.01,2.16-0.92,3.28-2.56,3.24c-1.56-0.03-2.36-1.08-2.37-3.21c-0.01-3.85,0.01-7.7-0.01-11.55
	c-0.03-5.7-3.75-9.49-9.27-9.5c-5.57-0.01-9.25,3.71-9.27,9.45c-0.03,6.25,0,19.82,0,20.39h6.81c0-1.05,0-1.92,0-2.79
	c0-6.06-0.02-12.12,0.01-18.17c0.01-1.76,0.94-2.81,2.37-2.83c1.4-0.03,2.43,1.07,2.55,2.72c0.03,0.5,0.01,1.01,0.01,1.51
	c0.01,3.85-0.04,7.7,0.03,11.55c0.08,3.92,2.47,6.95,6.23,8.1c6.4,1.94,12.17-2.22,12.25-8.89c0.05-4.04-0.01-8.08,0.02-12.12
	c0.01-1.79,1.06-2.99,2.53-2.86c1.7,0.14,2.34,1.28,2.38,2.86c0.01,0.44,0,0.88,0,1.33c0,5.87,0,18.92,0,19.51l6.84,0.01v-8.9
	c0.01,0.02,0.02,0.04,0.03,0.06V18.16z"/>
</svg>
