<svg width="14" height="14" viewBox="0 0 14 14" fill="none" xmlns="http://www.w3.org/2000/svg">
<path fill-rule="evenodd" clip-rule="evenodd" d="M2.8 1.40039H11.2C11.9426 1.40039 12.6548 1.69539 13.1799 2.22049C13.705 2.74559 14 3.45778 14 4.20039V11.2004C14 11.943 13.705 12.6552 13.1799 13.1803C12.6548 13.7054 11.9426 14.0004 11.2 14.0004H2.8C2.05739 14.0004 1.3452 13.7054 0.820101 13.1803C0.294999 12.6552 0 11.943 0 11.2004V4.20039C0 3.45778 0.294999 2.74559 0.820101 2.22049C1.3452 1.69539 2.05739 1.40039 2.8 1.40039ZM2.8 2.80039C2.4287 2.80039 2.0726 2.94789 1.81005 3.21044C1.5475 3.47299 1.4 3.82909 1.4 4.20039V11.2004C1.4 11.5717 1.5475 11.9278 1.81005 12.1903C2.0726 12.4529 2.4287 12.6004 2.8 12.6004H11.2C11.5713 12.6004 11.9274 12.4529 12.1899 12.1903C12.4525 11.9278 12.6 11.5717 12.6 11.2004V4.20039C12.6 3.82909 12.4525 3.47299 12.1899 3.21044C11.9274 2.94789 11.5713 2.80039 11.2 2.80039H2.8Z" fill="#0689E8"/>
<path fill-rule="evenodd" clip-rule="evenodd" d="M0.700195 5.6C0.700195 5.41435 0.773945 5.2363 0.905221 5.10503C1.0365 4.97375 1.21454 4.9 1.4002 4.9H12.6002C12.7858 4.9 12.9639 4.97375 13.0952 5.10503C13.2264 5.2363 13.3002 5.41435 13.3002 5.6C13.3002 5.78565 13.2264 5.9637 13.0952 6.09497C12.9639 6.22625 12.7858 6.3 12.6002 6.3H1.4002C1.21454 6.3 1.0365 6.22625 0.905221 6.09497C0.773945 5.9637 0.700195 5.78565 0.700195 5.6ZM4.2002 0C4.38585 0 4.56389 0.0737498 4.69517 0.205025C4.82645 0.336301 4.9002 0.514349 4.9002 0.7V3.5C4.9002 3.68565 4.82645 3.8637 4.69517 3.99497C4.56389 4.12625 4.38585 4.2 4.2002 4.2C4.01454 4.2 3.8365 4.12625 3.70522 3.99497C3.57395 3.8637 3.5002 3.68565 3.5002 3.5V0.7C3.5002 0.514349 3.57395 0.336301 3.70522 0.205025C3.8365 0.0737498 4.01454 0 4.2002 0ZM9.8002 0C9.98585 0 10.1639 0.0737498 10.2952 0.205025C10.4264 0.336301 10.5002 0.514349 10.5002 0.7V3.5C10.5002 3.68565 10.4264 3.8637 10.2952 3.99497C10.1639 4.12625 9.98585 4.2 9.8002 4.2C9.61454 4.2 9.4365 4.12625 9.30522 3.99497C9.17395 3.8637 9.1002 3.68565 9.1002 3.5V0.7C9.1002 0.514349 9.17395 0.336301 9.30522 0.205025C9.4365 0.0737498 9.61454 0 9.8002 0Z" fill="#0689E8"/>
<path d="M4.1998 7.7C4.1998 7.88565 4.12605 8.0637 3.99478 8.19497C3.8635 8.32625 3.68546 8.4 3.4998 8.4C3.31415 8.4 3.13611 8.32625 3.00483 8.19497C2.87355 8.0637 2.7998 7.88565 2.7998 7.7C2.7998 7.51435 2.87355 7.3363 3.00483 7.20503C3.13611 7.07375 3.31415 7 3.4998 7C3.68546 7 3.8635 7.07375 3.99478 7.20503C4.12605 7.3363 4.1998 7.51435 4.1998 7.7ZM4.1998 10.5C4.1998 10.6857 4.12605 10.8637 3.99478 10.995C3.8635 11.1263 3.68546 11.2 3.4998 11.2C3.31415 11.2 3.13611 11.1263 3.00483 10.995C2.87355 10.8637 2.7998 10.6857 2.7998 10.5C2.7998 10.3143 2.87355 10.1363 3.00483 10.005C3.13611 9.87375 3.31415 9.8 3.4998 9.8C3.68546 9.8 3.8635 9.87375 3.99478 10.005C4.12605 10.1363 4.1998 10.3143 4.1998 10.5ZM7.6998 7.7C7.6998 7.88565 7.62605 8.0637 7.49478 8.19497C7.3635 8.32625 7.18546 8.4 6.9998 8.4C6.81415 8.4 6.63611 8.32625 6.50483 8.19497C6.37355 8.0637 6.2998 7.88565 6.2998 7.7C6.2998 7.51435 6.37355 7.3363 6.50483 7.20503C6.63611 7.07375 6.81415 7 6.9998 7C7.18546 7 7.3635 7.07375 7.49478 7.20503C7.62605 7.3363 7.6998 7.51435 7.6998 7.7ZM7.6998 10.5C7.6998 10.6857 7.62605 10.8637 7.49478 10.995C7.3635 11.1263 7.18546 11.2 6.9998 11.2C6.81415 11.2 6.63611 11.1263 6.50483 10.995C6.37355 10.8637 6.2998 10.6857 6.2998 10.5C6.2998 10.3143 6.37355 10.1363 6.50483 10.005C6.63611 9.87375 6.81415 9.8 6.9998 9.8C7.18546 9.8 7.3635 9.87375 7.49478 10.005C7.62605 10.1363 7.6998 10.3143 7.6998 10.5ZM11.1998 7.7C11.1998 7.88565 11.1261 8.0637 10.9948 8.19497C10.8635 8.32625 10.6855 8.4 10.4998 8.4C10.3142 8.4 10.1361 8.32625 10.0048 8.19497C9.87355 8.0637 9.7998 7.88565 9.7998 7.7C9.7998 7.51435 9.87355 7.3363 10.0048 7.20503C10.1361 7.07375 10.3142 7 10.4998 7C10.6855 7 10.8635 7.07375 10.9948 7.20503C11.1261 7.3363 11.1998 7.51435 11.1998 7.7ZM11.1998 10.5C11.1998 10.6857 11.1261 10.8637 10.9948 10.995C10.8635 11.1263 10.6855 11.2 10.4998 11.2C10.3142 11.2 10.1361 11.1263 10.0048 10.995C9.87355 10.8637 9.7998 10.6857 9.7998 10.5C9.7998 10.3143 9.87355 10.1363 10.0048 10.005C10.1361 9.87375 10.3142 9.8 10.4998 9.8C10.6855 9.8 10.8635 9.87375 10.9948 10.005C11.1261 10.1363 11.1998 10.3143 11.1998 10.5Z" fill="#0689E8"/>
</svg>
