<svg width="30" height="30" viewBox="0 0 30 30" fill="none" xmlns="http://www.w3.org/2000/svg">
<path d="M28.5938 20.4363H24.4781L23.5934 25.5597L20.7352 20.4363H9.90234V17.5066H21.0352V8.30737H28.5938V20.4363ZM20.0977 4.44019V16.5691H9.26543L6.40664 21.6943L5.52129 16.5691H1.40625V4.44019H20.0977ZM8.01117 12.6166C8.01117 12.0225 7.29299 11.7251 6.87299 12.1451C6.45299 12.5651 6.75035 13.2834 7.34443 13.2834C7.7127 13.2834 8.01123 12.9849 8.01123 12.6166H8.01117ZM11.5822 12.6166C11.5782 12.0236 10.8603 11.7305 10.4424 12.1512C10.0246 12.5719 10.3225 13.2878 10.9154 13.2878C11.2854 13.2878 11.5846 12.9866 11.5822 12.6166ZM15.1532 12.6166C15.1532 12.0225 14.435 11.7251 14.015 12.1451C13.595 12.5651 13.8923 13.2834 14.4864 13.2834C14.8546 13.2834 15.1532 12.9849 15.1532 12.6166Z" fill="#6C6C6C"/>
</svg>
