<?xml version="1.0" encoding="utf-8"?>
<!-- Generator: Adobe Illustrator 24.0.2, SVG Export Plug-In . SVG Version: 6.00 Build 0)  -->
<svg version="1.1" id="Layer_1" xmlns="http://www.w3.org/2000/svg" xmlns:xlink="http://www.w3.org/1999/xlink" x="0px" y="0px"
	 viewBox="0 0 12 12" style="enable-background:new 0 0 12 12;" xml:space="preserve">
<style type="text/css">
	.st0{fill:#FFFFFF;fill-opacity:0.6;}
	.st1{fill-opacity:0.6;}
</style>
<g>
	<path class="st0" d="M6,0C2.7,0,0,2.7,0,6s2.7,6,6,6s6-2.7,6-6S9.3,0,6,0z"/>
	<path class="st1" d="M6,0.3C2.8,0.3,0.3,2.8,0.3,6s2.5,5.7,5.7,5.7s5.7-2.5,5.7-5.7S9.2,0.3,6,0.3z M8.2,8.8L6,6.6L3.8,8.8L3.2,8.2
		L5.3,6L3.2,3.8l0.7-0.7L6,5.3l2.2-2.2l0.7,0.7L6.6,6l2.2,2.2L8.2,8.8z"/>
</g>
</svg>
