<svg width="15" height="15" viewBox="0 0 15 15" fill="none" xmlns="http://www.w3.org/2000/svg">
<path d="M7.5 0.5C7.61536 0.5 7.78259 0.553641 8.08105 0.943359C8.37973 1.33345 8.71606 1.93339 9.19922 2.7998L9.44434 3.24023C9.69252 3.68558 9.88072 4.04328 10.1934 4.28125C10.4308 4.46185 10.7109 4.55088 11.0391 4.62988L11.3838 4.70898L11.8604 4.81641C12.7999 5.02913 13.4464 5.17746 13.8906 5.35254C14.3238 5.52334 14.4363 5.67105 14.4795 5.80859V5.80957C14.5238 5.95232 14.5143 6.15139 14.2549 6.56348C13.9921 6.9809 13.5496 7.49935 12.9102 8.24707L12.585 8.62793C12.2966 8.96541 12.0563 9.23481 11.9219 9.55078L11.8711 9.68945C11.7541 10.0668 11.8016 10.4657 11.8516 10.9814L11.9004 11.4893C11.9968 12.4864 12.0633 13.1796 12.041 13.6807C12.0187 14.181 11.9122 14.3418 11.8066 14.4219C11.709 14.4958 11.5469 14.5521 11.0957 14.4229C10.6379 14.2917 10.0321 14.014 9.15332 13.6094L9.15234 13.6084L8.7041 13.4033C8.25528 13.196 7.89514 13.0186 7.5 13.0186C7.10461 13.0186 6.74419 13.1959 6.29492 13.4033L5.84863 13.6094H5.84766C4.96841 14.0141 4.36216 14.2916 3.9043 14.4229C3.45253 14.5523 3.29039 14.4954 3.19336 14.4219C3.08753 14.3411 2.98226 14.1793 2.95996 13.6807C2.93756 13.1796 3.00321 12.4864 3.09961 11.4893L3.14941 10.9824V10.9814C3.19933 10.4657 3.24644 10.066 3.12793 9.68848C3.01032 9.30899 2.74367 9.0118 2.41504 8.62793L2.09082 8.24805L2.08984 8.24707C1.45046 7.49978 1.0088 6.98083 0.746094 6.56348C0.487037 6.15187 0.476163 5.95284 0.520508 5.80957C0.563159 5.67212 0.675269 5.52304 1.11035 5.35156C1.55473 5.17647 2.20142 5.02868 3.14062 4.81641L3.61719 4.70898C4.09859 4.60017 4.48885 4.52223 4.80566 4.28223C5.04128 4.10363 5.20599 3.85703 5.37793 3.55762L5.55566 3.24023L5.80176 2.7998C6.28504 1.93317 6.62119 1.33344 6.91992 0.943359C7.21823 0.553839 7.38464 0.500054 7.5 0.5Z" fill="#FFD942" stroke="white"/>
</svg>
