<svg width="75" height="24" viewBox="0 0 75 24" fill="none" xmlns="http://www.w3.org/2000/svg">
<path d="M42.6197 0.945312C37.5498 0.945312 33.209 3.9126 31.406 8.12312C31.3805 7.98372 31.3608 7.86708 31.3523 7.75043C30.9821 3.52853 28.2013 1.02497 24.0385 1.17006C20.1838 1.30093 17.5613 4.16011 17.5387 8.2739C17.5245 11.1644 17.5443 14.0577 17.5302 16.9482C17.5217 18.5698 16.8434 19.4119 15.617 19.3863C14.4498 19.3607 13.8563 18.5726 13.8507 16.9738C13.8394 14.0833 13.8592 11.19 13.845 8.29951C13.8224 4.01501 11.0501 1.16722 6.92974 1.16153C2.76982 1.15584 0.0285743 3.94958 0.00879209 8.25968C-0.0109901 12.9538 0.00879209 23.1473 0.00879209 23.5769H5.08717C5.08717 22.7888 5.08717 22.1317 5.08717 21.4773C5.08717 16.9254 5.07586 12.3763 5.09282 7.8244C5.09847 6.5015 5.7965 5.71629 6.86191 5.69638C7.90754 5.67647 8.67622 6.49581 8.76101 7.7419C8.78644 8.12028 8.76666 8.5015 8.76948 8.87988C8.77514 11.7703 8.7384 14.6637 8.79492 17.5541C8.85144 20.5015 10.6347 22.7775 13.4466 23.6395C18.2226 25.0989 22.5266 21.9695 22.5888 16.9595C22.6255 13.9268 22.5831 10.8913 22.6057 7.85854C22.6142 6.51573 23.3998 5.61388 24.4963 5.70776C25.7681 5.81302 26.2456 6.66935 26.2739 7.8557C26.2824 8.18856 26.2767 8.51857 26.2767 8.85143C26.2767 13.2611 26.2796 23.0705 26.2796 23.5115L31.3862 23.5171V16.8315C31.4399 16.9396 31.4908 17.0335 31.5416 17.1189C33.4181 21.1701 37.6713 23.9979 42.6197 23.9979C49.306 23.9979 54.7264 18.8372 54.7264 12.4731C54.7264 6.10605 49.306 0.945312 42.6197 0.945312ZM42.6197 19.3095C38.8893 19.3095 35.8655 16.2483 35.8655 12.4731C35.8655 8.6978 38.8893 5.63664 42.6197 5.63664C46.35 5.63664 49.3739 8.6978 49.3739 12.4731C49.3767 16.2483 46.35 19.3095 42.6197 19.3095Z" fill="black" fill-opacity="0.5"/>
<path d="M57.6963 23.3877C58.7842 23.3877 59.666 22.4999 59.666 21.4048C59.666 20.3097 58.7842 19.4219 57.6963 19.4219C56.6084 19.4219 55.7266 20.3097 55.7266 21.4048C55.7266 22.4999 56.6084 23.3877 57.6963 23.3877Z" fill="#0762E5" fill-opacity="0.5"/>
<path d="M57.6963 17.1455C58.7842 17.1455 59.666 16.2578 59.666 15.1626C59.666 14.0675 58.7842 13.1797 57.6963 13.1797C56.6084 13.1797 55.7266 14.0675 55.7266 15.1626C55.7266 16.2578 56.6084 17.1455 57.6963 17.1455Z" fill="#0762E5" fill-opacity="0.5"/>
<path d="M71.8394 5.68727C73.3909 5.67305 74.5919 4.46679 74.606 2.9106C74.6202 1.34588 73.2919 -0.0196995 71.7772 0.000215128C70.2681 0.0201298 68.9342 1.4426 68.9879 2.97319C69.0359 4.48955 70.3133 5.7015 71.8394 5.68727Z" fill="#0762E5" fill-opacity="0.5"/>
<path d="M66.3068 7.46415C64.1138 7.41863 62.1751 7.83399 60.9317 10.2152C60.6462 10.8269 60.6688 11.2394 60.666 11.6377C60.666 14.3375 60.6745 22.3262 60.666 23.393C62.6923 23.3816 63.0653 23.393 65.5353 23.393C65.5353 20.44 65.5353 17.4613 65.5353 14.4798C65.5353 11.2735 65.5635 10.9606 68.7598 11.1597V7.48691C67.9402 7.48406 67.1207 7.47837 66.3068 7.46415Z" fill="black" fill-opacity="0.5"/>
<path d="M69.3926 7.48297C69.3926 7.48297 69.3926 19.5484 69.3926 23.5513C71.0882 23.5513 72.5747 23.5513 74.2025 23.5513C74.2025 18.7917 74.2025 14.1117 74.2025 9.42892C74.2025 8.82579 74.2025 8.21982 74.2025 7.46875C72.391 7.47159 71.1136 7.48866 69.3926 7.48297Z" fill="black" fill-opacity="0.5"/>
</svg>
