<svg width="15" height="16" viewBox="0 0 15 16" fill="none" xmlns="http://www.w3.org/2000/svg">
<path d="M7.5 2.28125C7.75854 2.28125 8.01455 2.33217 8.25341 2.43111C8.49227 2.53005 8.7093 2.67507 8.89212 2.85788C9.07493 3.0407 9.21995 3.25773 9.31889 3.49659C9.41783 3.73545 9.46875 3.99146 9.46875 4.25C9.46875 4.50854 9.41783 4.76455 9.31889 5.00341C9.21995 5.24227 9.07493 5.4593 8.89212 5.64212C8.7093 5.82493 8.49227 5.96995 8.25341 6.06889C8.01455 6.16783 7.75854 6.21875 7.5 6.21875C6.97786 6.21875 6.4771 6.01133 6.10788 5.64212C5.73867 5.2729 5.53125 4.77214 5.53125 4.25C5.53125 3.72785 5.73867 3.2271 6.10788 2.85788C6.4771 2.48867 6.97786 2.28125 7.5 2.28125ZM7.5 10.7188C10.2844 10.7188 13.2188 12.0875 13.2188 12.6875V13.7188H1.78125V12.6875C1.78125 12.0875 4.71562 10.7188 7.5 10.7188ZM7.5 0.5C5.42812 0.5 3.75 2.17812 3.75 4.25C3.75 6.32188 5.42812 8 7.5 8C9.57187 8 11.25 6.32188 11.25 4.25C11.25 2.17812 9.57187 0.5 7.5 0.5ZM7.5 8.9375C4.99687 8.9375 0 10.1938 0 12.6875V15.5H15V12.6875C15 10.1938 10.0031 8.9375 7.5 8.9375Z" fill="#767676"/>
</svg>
