<svg width="12" height="9" viewBox="0 0 12 9" fill="none" xmlns="http://www.w3.org/2000/svg">
<path d="M1.8 9V8H10.2V9H1.8ZM1.8 7.25L1.035 3.2375C1.015 3.2375 0.992401 3.23967 0.967201 3.244C0.942001 3.24833 0.919601 3.25033 0.900001 3.25C0.650001 3.25 0.437601 3.177 0.262801 3.031C0.0880013 2.885 0.000401363 2.708 1.36364e-06 2.5C-0.000398636 2.292 0.0872013 2.115 0.262801 1.969C0.438401 1.823 0.650801 1.75 0.900001 1.75C1.1492 1.75 1.3618 1.823 1.5378 1.969C1.7138 2.115 1.8012 2.292 1.8 2.5C1.8 2.55833 1.7924 2.6125 1.7772 2.6625C1.762 2.7125 1.7446 2.75833 1.725 2.8L3.6 3.5L5.475 1.3625C5.365 1.29583 5.275 1.20833 5.205 1.1C5.135 0.991668 5.1 0.875001 5.1 0.750001C5.1 0.541668 5.1876 0.364501 5.3628 0.218501C5.538 0.0725011 5.7504 -0.000332194 6 1.13895e-06C6.2496 0.000334472 6.4622 0.0733344 6.6378 0.219001C6.8134 0.364668 6.9008 0.541668 6.9 0.750001C6.9 0.875001 6.865 0.991668 6.795 1.1C6.725 1.20833 6.635 1.29583 6.525 1.3625L8.4 3.5L10.275 2.8C10.255 2.75833 10.2374 2.7125 10.2222 2.6625C10.207 2.6125 10.1996 2.55833 10.2 2.5C10.2 2.29167 10.2876 2.1145 10.4628 1.9685C10.638 1.8225 10.8504 1.74967 11.1 1.75C11.3496 1.75033 11.5622 1.82333 11.7378 1.969C11.9134 2.11467 12.0008 2.29167 12 2.5C11.9992 2.70833 11.9118 2.8855 11.7378 3.0315C11.5638 3.1775 11.3512 3.25033 11.1 3.25C11.08 3.25 11.0576 3.248 11.0328 3.244C11.008 3.24 10.9854 3.23783 10.965 3.2375L10.2 7.25H1.8Z" fill="white"/>
</svg>
