<svg width="29" height="40" viewBox="0 0 29 40" fill="none" xmlns="http://www.w3.org/2000/svg">
<path d="M19.3315 0.500008C20.763 0.497649 22.1447 1.02981 23.2106 1.99403C24.2765 2.95824 24.9512 4.28631 25.1047 5.72249C25.2583 7.15867 24.8799 8.60139 24.0423 9.77284C23.2047 10.9443 21.9673 11.7616 20.5683 12.0674L20.2378 12.1298L23.0127 16.609L26.3442 15.2635C26.8024 15.0768 27.3141 15.0744 27.7741 15.2567C28.234 15.439 28.6073 15.7922 28.8171 16.2436C29.027 16.6951 29.0574 17.2105 28.9023 17.684C28.7471 18.1574 28.4181 18.5529 27.9829 18.7891L27.7781 18.8866L24.4485 20.2301C23.6593 20.5487 22.7879 20.5959 21.9694 20.3643C21.1509 20.1327 20.4309 19.6352 19.9209 18.949L19.7354 18.676L19.4204 18.169L18.2494 22.8958C18.148 23.3071 17.981 23.6989 17.7547 24.056L17.5808 24.3095L20.775 26.7041C21.5369 27.2755 22.0638 28.1098 22.2552 29.048L22.3113 29.4029L22.9934 35.6H23.1963C23.6889 35.6006 24.1626 35.7909 24.5207 36.1321C24.8789 36.4732 25.0944 36.9396 25.1233 37.4357C25.1521 37.9319 24.9922 38.4204 24.676 38.8016C24.3599 39.1827 23.9115 39.4276 23.4224 39.4863L23.1963 39.5H21.4378C20.9542 39.5001 20.4851 39.3338 20.1077 39.0286C19.7304 38.7233 19.4675 38.2974 19.3624 37.821L19.3238 37.5929L18.4697 29.8338L12.3826 25.2709C12.2743 25.1905 12.1745 25.099 12.085 24.9979C11.5481 24.5642 11.1355 23.9939 10.8899 23.3457C10.6443 22.6975 10.5746 21.9949 10.6879 21.3104L10.7517 21.0043L12.286 14.8091L9.25211 15.7256L7.63855 20.6162C7.48358 21.0894 7.15495 21.4848 6.72015 21.7211C6.28535 21.9574 5.77738 22.0168 5.30055 21.887C4.82372 21.7573 4.41422 21.4482 4.15616 21.0233C3.89809 20.5984 3.81104 20.0899 3.91288 19.6022L3.97085 19.3838L5.58634 14.4932C5.76581 13.9506 6.06138 13.4544 6.4521 13.0399C6.84283 12.6254 7.31914 12.3027 7.84725 12.0947L8.14291 11.9914L14.7846 9.98091C14.1083 9.11881 13.6865 8.08183 13.5675 6.9889C13.4485 5.89596 13.6371 4.79131 14.1118 3.80161C14.5864 2.8119 15.3279 1.97722 16.2511 1.39326C17.1743 0.809308 18.2419 0.499723 19.3315 0.500008ZM12.7614 26.24C13.1714 26.5503 13.4424 27.0123 13.5149 27.5242C13.5874 28.0362 13.4553 28.5563 13.1478 28.97L10.798 32.1329C10.3535 32.731 9.69881 33.1346 8.96854 33.2608C8.23828 33.387 7.48785 33.2262 6.87139 32.8115L3.14185 30.3019C2.75582 30.6145 2.26564 30.7657 1.77237 30.7243C1.27911 30.6829 0.820383 30.4522 0.49078 30.0795C0.161177 29.7069 -0.0141702 29.2209 0.000896367 28.7216C0.0159629 28.2224 0.220294 27.748 0.571757 27.3964L1.5283 26.4331C1.84721 26.1106 2.26706 25.9097 2.7163 25.8645C3.16555 25.8193 3.61642 25.9328 3.99211 26.1854L8.25499 29.0539L10.056 26.63C10.2082 26.4251 10.399 26.2525 10.6174 26.1221C10.8357 25.9916 11.0774 25.9058 11.3286 25.8696C11.5798 25.8334 11.8357 25.8475 12.0815 25.911C12.3273 25.9746 12.5583 26.0864 12.7614 26.24Z" fill="#2A91E5"/>
</svg>
