<svg width="15" height="21" viewBox="0 0 15 21" fill="none" xmlns="http://www.w3.org/2000/svg">
<path d="M9.99906 0.500004C10.7395 0.498794 11.4542 0.7717 12.0055 1.26617C12.5568 1.76063 12.9058 2.4417 12.9852 3.1782C13.0646 3.9147 12.8689 4.65456 12.4357 5.2553C12.0024 5.85604 11.3624 6.27518 10.6388 6.432L10.4678 6.464L11.9031 8.761L13.6263 8.071C13.8633 7.97527 14.128 7.97403 14.3659 8.06752C14.6038 8.16101 14.7969 8.34213 14.9054 8.57365C15.0139 8.80517 15.0297 9.0695 14.9494 9.31229C14.8692 9.55508 14.699 9.75788 14.4739 9.879L14.368 9.929L12.6458 10.618C12.2376 10.7814 11.7869 10.8056 11.3635 10.6868C10.9401 10.5681 10.5677 10.3129 10.3039 9.961L10.208 9.821L10.045 9.561L9.43933 11.985C9.38692 12.1959 9.3005 12.3969 9.18346 12.58L9.0935 12.71L10.7457 13.938C11.1398 14.231 11.4123 14.6589 11.5113 15.14L11.5403 15.322L11.8932 18.5H11.9981C12.2529 18.5003 12.4979 18.5979 12.6831 18.7728C12.8684 18.9478 12.9799 19.187 12.9948 19.4414C13.0097 19.6958 12.927 19.9464 12.7635 20.1418C12.6 20.3373 12.368 20.4629 12.115 20.493L11.9981 20.5H11.0885C10.8384 20.5001 10.5957 20.4148 10.4006 20.2583C10.2054 20.1017 10.0694 19.8833 10.0151 19.639L9.99506 19.522L9.55328 15.543L6.40479 13.203C6.34876 13.1618 6.29717 13.1149 6.25087 13.063C5.97314 12.8406 5.75976 12.5482 5.63272 12.2157C5.50569 11.8833 5.46962 11.523 5.52822 11.172L5.5612 11.015L6.35482 7.838L4.78557 8.308L3.95098 10.816C3.87082 11.0587 3.70084 11.2614 3.47594 11.3826C3.25104 11.5038 2.9883 11.5343 2.74166 11.4677C2.49503 11.4012 2.28322 11.2427 2.14974 11.0248C2.01625 10.8068 1.97123 10.5461 2.0239 10.296L2.05389 10.184L2.88949 7.676C2.98231 7.39772 3.1352 7.14327 3.3373 6.93071C3.53939 6.71814 3.78576 6.55266 4.05892 6.446L4.21185 6.393L7.6472 5.362C7.2974 4.9199 7.07922 4.38812 7.01767 3.82764C6.95612 3.26716 7.05369 2.70067 7.2992 2.19313C7.54471 1.68559 7.92822 1.25755 8.40574 0.958084C8.88327 0.65862 9.43548 0.499858 9.99906 0.500004ZM6.6007 13.7C6.81277 13.8591 6.95297 14.096 6.99046 14.3586C7.02795 14.6211 6.95966 14.8878 6.8006 15.1L5.58519 16.722C5.35524 17.0287 5.01662 17.2357 4.6389 17.3004C4.26118 17.3651 3.87303 17.2827 3.55417 17.07L1.6251 15.783C1.42542 15.9433 1.17188 16.0209 0.916745 15.9996C0.661609 15.9784 0.424336 15.8601 0.253852 15.669C0.0833672 15.4779 -0.00732942 15.2287 0.000463638 14.9726C0.0082567 14.7166 0.113945 14.4734 0.295736 14.293L0.790498 13.799C0.955456 13.6336 1.17261 13.5306 1.40498 13.5074C1.63735 13.4843 1.87056 13.5424 2.06488 13.672L4.26982 15.143L5.20137 13.9C5.28013 13.7949 5.37879 13.7064 5.49174 13.6395C5.60468 13.5726 5.7297 13.5286 5.85963 13.5101C5.98957 13.4915 6.1219 13.4987 6.24905 13.5313C6.3762 13.5639 6.49569 13.6212 6.6007 13.7Z" fill="#4E4E4E"/>
</svg>
