<svg width="20" height="21" viewBox="0 0 20 21" fill="none" xmlns="http://www.w3.org/2000/svg">
<path d="M17.619 10.0238H16.1905V6.21429C16.1905 5.70911 15.9898 5.22463 15.6326 4.86742C15.2754 4.5102 14.7909 4.30952 14.2857 4.30952H10.4762V2.88095C10.4762 2.24948 10.2253 1.64388 9.77883 1.19736C9.33231 0.75085 8.72671 0.5 8.09524 0.5C7.46377 0.5 6.85817 0.75085 6.41165 1.19736C5.96514 1.64388 5.71429 2.24948 5.71429 2.88095V4.30952H1.90476C1.39959 4.30952 0.915104 4.5102 0.557892 4.86742C0.20068 5.22463 0 5.70911 0 6.21429V9.83333H1.42857C2.85714 9.83333 4 10.9762 4 12.4048C4 13.8333 2.85714 14.9762 1.42857 14.9762H0V18.5952C0 19.1004 0.20068 19.5849 0.557892 19.9421C0.915104 20.2993 1.39959 20.5 1.90476 20.5H5.52381V19.0714C5.52381 17.6429 6.66667 16.5 8.09524 16.5C9.52381 16.5 10.6667 17.6429 10.6667 19.0714V20.5H14.2857C14.7909 20.5 15.2754 20.2993 15.6326 19.9421C15.9898 19.5849 16.1905 19.1004 16.1905 18.5952V14.7857H17.619C18.2505 14.7857 18.8561 14.5349 19.3026 14.0883C19.7492 13.6418 20 13.0362 20 12.4048C20 11.7733 19.7492 11.1677 19.3026 10.7212C18.8561 10.2747 18.2505 10.0238 17.619 10.0238Z" fill="#4E4E4E"/>
</svg>
