<svg width="29" height="30" viewBox="0 0 29 30" fill="none" xmlns="http://www.w3.org/2000/svg">
<path d="M25.5476 14.3095H23.4762V8.78571C23.4762 8.05321 23.1852 7.35071 22.6672 6.83275C22.1493 6.31479 21.4468 6.02381 20.7143 6.02381H15.1905V3.95238C15.1905 3.03675 14.8267 2.15863 14.1793 1.51118C13.5318 0.863732 12.6537 0.5 11.7381 0.5C10.8225 0.5 9.94434 0.863732 9.29689 1.51118C8.64945 2.15863 8.28571 3.03675 8.28571 3.95238V6.02381H2.7619C2.0294 6.02381 1.3269 6.31479 0.808943 6.83275C0.290985 7.35071 0 8.05321 0 8.78571V14.0333H2.07143C4.14286 14.0333 5.8 15.6905 5.8 17.7619C5.8 19.8333 4.14286 21.4905 2.07143 21.4905H0V26.7381C0 27.4706 0.290985 28.1731 0.808943 28.6911C1.3269 29.209 2.0294 29.5 2.7619 29.5H8.00952V27.4286C8.00952 25.3571 9.66667 23.7 11.7381 23.7C13.8095 23.7 15.4667 25.3571 15.4667 27.4286V29.5H20.7143C21.4468 29.5 22.1493 29.209 22.6672 28.6911C23.1852 28.1731 23.4762 27.4706 23.4762 26.7381V21.2143H25.5476C26.4632 21.2143 27.3414 20.8506 27.9888 20.2031C28.6363 19.5557 29 18.6775 29 17.7619C29 16.8463 28.6363 15.9681 27.9888 15.3207C27.3414 14.6733 26.4632 14.3095 25.5476 14.3095Z" fill="#2A91E5"/>
</svg>
