<?xml version="1.0" encoding="utf-8"?>
<!-- Generator: Adobe Illustrator 24.0.2, SVG Export Plug-In . SVG Version: 6.00 Build 0)  -->
<svg version="1.1" id="Layer_1" xmlns="http://www.w3.org/2000/svg" xmlns:xlink="http://www.w3.org/1999/xlink" x="0px" y="0px"
	 viewBox="0 0 393.5 282.3" style="enable-background:new 0 0 393.5 282.3;" xml:space="preserve">
<style type="text/css">
	.st0{fill:#AF4D04;}
	.st1{fill:#FFAE43;}
	.st2{fill:#FFFFFF;}
	.st3{fill:#507849;}
	.st4{fill:#F98875;}
	.st5{fill:#F7C537;}
	.st6{fill:#385432;}
	.st7{fill:#EFB31D;}
	.st8{fill:#0762E5;}
</style>
<g>
	<path class="st0" d="M315.8,260.8c0,0.4-0.3,0.8-0.7,0.8l-51,4.1c-0.4,0-0.8-0.3-0.9-0.7l-0.4-4.6l0-0.1c0-0.4,0.3-0.8,0.7-0.8
		c0.3,0,0.5-0.2,0.6-0.5c0.1-0.1,0.1-0.3,0.1-0.4c-0.2-1.4-0.3-4.3,1.4-6.8c2.2-3.4,13.7-7.1,18.8-9.4c3.3-1.5,5-5.4,5.7-7.9
		c0.4-1.4,1.7-2.4,3.1-2.5c5.8-0.2,19.4-0.8,20.3-0.6c1.1,0.2,2.4,10.4,2,14.4c-0.4,4-1.2,8.7-1.2,8.7l1.3-0.2L315.8,260.8z"/>
</g>
<g>
	<path class="st1" d="M315.8,260.8c0,0.4-0.3,0.8-0.7,0.8l-51,4.1c-0.4,0-0.8-0.3-0.9-0.7l-0.4-4.6l0-0.1c0-0.4,0.3-0.8,0.7-0.8
		c0.3,0,0.5-0.2,0.6-0.5c14.3-1,50.1-4.5,50.1-4.5l1.3-0.2L315.8,260.8z"/>
</g>
<g>
	<path class="st2" d="M285.1,241.7c-0.2,0-0.3-0.1-0.4-0.3c-0.1-0.2,0.1-0.4,0.3-0.5l5.5-1.4c0.2,0,0.4,0.1,0.5,0.3
		c0.1,0.2-0.1,0.4-0.3,0.5L285.1,241.7C285.2,241.7,285.2,241.7,285.1,241.7z"/>
</g>
<g>
	<path class="st0" d="M393.2,225.5c0.3,0.3,0.3,0.8,0,1.1l-34.5,37.9c-0.3,0.3-0.8,0.4-1.2,0.1l-3.5-3.1l0,0
		c-0.3-0.3-0.3-0.7-0.1-1.1c0.2-0.2,0.2-0.5,0.1-0.8c0-0.1-0.1-0.3-0.2-0.4c-1-0.9-3.1-3-3.7-5.9c-0.7-3.9,5.2-14.5,7.3-19.7
		c1.4-3.3,0-7.3-1.2-9.7c-0.7-1.3-0.4-2.9,0.6-3.9c4.1-4.1,13.7-13.9,14.4-14.3c1-0.6,8.8,6,11.3,9.2c2.5,3.2,5,7.2,5,7.2l0.8-1.1
		L393.2,225.5z"/>
</g>
<g>
	<path class="st1" d="M393.2,225.5c0.3,0.3,0.3,0.8,0,1.1l-34.5,37.9c-0.3,0.3-0.8,0.4-1.2,0.1l-3.5-3.1l0,0
		c-0.3-0.3-0.3-0.7-0.1-1.1c0.2-0.2,0.2-0.5,0.1-0.8c9.8-10.5,33.5-37.5,33.5-37.5l0.8-1.1L393.2,225.5z"/>
</g>
<g>
	<path class="st2" d="M357.5,232.6c-0.1,0-0.1,0-0.2-0.1c-0.2-0.1-0.2-0.3-0.1-0.5l3.1-4.8c0.1-0.2,0.3-0.2,0.5-0.1
		c0.2,0.1,0.2,0.3,0.1,0.5l-3.1,4.8C357.7,232.6,357.6,232.6,357.5,232.6z"/>
</g>
<g>
	<path class="st2" d="M354.9,238.9c-0.1,0-0.2,0-0.3-0.1c-0.1-0.2-0.1-0.4,0-0.5l5.9-5.4c0.2-0.1,0.4-0.1,0.5,0
		c0.1,0.2,0.1,0.4,0,0.5l-5.9,5.4C355,238.8,354.9,238.9,354.9,238.9z"/>
</g>
<g>
	<path class="st3" d="M290.3,115.3c0,0-13.5,34.3-17.2,57.8c-3.7,23.5,9,61.7,9,61.7l39-0.5c0,0-7.3-37.8-8.7-49.3
		c-1-12.7,6-67.5,6-67.5L290.3,115.3z"/>
</g>
<g>
	<path class="st3" d="M335.7,114.6c0,0,7.3,30.7,22,56.3c14.7,25.7,21.7,33,21.7,33l-28.7,28c0,0-37-40.3-41.3-66.3
		c-4.3-26-4-49.3-4-49.3L335.7,114.6z"/>
</g>
<g>
	<path class="st4" d="M248.3,34.5c0,0-2-10.7-3.2-11.5c-1.2-0.8-9.5-3.2-11.3-2.2c-1.8,1,2.5,5.2,2.5,5.2s-7.7-5.8-11-5.8
		c-3.3,0-1.7,3.5-1.7,3.5s-3.2-2.2-5.5-0.8c-2.3,1.3,0.8,4.3,0.8,4.3s-4.2-0.8-3.2,2.7s8.8,9,13.3,10.8c4.5,1.8,6.5,2,6.5,2l2.3,1.2
		l11.7-3.2L248.3,34.5z"/>
</g>
<g>
	<path class="st5" d="M308,49.6c0,0-14.2,0.3-23.8,1.8c-9.7,1.5-33.5-18-33.5-18l-19,11.9c0,0,11.7,25.8,30.2,33.1
		c18.5,7.3,28.7,6,28.7,6s-3,30-2.3,31.2c0.7,1.2,14.6,4.2,28,3.5c13.5-0.7,22-3,22.6-3.5c0.7-0.5-1.3-62.5-1.3-63
		S322.5,48.9,308,49.6z"/>
</g>
<g>
	<path class="st4" d="M321,42l-0.9,9.4c0,0-2,2.5-7.5,2.5c-4.1-0.1-5.5-1.1-5.5-1.1l1-4.7l1-4.6l10.2-1.2L321,42z"/>
</g>
<g>
	<path d="M319.3,42.2c0,0.3-0.2,0.5-0.4,0.9c-2.6,4.5-8.4,5-10.8,4.9l1-4.6L319.3,42.2z"/>
</g>
<g>
	<path class="st4" d="M309.2,21.8c0,0-6.1,11.3-4.8,18.1c1.3,6.8,7.4,6.2,11.1,5.2c3.7-1,5.6-3.1,5.6-3.1s3.3,1.4,5.8-1.5
		c2.5-2.9,1.4-6.6-0.4-7.6c-1.9-1-4.2,0.2-4.2,0.2l2.1-3.3C324.2,29.8,318.1,11.8,309.2,21.8z"/>
</g>
<g>
	<path d="M308.3,36.8c-0.2,0-0.4-0.2-0.4-0.4c0-4.2,1.8-6.5,1.9-6.6c0.1-0.2,0.4-0.2,0.5-0.1c0.2,0.1,0.2,0.4,0.1,0.5
		c0,0-1.7,2.2-1.7,6.1C308.7,36.6,308.5,36.8,308.3,36.8z"/>
</g>
<g>
	<path d="M312.3,176.8c-0.1,0-0.3-0.1-0.3-0.2c-5.8-14.1-7.6-30.2-7.8-32.1l-13.6-8.3c-0.2-0.1-0.2-0.3-0.1-0.5
		c0.1-0.2,0.3-0.2,0.5-0.1l13.8,8.4c0.1,0.1,0.2,0.2,0.2,0.3c0,0.2,1.6,17.2,7.8,32.1c0.1,0.2,0,0.4-0.2,0.5
		C312.4,176.8,312.4,176.8,312.3,176.8z"/>
</g>
<g>
	<path d="M310.1,233.7c-0.2,0-0.3-0.1-0.4-0.3c-0.1-0.4-9.7-42.4-3.1-74.2c0-0.2,0.2-0.3,0.4-0.3c0.2,0,0.3,0.2,0.3,0.4
		c-6.6,31.6,3,73.4,3.1,73.8C310.5,233.4,310.4,233.6,310.1,233.7C310.2,233.7,310.1,233.7,310.1,233.7z"/>
</g>
<g>
	<path d="M310.9,40c-0.4,0-0.7-0.1-0.9-0.1c-0.2-0.1-0.3-0.3-0.2-0.5c0.1-0.2,0.3-0.3,0.5-0.3c0.1,0,1.9,0.5,3-1.2
		c0.1-0.2,0.4-0.2,0.5-0.1c0.2,0.1,0.2,0.3,0.1,0.5C313.1,39.7,311.9,40,310.9,40z"/>
</g>
<g>
	<path d="M316.2,31.7c-0.1,0-0.2-0.1-0.3-0.2c-0.3-0.5-0.6-0.7-1-0.7c-0.5,0-0.9,0.5-1.1,0.7c-0.1,0.2-0.3,0.2-0.5,0.1
		c-0.2-0.1-0.2-0.3-0.1-0.5c0,0,0.7-1.1,1.7-1.1c0.6,0,1.1,0.4,1.6,1.1c0.1,0.2,0.1,0.4-0.1,0.5C316.4,31.7,316.3,31.7,316.2,31.7z"
		/>
</g>
<g>
	<path d="M308.2,31.2c-0.2,0-0.4-0.2-0.4-0.4c0-0.3-0.1-0.9-0.4-1.1c-0.2-0.1-0.6,0-1.2,0.4c-0.2,0.1-0.4,0.1-0.5-0.1
		c-0.1-0.2-0.1-0.4,0.1-0.5c0.8-0.6,1.4-0.7,1.9-0.5c0.8,0.4,0.8,1.6,0.8,1.8C308.5,31,308.4,31.2,308.2,31.2L308.2,31.2z"/>
</g>
<g>
	<path d="M322.1,33.1c0,0-4.5-1.3-5.9-5.2c-1.3-3.9,0-6.2,0-6.2s-1.7-1.4-4.4-0.7c-2.7,0.7-4.1,3.5-4.1,3.5s-6.1-5.7-3.6-9.8
		c2.5-4.1,7.1,0,7.1,0s-0.3-4.2,6.4-2.9c6.7,1.3,6.7,9.8,6.7,9.8s2.6-2.5,4.6,3.3c2,5.7-1.8,8.5-1.8,8.5S325.4,32.4,322.1,33.1z"/>
</g>
<g>
	<path d="M322.1,38.6c-0.1,0-0.2,0-0.3-0.1c-0.1-0.2-0.1-0.4,0.1-0.5l3.9-3.1c0.2-0.1,0.4-0.1,0.5,0.1c0.1,0.2,0.1,0.4-0.1,0.5
		l-3.9,3.1C322.2,38.6,322.1,38.6,322.1,38.6z"/>
</g>
<g>
	<path d="M326,38.6c-0.1,0-0.1,0-0.2,0l-2.3-1.3c-0.2-0.1-0.2-0.3-0.1-0.5c0.1-0.2,0.3-0.2,0.5-0.1l2.3,1.3c0.2,0.1,0.2,0.3,0.1,0.5
		C326.2,38.5,326.1,38.6,326,38.6z"/>
</g>
<g>
	<path class="st2" d="M274,61.9c-0.4,0-0.8-0.1-1.1-0.3c-0.5-0.3-0.8-0.7-0.9-1.2c-0.5-2.9,5.6-9.3,6.3-10c0.1-0.1,0.2-0.1,0.3-0.1
		c0.1,0,0.2,0.1,0.3,0.2c1,2.7-0.7,8.5-3,10.5C275.2,61.7,274.6,61.9,274,61.9z M278.3,51.5c-2,2.2-6,6.8-5.6,8.8
		c0,0.3,0.2,0.5,0.5,0.7c0.7,0.4,1.4,0.2,2.2-0.4C277.3,58.9,278.8,54.1,278.3,51.5z"/>
</g>
<g>
	<path class="st2" d="M312.9,54.7c-4.4,0-7.1-1.4-7.2-1.4c-0.2-0.1-0.3-0.3-0.2-0.5c0.1-0.2,0.3-0.3,0.5-0.2c0,0,3.2,1.6,8,1.3
		c4.8-0.3,6.7-3.2,6.7-3.2c0.1-0.2,0.3-0.2,0.5-0.1c0.2,0.1,0.2,0.3,0.1,0.5c-0.1,0.1-2.2,3.3-7.3,3.6
		C313.6,54.7,313.2,54.7,312.9,54.7z"/>
</g>
<g>
	<path d="M240.3,36.9c0,0-0.1,0-0.1,0c-6.6-2.8-4.2-10.9-4.2-11c0.1-0.2,0.3-0.3,0.5-0.3c0.2,0.1,0.3,0.3,0.3,0.5
		c-0.1,0.3-2.2,7.5,3.8,10c0.2,0.1,0.3,0.3,0.2,0.5C240.6,36.8,240.5,36.9,240.3,36.9z"/>
</g>
<g>
	<path d="M225.5,32.4c-0.1,0-0.2,0-0.2-0.1c-0.2-0.1-0.2-0.4-0.1-0.5c0.2-0.2,3.8-5.1,10.1-6.5c0.2,0,0.4,0.1,0.4,0.3
		c0,0.2-0.1,0.4-0.3,0.4c-6,1.3-9.6,6.1-9.6,6.2C225.7,32.3,225.6,32.4,225.5,32.4z"/>
</g>
<g>
	<path class="st2" d="M290.5,84.9c-0.2,0-0.4-0.2-0.4-0.4l0.8-7.7c0-0.2,0.2-0.4,0.4-0.3c0.2,0,0.4,0.2,0.3,0.4l-0.8,7.7
		C290.9,84.7,290.7,84.9,290.5,84.9z"/>
</g>
<g>
	<path d="M332.3,127.1c-6.4,0-8-5.4-8.1-5.4c-0.1-0.2,0.1-0.4,0.3-0.5c0.2-0.1,0.4,0.1,0.5,0.3c0.1,0.3,2,6.7,10.9,4.4
		c0.2-0.1,0.4,0.1,0.5,0.3c0.1,0.2-0.1,0.4-0.3,0.5C334.6,126.9,333.4,127.1,332.3,127.1z"/>
</g>
<g>
	<path d="M373,209.9c-0.1,0-0.2,0-0.3-0.1c-0.3-0.4-32.4-36.2-41.9-83.1c0-0.2,0.1-0.4,0.3-0.4c0.2,0,0.4,0.1,0.4,0.3
		c9.4,46.7,41.4,82.4,41.7,82.7c0.1,0.2,0.1,0.4,0,0.5C373.2,209.9,373.1,209.9,373,209.9z"/>
</g>
<g>
	<path d="M316.2,28.3c-0.1,0-0.2,0-0.2-0.1l-2.2-1.8c-0.2-0.1-0.2-0.4,0-0.5c0.1-0.2,0.4-0.2,0.5,0l2.2,1.8c0.2,0.1,0.2,0.4,0,0.5
		C316.4,28.2,316.3,28.3,316.2,28.3z"/>
</g>
<g>
	<path d="M306.8,27.4c-0.1,0-0.3-0.1-0.3-0.2c-0.1-0.2,0-0.4,0.2-0.5l2.4-1.2c0.2-0.1,0.4,0,0.5,0.2c0.1,0.2,0,0.4-0.2,0.5l-2.4,1.2
		C306.9,27.4,306.8,27.4,306.8,27.4z"/>
</g>
<g>
	<path class="st4" d="M253.5,48.6c0,0-15.3,6.8-14,10.1c1.3,3.3,10.4,6.4,16.9,0.4c6.4-6-2.2-6-2.2-6L253.5,48.6z"/>
</g>
<g>
	<polygon class="st4" points="52.8,235.1 57.5,228.2 41.3,217.1 34.1,223.4 45,236.2 	"/>
</g>
<g>
	<polygon class="st4" points="84.4,229.4 84.1,241.4 105,241.1 104.1,228.2 	"/>
</g>
<g>
	<path d="M55.6,258.6c-0.5-0.1-0.8-0.5-0.7-1c0.4-2.3,1.7-8.7,5.3-11.4c4.4-3.3,13.5-4.7,16.9-6.9c3.3-2.2,7.1-7.6,9.1-6.6
		c2,1,5.7,5.7,11.2,5c5.4-0.7,7.9-2,9.4-0.7c1.5,1.3,2.3,20,1.7,21.1c-0.6,1.1-8.3,0.1-8.9,0.3s-2.5-4.3-3.8-3.6
		c-1.3,0.7-2.8,2.8-4.6,3.7C89.3,259.5,61.1,259.4,55.6,258.6z"/>
</g>
<g>
	<path class="st3" d="M70.8,162.2l2.7-50.9l32.7-0.2c0,0,4,13.1,5.1,25.8s4,93.1,3.6,94.2c-0.4,1.1-36.7,2.4-38.9,1.1
		C73.7,230.9,70.8,162.2,70.8,162.2z"/>
</g>
<g>
	<path d="M0.3,223.6c-0.3-0.3-0.3-0.9,0-1.2c1.6-1.7,6.3-6.2,10.8-6.4c5.5-0.3,13.9,3.8,18,3.8c4,0,10.2-2.3,11.3-0.3
		c1.1,2,1.6,8,6.5,10.5c4.9,2.5,7.7,2.8,8.2,4.8c0.5,1.9-9.3,17.9-10.4,18.4c-1.1,0.6-7-4.6-7.6-4.8c-0.7-0.2,0.3-5-1.2-5.1
		c-1.4-0.2-3.9,0.7-5.9,0.5C28,243.4,4.4,227.3,0.3,223.6z"/>
</g>
<g>
	<path class="st3" d="M67.7,110.9c0,0-38.4,101.1-38,103.3c0.4,2.2,29.8,18,31.6,18c1.8,0,14.7-22.9,14.7-22.9l1.6-98.2L67.7,110.9z
		"/>
</g>
<g>
	<path class="st4" d="M37.9,32.2c0,0-4.7-11.1-5.1-18.7C32.4,6,33.9,3.4,35,3.1c1.1-0.2,2.4,4.4,2.4,4.4S37.3,0.5,39.7,0
		C42.1-0.4,43,5.8,43,5.8s0.9-5.1,2.9-4.2c2,0.9,2.7,12.4,2.7,12.4s1.6-5.8,3.1-5.1c1.6,0.7,2.7,9.1,1.6,12.2s-4,6.9-4,6.9
		L37.9,32.2z"/>
</g>
<g>
	<path class="st1" d="M77.6,60c0,0-9.4-4.7-14.3-10s-7.1-26.7-7.1-26.7l-22.7,8.4c0,0,0,28.9,10.7,43.6C54.8,90,71.7,93.6,71.7,93.6
		L77.6,60z"/>
</g>
<g>
	<path class="st1" d="M74.8,60.2c0,0-1.5-6.1,6.7-9.2c8.8-3.3,22.5-3.3,27,3.7c4,6.3-2.7,9.7-2.7,9.7s2,38.3,2,43
		c0,4.7-1.3,6-3.2,6.2c-1.8,0.2-8.5,2.7-20.7,2.3c-12.2-0.3-16.7-3.2-17.7-4.2s-0.3-5.3,0.2-5.5c0.5-0.2,0.5-0.8,0.5-0.8
		S64.8,87.5,74.8,60.2z"/>
</g>
<g>
	<rect x="219.6" y="235.4" class="st4" width="18" height="12"/>
</g>
<g>
	<path d="M67.5,218.9c-0.1,0-0.1,0-0.2,0l-20.5-9.4c-0.2-0.1-0.3-0.3-0.2-0.5c0.1-0.2,0.3-0.3,0.5-0.2l20.5,9.4
		c0.2,0.1,0.3,0.3,0.2,0.5C67.8,218.8,67.7,218.9,67.5,218.9z"/>
</g>
<g>
	<path class="st4" d="M94.3,99.2c0,0-11.5,3.2-8.6,5.5c2.8,2.3,9.4,0.2,9.4,0.2L94.3,99.2z"/>
</g>
<g>
	<rect x="249.3" y="234.4" class="st4" width="19.3" height="12"/>
</g>
<g>
	<path class="st2" d="M67.5,89.5c-0.2,0-0.4-0.2-0.4-0.4c0.6-6.4,3.8-18.5,3.9-18.6c0.1-0.2,0.3-0.3,0.5-0.3
		c0.2,0.1,0.3,0.3,0.3,0.5c0,0.1-3.2,12.1-3.9,18.5C67.9,89.3,67.7,89.5,67.5,89.5z"/>
</g>
<g>
	<path class="st5" d="M221.9,111.4c0,0-6.3,35.7-8.7,74c-2.3,38.3,0,52.7,0,52.7s29.7,1.7,31,0c1.3-1.7,2.7-18.3,2.7-18.3
		s-1.3,18.7,0,18.7c1.3,0,26.3,0.7,26.7-1c0.3-1.7,10.7-50,12.3-65.7c1.7-15.7-19.7-62-19.7-62L221.9,111.4z"/>
</g>
<g>
	<polygon class="st4" points="160.8,248.5 160.8,237.5 181.3,236.8 182,251.9 171.9,254.5 	"/>
</g>
<g>
	<path class="st1" d="M182.4,106.7c0,0,11.3,34.4,10.4,71.1c-0.7,29.9-3.3,57.8-4,59.3c-0.7,1.6-38.9,1.1-38.9,1.1l18.9-129.3
		L182.4,106.7z"/>
</g>
<g>
	<polygon class="st4" points="119.7,238.9 123.5,230.9 143.3,237.4 137.9,250 127.3,248.7 	"/>
</g>
<g>
	<path class="st0" d="M246.9,227.4c-0.2,0-0.4-0.2-0.4-0.4l6.2-56.1c0-0.2,0.2-0.3,0.4-0.3c0.2,0,0.4,0.2,0.3,0.4l-6.2,56.1
		C247.2,227.2,247.1,227.4,246.9,227.4z"/>
</g>
<g>
	<path class="st1" d="M142.6,106.7c0,0-8.2,15.3-7.1,37.6c1.1,22.2,2.9,30,2.9,30s-22.7,54.7-22.2,56c0.4,1.3,31.6,14.2,33.8,13.1
		c2.2-1.1,25.1-64.4,26.2-68.4s-2-66-2-66L142.6,106.7z"/>
</g>
<g>
	<path class="st6" d="M153.5,238.4c-0.1,0-0.1,0-0.2,0c-0.2-0.1-0.3-0.3-0.2-0.5c0.2-0.4,17.3-35.7,19.2-42.9
		c0.1-0.2,0.3-0.3,0.5-0.3c0.2,0.1,0.3,0.3,0.3,0.5c-1.9,7.3-18.5,41.6-19.2,43.1C153.8,238.3,153.7,238.4,153.5,238.4z"/>
</g>
<g>
	<path d="M151.6,36.4c0,0-14.1,5.3-13.5,19.8c0.6,14.6,27.7,14.4,27.7,14.4s15.8,0.6,19.4-9.9s-10.7-16-10.7-16
		S156.7,32.3,151.6,36.4z"/>
</g>
<g>
	<path class="st3" d="M177.2,58.7c0,0,8.7,1.2,13.7,3.8c5,2.6,22.8,3.3,32.8-2.1c10-5.4-7.7,24.2-7.7,24.2s-19.8,8.4-31.7,1.6
		C172.5,79.2,177.2,58.7,177.2,58.7z"/>
</g>
<g>
	<path class="st0" d="M195.8,104.9c0,0,1.3-22.6,16-36c14.7-13.4,23.8-14.3,23.8-14.3l9.3-0.9c0,0,10.3-1.7,29.3,10.4
		c18.9,12.1,24.6,40.6,24.6,40.6l-31.3,6l-45.3,0.7L195.8,104.9z"/>
</g>
<g>
	<path class="st1" d="M234.5,55.7c0,0-1.6,22.1-0.4,39.8c1.1,17.8,2.9,23.1,2.9,23.1s4.4,1.4,8.1,1.3s6.7-1.3,6.7-1.3
		s0.4-12.4-0.8-27.3c-1.2-15-5-37.9-5-37.9L234.5,55.7z"/>
</g>
<g>
	<path class="st4" d="M234.4,49l0.1,6.8c0,0,2.6,2.1,5.9,2.1c4.4,0,5.9-3.4,5.9-3.4l-0.2-7.9L234.4,49z"/>
</g>
<g>
	<path d="M234.4,49c0,0,2.8,4.7,6.8,3.9c4-0.8,4.4-5.6,4.4-5.6L234.4,49z"/>
</g>
<g>
	<path class="st4" d="M247.8,29.3c0,0,2.5,12.1-1.3,18c-3.8,5.9-9,4.3-11.3,2.5c-3.1-2.3-3.8-5.6-3.8-5.6s-4.2,0.9-5.7-2.5
		c-1.6-3.6,1-6.6,3.2-6.8c2.1-0.2,2.4,0.2,2.4,0.2l-0.7-3.9C230.5,31.1,243.2,16.5,247.8,29.3z"/>
</g>
<g>
	<path class="st6" d="M223.4,107.3c-0.2,0-0.4-0.2-0.4-0.4c0-0.1,0.1-7.8-3.8-13.1c-3.9-5.3-11-6.7-11-6.7c-0.2,0-0.3-0.2-0.3-0.4
		c0-0.2,0.2-0.3,0.4-0.3c0.3,0.1,7.5,1.5,11.5,7c4,5.5,3.9,13.2,3.9,13.6C223.8,107.1,223.6,107.3,223.4,107.3z"/>
</g>
<g>
	<path class="st6" d="M219.6,94c-0.1,0-0.2,0-0.3-0.1c-0.6-0.7-5.9-6.6-4.9-8.8c0.2-0.6,0.8-0.9,1.7-0.9c0.7,0,1.3,0.3,1.8,0.8
		c2.2,2.2,2.1,8.3,2.1,8.6c0,0.2-0.1,0.3-0.2,0.3C219.7,93.9,219.6,94,219.6,94z M216.1,85c-0.8,0-1,0.3-1,0.4
		c-0.5,1.2,2,4.8,4.1,7.2c-0.1-1.8-0.4-5.6-1.9-7.1C216.9,85.1,216.5,85,216.1,85z"/>
</g>
<g>
	<path class="st6" d="M272.7,103.7c-0.2,0-0.4-0.2-0.4-0.4c0-0.3-0.1-8.1,3.9-13.6c4-5.5,11.2-7,11.5-7c0.2,0,0.4,0.1,0.4,0.3
		c0,0.2-0.1,0.4-0.3,0.4c-0.1,0-7.2,1.5-11,6.7c-3.9,5.3-3.8,13-3.8,13.1C273.1,103.6,272.9,103.7,272.7,103.7
		C272.7,103.7,272.7,103.7,272.7,103.7z"/>
</g>
<g>
	<path class="st6" d="M276.5,90.4c0,0-0.1,0-0.1,0c-0.1-0.1-0.2-0.2-0.2-0.3c0-0.3,0-6.4,2.1-8.6c0.5-0.5,1.1-0.8,1.8-0.8
		c0.9,0,1.4,0.3,1.7,0.9c1,2.2-4.3,8.1-4.9,8.8C276.7,90.4,276.6,90.4,276.5,90.4z M280.1,81.4c-0.5,0-0.9,0.2-1.2,0.6
		c-1.5,1.5-1.8,5.2-1.9,7.1c2.1-2.4,4.7-6,4.1-7.2C281,81.7,280.9,81.4,280.1,81.4C280.1,81.4,280.1,81.4,280.1,81.4z"/>
</g>
<g>
	<path class="st3" d="M149.9,58.3c0,0-23.8,9.3-29.8,29.5c-5.7,19.1,22.9,20.9,22.9,20.9s-1.3-8.4,5.6-10.7s10,0.4,10,0.4
		l-15.1-17.1L149.9,58.3z"/>
</g>
<g>
	<path class="st4" d="M214,99.5c0,0,11.7,2.3,9,4.9c-2.7,2.6-9.3,0.9-9.3,0.9L214,99.5z"/>
</g>
<g>
	<path class="st4" d="M284.6,98.9c0,0-11.5,3.2-8.6,5.5c2.9,2.3,9.4,0.2,9.4,0.2L284.6,98.9z"/>
</g>
<g>
	<path class="st4" d="M160.7,49.2l0.9,8.7c0,0,1.8,2.4,7,2.3c3.8-0.1,5.1-1.1,5.1-1.1l-1-4.4l-0.9-4.3l-9.4-1.1L160.7,49.2z"/>
</g>
<g>
	<path d="M162.3,49.4c0,0.2,0.2,0.5,0.3,0.8c2.4,4.2,7.8,4.6,10,4.6l-0.9-4.3L162.3,49.4z"/>
</g>
<g>
	<path class="st4" d="M171.8,30.4c0,0,5.7,10.5,4.4,16.8c-1.2,6.3-6.9,5.8-10.3,4.9c-3.4-0.9-5.2-2.8-5.2-2.8s-3,1.3-5.4-1.4
		c-2.3-2.7-1.3-6.2,0.4-7.1c1.7-0.9,3.9,0.2,3.9,0.2l-1.9-3C157.8,37.9,163.5,21.2,171.8,30.4z"/>
</g>
<g>
	<path d="M172.7,44.3c-0.2,0-0.4-0.2-0.4-0.4c0-3.6-1.7-5.6-1.8-5.6c-0.1-0.2-0.1-0.4,0-0.5c0.2-0.1,0.4-0.1,0.5,0
		c0.1,0.1,2,2.2,2,6.1C173.1,44.1,172.9,44.3,172.7,44.3z"/>
</g>
<g>
	<path d="M170.1,47.3c-0.9,0-2-0.3-2.7-1.5c-0.1-0.2-0.1-0.4,0.1-0.5c0.2-0.1,0.4-0.1,0.5,0.1c1,1.6,2.7,1.1,2.8,1.1
		c0.2-0.1,0.4,0.1,0.5,0.3c0.1,0.2-0.1,0.4-0.2,0.5C170.7,47.3,170.4,47.3,170.1,47.3z"/>
</g>
<g>
	<path d="M159.8,46c-0.1,0-0.2,0-0.2-0.1l-3.6-2.9c-0.2-0.1-0.2-0.4-0.1-0.5c0.1-0.2,0.4-0.2,0.5-0.1l3.6,2.9
		c0.2,0.1,0.2,0.4,0.1,0.5C160,46,159.9,46,159.8,46z"/>
</g>
<g>
	<path d="M156.1,46c-0.1,0-0.3-0.1-0.3-0.2c-0.1-0.2,0-0.4,0.1-0.5l2.1-1.2c0.2-0.1,0.4,0,0.5,0.1c0.1,0.2,0,0.4-0.1,0.5l-2.1,1.2
		C156.3,46,156.2,46,156.1,46z"/>
</g>
<g>
	<path d="M234.8,39.5c-0.2,0-0.4-0.1-0.4-0.3l-0.2-2.1c0-0.2,0.1-0.4,0.3-0.4c0.2,0,0.4,0.1,0.4,0.3l0.2,2.1
		C235.2,39.3,235.1,39.5,234.8,39.5C234.8,39.5,234.8,39.5,234.8,39.5z"/>
</g>
<g>
	<path d="M241.8,38.7c-0.2,0-0.4-0.1-0.4-0.3l-0.2-2.1c0-0.2,0.1-0.4,0.3-0.4c0.2,0,0.4,0.1,0.4,0.3l0.2,2.1
		C242.2,38.5,242.1,38.7,241.8,38.7C241.9,38.7,241.9,38.7,241.8,38.7z"/>
</g>
<g>
	<path d="M159.1,40.8c0,0,4.9-0.8,7.5-5.3c2.6-4.4,2-5.7,2-5.7l3.4,2.8c1.1,0.9,2,2.1,2.5,3.5l0.4,1.2c0,0,1.6,1.9,2.2-5.4
		s-12.5-12.2-20.6-8.6c-8.1,3.6-4.9,12.9-4.9,12.9L159.1,40.8z"/>
</g>
<g>
	<path class="st2" d="M331.9,250.6c0,0-8-0.1-8-0.1c-0.2,0-0.4-0.2-0.4-0.4c0-0.2,0.2-0.4,0.4-0.4c0,0,8,0.1,8,0.1
		c0.2,0,0.4,0.2,0.4,0.4C332.2,250.5,332.1,250.6,331.9,250.6z"/>
</g>
<g>
	<path class="st3" d="M187.2,88.7c0,0-1.1,4.2-1.1,5.1s-1.1,11.1-1.8,12.9c-0.7,1.8-6.9,6.9-20,6c-13.1-0.9-21.6-2.4-23.6-4.7
		s0.7-42.7,4-46.7s12.2-4.2,12.2-4.2s-0.7-2.2,1.1-3.1s8,2,11.3,2.2c3.3,0.2,4.7-0.9,6-0.7c1.3,0.2,1.8,3.1,1.8,3.1
		s4.6,2.9,8.3,12.2C189.4,80.2,187.2,88.7,187.2,88.7z"/>
</g>
<g>
	<path class="st1" d="M102.6,61c0,0,19.7-1,29.3,26c5.7,16-11.3,23.4-18.9,23.9c-7.6,0.4-16.4-0.9-16.4-0.9S87.8,74,102.6,61z"/>
</g>
<g>
	<rect x="66.1" y="102.9" class="st2" width="262.6" height="108"/>
</g>
<g>
	<path class="st4" d="M153.1,93.3c3.2,0.6,4.2,2.7,5.4,5.6c0.7,1.6,2.9,3.6,2.9,5.3c0,4-3.6,9.8-5.1,10.7c-1.6,0.9-2.9,0-2.9,0
		s-2.4,2-3.8,1.6c-1.3-0.4-2-1.3-2-1.3s-2.4,2-4,1.1c-1.6-0.9-3.8-6-2.2-6.9c1.6-0.9,2.9,0.9,2.9,0.9l-0.9-2.3
		c-1.1-2.8-1.3-5.8-0.5-8.7C144,95.7,146.6,92.1,153.1,93.3z"/>
</g>
<g>
	<path class="st4" d="M257.2,52.6c0,0-0.8-6-3.5-4.1c-2.7,1.9-3.8,12.8-0.5,13.9C256.4,63.5,257.2,52.6,257.2,52.6z"/>
</g>
<g>
	<path class="st4" d="M262.2,53.1c0,0-0.8-6-3.5-4.1c-2.7,1.9-3.8,12.8-0.5,13.9C261.4,64,262.2,53.1,262.2,53.1z"/>
</g>
<g>
	<path class="st4" d="M266.8,55c0,0,0.2-5.3-2.5-4.1c-2.7,1.2-5.2,10.6-2.6,12C264.5,64.4,266.8,55,266.8,55z"/>
</g>
<g>
	<path class="st4" d="M289.9,99.8c0,0-0.9-6.8-4-4.6c-3.1,2.2-4.3,14.5-0.6,15.7C289,112.2,289.9,99.8,289.9,99.8z"/>
</g>
<g>
	<path class="st4" d="M295.5,100.5c0,0-0.9-6.8-4-4.6c-3.1,2.2-4.3,14.5-0.6,15.7C294.6,112.8,295.5,100.5,295.5,100.5z"/>
</g>
<g>
	<path class="st4" d="M300.8,102.6c0,0,0.2-6-2.8-4.6c-3,1.4-5.9,12-2.9,13.6C298.1,113.2,300.8,102.6,300.8,102.6z"/>
</g>
<g>
	<path class="st4" d="M99.6,100.2c0,0-0.9-6.8-4-4.6c-3.1,2.2-4.3,14.5-0.6,15.7C98.6,112.5,99.6,100.2,99.6,100.2z"/>
</g>
<g>
	<path class="st4" d="M105.2,100.8c0,0-0.9-6.8-4-4.6c-3.1,2.2-4.3,14.5-0.6,15.7C104.3,113.1,105.2,100.8,105.2,100.8z"/>
</g>
<g>
	<path class="st4" d="M110.4,102.9c0,0,0.2-6-2.8-4.6c-3,1.4-5.9,12-2.9,13.6C107.8,113.5,110.4,102.9,110.4,102.9z"/>
</g>
<g>
	<path class="st4" d="M208.3,99.4c0,0,0.9-6.8,4-4.6c3.1,2.2,4.3,14.5,0.6,15.7C209.2,111.7,208.3,99.4,208.3,99.4z"/>
</g>
<g>
	<path class="st4" d="M202.7,100c0,0,0.9-6.8,4-4.6c3.1,2.2,4.3,14.5,0.6,15.7C203.6,112.3,202.7,100,202.7,100z"/>
</g>
<g>
	<path class="st4" d="M197.4,102.2c0,0-0.2-6,2.8-4.6s5.9,12,2.9,13.6C200.1,112.8,197.4,102.2,197.4,102.2z"/>
</g>
<g>
	<path class="st4" d="M246.7,35c0,0,6.4-2.9,7,2.1c0.7,5.8-6.2,5.9-6.2,5.9L246.7,35z"/>
</g>
<g>
	<path d="M238.8,43.2c-0.1,0-0.2,0-0.3-0.1c-1.4-1.7-0.7-5.1-0.7-5.3c0-0.2,0.2-0.3,0.4-0.3c0.2,0,0.3,0.2,0.3,0.4
		c0,0-0.6,3.2,0.5,4.6c0.1,0.2,0.1,0.4,0,0.5C239,43.2,238.9,43.2,238.8,43.2z"/>
</g>
<g>
	<path d="M241,46.6c-0.8,0-1.8-0.7-2.3-1.1c-0.1-0.1-0.2-0.3-0.1-0.4c0-0.1,0.2-0.3,0.3-0.3c0,0,1-0.1,2.1-0.8
		c0.6-0.4,0.8-0.6,1-0.7c0.1-0.1,0.3-0.2,0.5-0.2c0.1,0,0.2,0.1,0.3,0.3c0.1,0.3-0.6,2.7-1.3,3.1C241.3,46.6,241.2,46.6,241,46.6z
		 M239.9,45.4c0.5,0.3,1,0.5,1.2,0.4c0.2-0.1,0.5-0.8,0.7-1.5c-0.1,0.1-0.2,0.2-0.4,0.3C240.9,45,240.3,45.3,239.9,45.4z"/>
</g>
<g>
	<path d="M249.7,40.5c0,0-0.1,0-0.1,0c-0.2-0.1-0.3-0.3-0.3-0.5l1.4-4.6c0.1-0.2,0.3-0.3,0.5-0.3c0.2,0.1,0.3,0.3,0.3,0.5l-1.4,4.6
		C250,40.4,249.9,40.5,249.7,40.5z"/>
</g>
<g>
	<path d="M252.3,38.5c0,0-1.9-0.2-1.9-0.2c-0.2,0-0.4-0.2-0.3-0.4c0-0.2,0.2-0.4,0.4-0.3l1.8,0.2c0.2,0,0.4,0.2,0.3,0.4
		C252.7,38.4,252.5,38.5,252.3,38.5z"/>
</g>
<g>
	<path d="M230.3,41.6c-0.1,0-0.3-0.1-0.3-0.2l-1.8-4.5c-0.1-0.2,0-0.4,0.2-0.5c0.2-0.1,0.4,0,0.5,0.2l1.8,4.5c0.1,0.2,0,0.4-0.2,0.5
		C230.4,41.6,230.4,41.6,230.3,41.6z"/>
</g>
<g>
	<path d="M227.6,39.9c-0.2,0-0.3-0.1-0.4-0.3c0-0.2,0.1-0.4,0.3-0.4l1.8-0.4c0.2,0,0.4,0.1,0.4,0.3c0,0.2-0.1,0.4-0.3,0.4
		L227.6,39.9C227.6,39.9,227.6,39.9,227.6,39.9z"/>
</g>
<g>
	<path d="M231.2,34.9c0,0,1,0,1.5-1.4c0.5-1.4,0.5-2.1,0.5-2.1s2.9,2.2,6,0.9c3.1-1.3,4-2.8,4-2.8s-0.1,4,1.4,5.4
		c1.5,1.5,3.9-0.5,3.9-0.5s2.2-3,2.3-7.9c0.1-5-4.8-7.9-7.2-7.3c-2.4,0.6-4.4,3.9-8.5,6.3c-4.1,2.5-7.1,1.3-8.9,4.4
		c-1.8,3,0,6.4,0,6.4S227.9,34.2,231.2,34.9z"/>
</g>
<g>
	<path d="M229.7,33.9c0,0,1.1,4.4,1.7,4.4c0.6,0,0.6-4.8,0.6-4.8L229.7,33.9z"/>
</g>
<g>
	<path d="M245.7,33.9c0,0,0.5,3.8,1.2,3.8c0.7,0.1,1.9-4.3,1.9-4.3L245.7,33.9z"/>
</g>
<g>
	<path class="st7" d="M161.2,268.5c-1.5-0.1-2.7-1.3-2.7-2.9c-0.1-6.3-0.2-20.7,1-20.7c1.5,0,15.6,4.2,15.6,4.2s0.3-8.7,6.5-7.2
		c4.7,1.1,10.3,6.6,12.6,9c0.7,0.8,1.7,1.3,2.7,1.6c4.4,1,16.6,4.4,16.8,10.7c0.3,7.8-2.9,6.9-4.4,7
		C208.1,270.2,171.5,268.9,161.2,268.5z"/>
</g>
<g>
	<path class="st5" d="M112.2,257.9c-1.3-0.7-1.7-2.4-1-3.8c2.9-5.6,8.6-18.4,9.6-17.9c1.3,0.7,12.5,10.9,12.5,10.9s4.3-7.5,9-3.4
		c3.6,3.2,5.8,10.5,6.7,13.8c0.3,1,0.8,1.9,1.6,2.6c3.3,2.9,12.3,11.5,9.5,17.2c-3.4,7-5.7,4.8-7,4.1
		C151.9,280.9,120.9,262.9,112.2,257.9z"/>
</g>
<g>
	<path class="st3" d="M301.8,265.7c0,0.1,0,0.2-0.1,0.3c-0.5,1.9-1.5,4.5-2.3,5.3c-0.8,0.8-8.6,0.5-17.2,0.8
		c-7.7,0.3-33-0.5-33.7-1.5c-0.5-0.7-0.8-5-0.9-6.1c0-0.4-0.1-0.6-0.1-0.6s-0.3-19.9,1.3-21.2c1.6-1.3,19.6-0.9,21.2,0
		c1.6,0.9,10.1,11.1,12.6,12c2.5,0.9,15.2,3.5,18,6.3C301.9,262.4,302.1,264.1,301.8,265.7z"/>
</g>
<g>
	<path class="st3" d="M242.2,266.9c0,2.3-0.7,4.9-2,5.5c-1.3,0.6-12.2,2-21.7,1.1c-9.1-0.9-11-1.7-11.6-2.7c-0.3-0.5,0.4-3,1.2-5.3
		c0.4-1.1,0.8-2.2,1.1-2.9c0.3-0.7,0.6-1.4,1-2.1c1-1.6,2.9-4.8,3.4-6.5c0.7-2.3,1.7-7.1,2.3-9.4c0.7-2.3,3.3-3.2,3.3-3.2
		s17.7-1,19,0.3c1.3,1.3,2,12,2,13.6v1.6c0,1.9,1.4,6,1.8,8.6C242.2,266,242.2,266.5,242.2,266.9z"/>
</g>
<g>
	<path d="M43.5,25.7c-0.2,0-0.4-0.1-0.4-0.3c-0.7-7,5-11.5,5.3-11.7c0.2-0.1,0.4-0.1,0.5,0.1c0.1,0.2,0.1,0.4-0.1,0.5
		c-0.1,0-5.6,4.4-5,11C43.9,25.5,43.7,25.7,43.5,25.7C43.5,25.7,43.5,25.7,43.5,25.7z"/>
</g>
<g>
	<path d="M36.1,16.2c-0.2,0-0.3-0.1-0.4-0.3c-0.1-0.2,0.1-0.4,0.2-0.5l10.9-3.3c0.2-0.1,0.4,0.1,0.5,0.2c0.1,0.2-0.1,0.4-0.2,0.5
		l-10.9,3.3C36.2,16.2,36.2,16.2,36.1,16.2z"/>
</g>
<g>
	<path d="M242.7,34.2c-0.1,0-0.1,0-0.2,0c-1.2-0.6-3.1-0.6-3.2-0.6c-0.2,0-0.4-0.2-0.4-0.4c0-0.2,0.2-0.4,0.4-0.4
		c0.1,0,2.1-0.1,3.5,0.6c0.2,0.1,0.3,0.3,0.2,0.5C243,34.1,242.9,34.2,242.7,34.2z"/>
</g>
<g>
	<path d="M232.9,36c-0.1,0-0.2,0-0.3-0.1c-0.1-0.1-0.1-0.4,0-0.5c1.1-1.1,3.1-1.6,3.2-1.6c0.2-0.1,0.4,0.1,0.5,0.3
		c0.1,0.2-0.1,0.4-0.3,0.5c0,0-1.9,0.5-2.9,1.4C233.1,36,233,36,232.9,36z"/>
</g>
<g>
	<path d="M165.2,36.3c-0.1,0-0.3-0.1-0.3-0.2c-0.1-0.2,0-0.4,0.2-0.5l3.1-1.5c0.2-0.1,0.4,0,0.5,0.2c0.1,0.2,0,0.4-0.2,0.5l-3.1,1.5
		C165.3,36.3,165.3,36.3,165.2,36.3z"/>
</g>
<g>
	<path d="M173.8,34.8c-0.1,0-0.1,0-0.2,0l-2.1-1.1c-0.2-0.1-0.3-0.3-0.2-0.5c0.1-0.2,0.3-0.3,0.5-0.2l2.1,1.1
		c0.2,0.1,0.3,0.3,0.2,0.5C174.1,34.7,174,34.8,173.8,34.8z"/>
</g>
<g>
	<path d="M167.6,40.2c-0.2,0-0.3-0.1-0.4-0.3l-0.6-1.8c0-0.1,0-0.2,0-0.3l0.7-1.3c0.1-0.2,0.3-0.2,0.5-0.1c0.2,0.1,0.2,0.3,0.1,0.5
		l-0.6,1.1l0.6,1.7c0.1,0.2,0,0.4-0.2,0.5C167.7,40.2,167.6,40.2,167.6,40.2z"/>
</g>
<g>
	<path d="M173.8,38.9c-0.2,0-0.3-0.1-0.4-0.3l-0.6-1.8c0-0.1,0-0.2,0-0.3l0.9-1.2c0.1-0.2,0.4-0.2,0.5-0.1c0.2,0.1,0.2,0.4,0.1,0.5
		l-0.8,1.1l0.5,1.6c0.1,0.2,0,0.4-0.2,0.5C173.9,38.9,173.9,38.9,173.8,38.9z"/>
</g>
<g>
	<g>
		<path class="st4" d="M84.6,46.9l1,8.3c0,0,1.9,2.2,7.1,2c3.9-0.1,5.2-1.1,5.2-1.1L96.9,52l-1-4L86.2,47L84.6,46.9z"/>
	</g>
	<g>
		<path d="M86.2,47c0.1,0.2,0.2,0.5,0.4,0.8c2.5,4.2,8,4.5,10.3,4.5l-1-4.3L86.2,47z"/>
	</g>
	<g>
		<path class="st4" d="M95.5,27.6c0,0,5.9,10.6,4.8,17c-1.1,6.4-6.9,6-10.4,5.1c-3.5-0.9-5.3-2.8-5.3-2.8s-3.1,1.4-5.5-1.3
			c-2.4-2.7-1.4-6.2,0.3-7.2c1.7-1,4,0.1,4,0.1l-2-3C81.4,35.4,86.9,18.3,95.5,27.6z"/>
	</g>
	<g>
		<path d="M96.6,41.4c0.2,0,0.4-0.2,0.4-0.4c-0.1-4-2-5.8-2-5.9c-0.1-0.1-0.4-0.1-0.5,0c-0.1,0.1-0.1,0.4,0,0.5c0,0,1.7,1.8,1.8,5.4
			C96.3,41.2,96.4,41.4,96.6,41.4z"/>
	</g>
	<g>
		<path d="M83.6,43.7c0.1,0,0.2-0.1,0.3-0.1c0.1-0.2,0.1-0.4-0.1-0.5l-3.8-2.9c-0.2-0.1-0.4-0.1-0.5,0.1c-0.1,0.2-0.1,0.4,0.1,0.5
			l3.8,2.9C83.4,43.6,83.5,43.7,83.6,43.7z"/>
	</g>
	<g>
		<path d="M79.9,43.7c0.1,0,0.1,0,0.2-0.1l2.1-1.3c0.2-0.1,0.2-0.3,0.1-0.5c-0.1-0.2-0.3-0.2-0.5-0.1L79.7,43
			c-0.2,0.1-0.2,0.3-0.1,0.5C79.6,43.7,79.8,43.7,79.9,43.7z"/>
	</g>
	<g>
		<path d="M84.1,39.3c0,0,1.8-0.7,3.1-3.5c1.4-3.1,1.1-5.1,1.1-5.1s3.4,1.9,6,0.9c4.1-1.4,0.8-4,0.8-4l3.2,5.9c0,0,1.1-1.2,0.9-2.8
			c-0.2-1.5-1.7-2.5-1.7-2.5s0.5-4.3-3.1-5.5c-3.5-1.2-6.5,2.5-6.5,2.5s0.6-4.2-4-2.6c-4.6,1.5-4.6,8.5-4.6,8.5s-3.1,1.1-4.2,3.4
			c-1.1,2.3,2.9,5.5,2.9,5.5S78.7,36.4,84.1,39.3z"/>
	</g>
	<g>
		<path d="M92.4,37.7C92.4,37.7,92.4,37.7,92.4,37.7c0.3-0.1,0.4-0.3,0.4-0.5l-0.4-1.9c0-0.2-0.2-0.3-0.4-0.3
			c-0.2,0-0.3,0.2-0.3,0.4l0.4,1.9C92.1,37.6,92.2,37.7,92.4,37.7z"/>
	</g>
	<g>
		<path d="M97.8,37.2C97.8,37.2,97.8,37.2,97.8,37.2c0.3-0.1,0.4-0.3,0.4-0.5l-0.5-1.9c-0.1-0.2-0.3-0.3-0.5-0.3
			c-0.2,0.1-0.3,0.3-0.3,0.5l0.5,1.9C97.4,37.1,97.6,37.2,97.8,37.2z"/>
	</g>
	<g>
		<path d="M92.6,45c-1-0.6-0.9-2.1-0.9-2.2c0-0.1,0.1-0.2,0.2-0.3c0.1-0.1,0.2-0.1,0.3,0l3,1.2c0.1,0.1,0.2,0.2,0.2,0.3
			c0,0.1,0,0.3-0.2,0.3c-0.1,0.1-1.1,0.8-2.1,0.8C93.1,45.2,92.8,45.1,92.6,45z M92.5,43.4c0,0.4,0.2,0.8,0.5,1
			c0.3,0.2,0.8,0,1.3-0.2L92.5,43.4z"/>
	</g>
	<g>
		<path d="M90.1,34.2c0.2,0,0.3-0.1,0.4-0.3c0.3-0.9,1.6-0.6,1.6-0.6c0.2,0,0.4-0.1,0.4-0.3c0-0.2-0.1-0.4-0.3-0.4
			c-0.7-0.1-2.1-0.1-2.5,1.1c-0.1,0.2,0,0.4,0.2,0.5C90,34.2,90.1,34.2,90.1,34.2z"/>
	</g>
	<g>
		<path d="M97.8,33.2c0.1,0,0.1,0,0.2-0.1c0.2-0.1,0.2-0.3,0.1-0.5c-0.7-1.2-2-1.1-2.5-0.9c-0.2,0.1-0.3,0.3-0.2,0.5
			c0.1,0.2,0.3,0.3,0.5,0.2c0.1,0,1.1-0.4,1.6,0.6C97.5,33.2,97.6,33.2,97.8,33.2z"/>
	</g>
</g>
<g>
	<path class="st5" d="M187.6,87.1C187.6,87.1,187.5,87.1,187.6,87.1c-0.3,0-0.4-0.2-0.4-0.4c1.8-11.2-4.9-21.5-5-21.6
		c-0.1-0.2-0.1-0.4,0.1-0.5c0.2-0.1,0.4-0.1,0.5,0.1c0.1,0.1,7,10.7,5.1,22.1C187.9,87,187.8,87.1,187.6,87.1z"/>
</g>
<g>
	<path class="st5" d="M168,60.6c-6.8,0-11-3-11.2-3.1c-0.2-0.1-0.2-0.4-0.1-0.5c0.1-0.2,0.4-0.2,0.5-0.1c0,0,4.5,3.2,11.3,3
		c0.2,0,0.4,0.2,0.4,0.4c0,0.2-0.2,0.4-0.4,0.4C168.4,60.6,168.2,60.6,168,60.6z"/>
</g>
<g>
	<path class="st0" d="M245.6,232.6h-32.9c-0.2,0-0.4-0.2-0.4-0.4c0-0.2,0.2-0.4,0.4-0.4h32.9c0.2,0,0.4,0.2,0.4,0.4
		C246,232.5,245.8,232.6,245.6,232.6z"/>
</g>
<g>
	<path class="st0" d="M274.7,232.7h-25.4c-0.2,0-0.4-0.2-0.4-0.4s0.2-0.4,0.4-0.4h25.4c0.2,0,0.4,0.2,0.4,0.4
		S274.9,232.7,274.7,232.7z"/>
</g>
<g>
	<path class="st6" d="M239.9,58.3c-4.8,0-5.8-3.2-5.8-3.4c-0.1-0.2,0.1-0.4,0.3-0.5c0.2-0.1,0.4,0.1,0.5,0.2c0,0.1,0.9,2.8,5.1,2.8
		c0,0,0.1,0,0.1,0c5.6,0,6.4-3.7,6.4-3.8c0-0.2,0.2-0.3,0.4-0.3c0.2,0,0.3,0.2,0.3,0.4C247.1,54,246.2,58.2,239.9,58.3
		C239.9,58.3,239.9,58.3,239.9,58.3z"/>
</g>
<g>
	<path class="st6" d="M259.4,83.7c-0.1,0-0.1,0-0.2,0c-1.7,0-3.1-0.6-4.2-1.8c-2.4-2.6-2.3-7-2.3-7.2c0-0.2,0.2-0.4,0.4-0.4h12.3
		c0.2,0,0.3,0.1,0.4,0.3c0,0.2,0.6,4.6-1.7,7.2C262.8,83.1,261.3,83.7,259.4,83.7z M253.4,75.1c0,1.1,0.3,4.3,2.1,6.3
		c0.9,1,2.2,1.5,3.7,1.5c1.8,0,3.2-0.5,4.2-1.6c1.7-2,1.7-5.2,1.6-6.2H253.4z"/>
</g>
<g>
	<path class="st5" d="M157.2,94c-0.1,0-0.2-0.1-0.3-0.2c-5.6-7.9-17.8-9.8-17.9-9.8c-0.2,0-0.3-0.2-0.3-0.4c0-0.2,0.2-0.3,0.4-0.3
		c0.5,0.1,12.7,2,18.4,10.2c0.1,0.2,0.1,0.4-0.1,0.5C157.4,93.9,157.3,94,157.2,94z"/>
</g>
<g>
	<path class="st5" d="M148.6,87.1c-0.1,0-0.2,0-0.3-0.1c-0.6-0.7-3.8-4-3.2-5.6c0.1-0.3,0.4-0.7,1.1-0.7c0.6-0.1,1.1,0.1,1.6,0.5
		c1.5,1.4,1.2,5.4,1.2,5.6c0,0.1-0.1,0.3-0.2,0.3C148.7,87.1,148.6,87.1,148.6,87.1z M146.5,81.4c-0.1,0-0.1,0-0.2,0
		c-0.4,0-0.5,0.2-0.5,0.3c-0.3,0.7,1.1,2.6,2.4,4.1c0-1.3-0.2-3.3-1-4.1C147,81.5,146.8,81.4,146.5,81.4z"/>
</g>
<g>
	<path d="M288.7,107.3C288.7,107.3,288.6,107.3,288.7,107.3c-0.3,0-0.4-0.2-0.4-0.4l1.2-7.1c0-0.2,0.2-0.3,0.4-0.3
		c0.2,0,0.3,0.2,0.3,0.4l-1.2,7.1C289,107.2,288.9,107.3,288.7,107.3z"/>
</g>
<g>
	<path d="M294.8,107.9c-0.2,0-0.4-0.2-0.4-0.4l0.7-7.1c0-0.2,0.2-0.4,0.4-0.3c0.2,0,0.4,0.2,0.3,0.4l-0.7,7.1
		C295.1,107.7,295,107.9,294.8,107.9z"/>
</g>
<g>
	<path d="M209.6,106.2c-0.2,0-0.3-0.1-0.4-0.3l-1.1-7.4c0-0.2,0.1-0.4,0.3-0.4c0.2,0,0.4,0.1,0.4,0.3l1.1,7.4
		C210,105.9,209.9,106.1,209.6,106.2C209.6,106.2,209.6,106.2,209.6,106.2z"/>
</g>
<g>
	<path d="M204.4,109c-0.2,0-0.3-0.1-0.4-0.3l-1.7-8.2c0-0.2,0.1-0.4,0.3-0.4c0.2,0,0.4,0.1,0.4,0.3l1.7,8.2
		C204.8,108.8,204.7,109,204.4,109C204.5,109,204.4,109,204.4,109z"/>
</g>
<g>
	<path d="M145.4,112c-0.1,0-0.2-0.1-0.3-0.2l-1-1.5c-0.1-0.2-0.1-0.4,0.1-0.5c0.2-0.1,0.4-0.1,0.5,0.1l1,1.5
		c0.1,0.2,0.1,0.4-0.1,0.5C145.6,112,145.5,112,145.4,112z"/>
</g>
<g>
	<path d="M147.7,115.4c-0.2,0-0.3-0.1-0.4-0.3c-0.1-0.2,0-0.4,0.2-0.5c0.1,0,3.6-1.2,3.3-5.5c0-0.2,0.1-0.4,0.3-0.4
		c0.2,0,0.4,0.1,0.4,0.3c0.3,4.9-3.7,6.3-3.8,6.3C147.8,115.4,147.8,115.4,147.7,115.4z"/>
</g>
<g>
	<path d="M153.5,115.2c-0.1,0-0.2,0-0.3-0.1c-0.1-0.2-0.1-0.4,0-0.5c0,0,2-1.8,2.5-5.9c0-0.2,0.2-0.4,0.4-0.3c0.2,0,0.4,0.2,0.3,0.4
		c-0.6,4.4-2.7,6.3-2.8,6.4C153.7,115.2,153.6,115.2,153.5,115.2z"/>
</g>
<g>
	<path d="M256.4,59.5c-0.2,0-0.4-0.2-0.4-0.4l0.8-7.1c0-0.2,0.2-0.3,0.4-0.3c0.2,0,0.4,0.2,0.3,0.4l-0.8,7.1
		C256.7,59.4,256.6,59.5,256.4,59.5z"/>
</g>
<g>
	<path d="M260.9,60.6C260.8,60.6,260.8,60.6,260.9,60.6c-0.3-0.1-0.4-0.2-0.4-0.5l1.3-6.3c0-0.2,0.2-0.3,0.4-0.3
		c0.2,0,0.3,0.2,0.3,0.4l-1.3,6.3C261.2,60.5,261,60.6,260.9,60.6z"/>
</g>
<g>
	<path class="st2" d="M90.9,57.7c-2,0-4.1-0.2-6.3-0.6c-0.2,0-0.3-0.2-0.3-0.4c0-0.2,0.2-0.3,0.4-0.3c9.5,1.7,16.5-0.9,16.7-1.8
		c0.1-0.6-2-2-4-2.9c-0.2-0.1-0.3-0.3-0.2-0.5c0.1-0.2,0.3-0.3,0.5-0.2c1.1,0.5,4.8,2.3,4.5,3.8C101.8,56.1,97.1,57.7,90.9,57.7z"/>
</g>
<g>
	<path class="st2" d="M83.3,68c0,0-0.1,0-0.1,0c-0.2-0.1-0.3-0.3-0.2-0.5l2.3-6.6c0.1-0.2,0.3-0.3,0.5-0.2c0.2,0.1,0.3,0.3,0.2,0.5
		l-2.3,6.6C83.6,67.9,83.5,68,83.3,68z"/>
</g>
<g>
	<path class="st2" d="M91.4,68c-0.2,0-0.4-0.2-0.4-0.4V61c0-0.2,0.2-0.4,0.4-0.4s0.4,0.2,0.4,0.4v6.6C91.8,67.8,91.6,68,91.4,68z"/>
</g>
<g>
	<path class="st2" d="M95.1,93.4c-0.1,0-0.2,0-0.3-0.1c-0.1-0.2-0.1-0.4,0.1-0.5c0.1-0.1,10.4-8.3,21.3-7.6c0.2,0,0.4,0.2,0.3,0.4
		c0,0.2-0.2,0.4-0.4,0.3c-10.6-0.7-20.7,7.4-20.8,7.4C95.2,93.4,95.1,93.4,95.1,93.4z"/>
</g>
<g>
	<path class="st2" d="M104.2,88.2c-0.1,0-0.2,0-0.3-0.1c-0.1-0.1-0.1-0.3-0.1-0.4c0-0.1,2.3-5.6,7.4-4.9c0.6,0.1,1.4,0.3,1.5,0.9
		c0.1,1.4-5.2,3.4-8.4,4.5C104.3,88.2,104.3,88.2,104.2,88.2z M110.4,83.5c-2.9,0-4.7,2.4-5.4,3.7c3.8-1.3,6.9-2.9,7-3.4
		c0,0-0.2-0.1-0.8-0.2C110.9,83.5,110.6,83.5,110.4,83.5z"/>
</g>
<g>
	<path class="st2" d="M56.9,54.5c-0.4,0-0.7-0.1-1.1-0.4c-0.5-0.4-0.5-0.9-0.5-1.2c0.3-2,6-4.5,6.7-4.7c0.1-0.1,0.3,0,0.4,0.1
		c0.1,0.1,0.1,0.3,0,0.4c-0.3,0.5-3,5.3-5.3,5.7C57.2,54.5,57,54.5,56.9,54.5z M61.3,49.4c-2.2,1-5,2.6-5.2,3.7c0,0.1,0,0.3,0.2,0.5
		c0.2,0.2,0.5,0.3,0.8,0.2C58.5,53.5,60.3,51.1,61.3,49.4z"/>
</g>
<g>
	<path class="st2" d="M242.2,266.9c0,2.3-0.7,4.9-2,5.5c-1.3,0.6-12.2,2-21.7,1.1c-9.1-0.9-11-1.7-11.6-2.7c-0.3-0.5,0.4-3,1.2-5.3
		c3.2,0.8,10,2.3,18.7,2.1c8.2-0.2,13-1.3,15.3-2.1C242.2,266,242.2,266.5,242.2,266.9z"/>
</g>
<g>
	<path class="st2" d="M301.7,266c-0.5,1.9-1.5,4.5-2.3,5.3c-0.8,0.8-8.6,0.5-17.2,0.8c-7.7,0.3-33-0.5-33.7-1.5
		c-0.5-0.7-0.8-5-0.9-6.1c0,0,18.9,2,36.6,1.6C294.4,265.9,299.4,265.9,301.7,266z"/>
</g>
<g>
	<path class="st2" d="M231.6,250c-0.1,0-0.2,0-0.2-0.1c-3.8-2.9-10.5-0.4-10.5-0.4c-0.2,0.1-0.4,0-0.5-0.2c-0.1-0.2,0-0.4,0.2-0.5
		c0.3-0.1,7.1-2.7,11.3,0.5c0.2,0.1,0.2,0.4,0.1,0.5C231.8,250,231.7,250,231.6,250z"/>
</g>
<g>
	<path class="st2" d="M231.6,254.2c-0.1,0-0.1,0-0.2-0.1c-4.6-3.2-10.5-0.8-10.5-0.8c-0.2,0.1-0.4,0-0.5-0.2c-0.1-0.2,0-0.4,0.2-0.5
		c0.3-0.1,6.3-2.6,11.2,0.9c0.2,0.1,0.2,0.4,0.1,0.5C231.8,254.1,231.7,254.2,231.6,254.2z"/>
</g>
<g>
	<path class="st2" d="M275.3,259.6c0,0-0.1,0-0.1,0c-0.2-0.1-0.3-0.3-0.2-0.5c0-0.1,1.2-3.5,7.6-4.7c0.2,0,0.4,0.1,0.4,0.3
		c0,0.2-0.1,0.4-0.3,0.4c-5.9,1.1-7,4.2-7,4.2C275.6,259.5,275.5,259.6,275.3,259.6z"/>
</g>
<g>
	<path class="st2" d="M274.6,252.8c-0.2,0-0.3-0.1-0.4-0.3c0-0.2,0.1-0.4,0.3-0.4l4.4-0.9c0.2,0,0.4,0.1,0.4,0.3
		c0,0.2-0.1,0.4-0.3,0.4L274.6,252.8C274.7,252.8,274.7,252.8,274.6,252.8z"/>
</g>
<g>
	<path class="st2" d="M271.7,249.3c-0.2,0-0.3-0.1-0.4-0.3c0-0.2,0.1-0.4,0.3-0.4l3.9-0.5c0.2,0,0.4,0.1,0.4,0.3
		c0,0.2-0.1,0.4-0.3,0.4L271.7,249.3C271.7,249.3,271.7,249.3,271.7,249.3z"/>
</g>
<g>
	<path class="st2" d="M236.9,259.6c0,0-0.1,0-0.1,0c-13.3-5.4-22.7-0.1-22.8,0c-0.2,0.1-0.4,0-0.5-0.1c-0.1-0.2,0-0.4,0.1-0.5
		c0.1-0.1,9.8-5.6,23.5,0c0.2,0.1,0.3,0.3,0.2,0.5C237.2,259.5,237,259.6,236.9,259.6z"/>
</g>
<g>
	<path class="st2" d="M137.8,253.3c-0.1,0-0.2-0.1-0.3-0.1l-4.5-5.9c-0.1-0.2-0.1-0.4,0.1-0.5c0.2-0.1,0.4-0.1,0.5,0.1l4.5,5.9
		c0.1,0.2,0.1,0.4-0.1,0.5C137.9,253.3,137.8,253.3,137.8,253.3z"/>
</g>
<g>
	<path class="st2" d="M182,252.3c0,0-0.1,0-0.1,0l-7-2.8c-0.2-0.1-0.3-0.3-0.2-0.5c0.1-0.2,0.3-0.3,0.5-0.2l7,2.8
		c0.2,0.1,0.3,0.3,0.2,0.5C182.3,252.2,182.2,252.3,182,252.3z"/>
</g>
<g>
	<path class="st1" d="M76.2,246.7c-0.4,0-0.8-0.1-1.2-0.2c-2.4-0.9-3.9-4.3-4-4.4c-0.1-0.2,0-0.4,0.2-0.5c0.2-0.1,0.4,0,0.5,0.2
		c0,0,1.4,3.2,3.5,4c0.7,0.3,1.4,0.2,2.1-0.1c0.5-0.2,0.8-0.5,0.8-0.8c0-1.1-2.7-2.8-4.4-3.6c-0.2-0.1-0.3-0.3-0.2-0.5
		c0.1-0.2,0.3-0.3,0.5-0.2c2.2,0.8,8.3,2.4,9.9,0.6c0.1-0.1,0.3-0.3,0.2-0.5c-0.3-0.7-3.9-1-7-0.9c-0.2,0-0.4-0.2-0.4-0.4
		c0-0.2,0.2-0.4,0.4-0.4c1.6-0.1,7-0.1,7.7,1.3c0.1,0.3,0.2,0.7-0.4,1.3c-1.5,1.6-5.2,1-7.8,0.4c1.2,0.8,2.2,1.8,2.2,2.8
		c0,0.6-0.4,1.1-1.2,1.5C77.2,246.6,76.7,246.7,76.2,246.7z"/>
</g>
<g>
	<path class="st1" d="M32.9,226c-2,0-4.5-2.4-6.1-4.3c0.5,1.3,0.8,2.8,0.2,3.6c-0.4,0.5-1,0.7-1.9,0.5c-0.9-0.2-1.7-0.7-2.2-1.4
		c-1.4-2.1-0.7-5.7-0.6-5.9c0-0.2,0.2-0.3,0.4-0.3c0.2,0,0.3,0.2,0.3,0.4c0,0-0.7,3.5,0.5,5.3c0.4,0.6,1,1,1.7,1.1
		c0.6,0.1,0.9,0,1.1-0.2c0.6-0.9-0.6-3.9-1.5-5.5c-0.1-0.2,0-0.4,0.1-0.5c0.2-0.1,0.4-0.1,0.5,0.1c1.3,1.9,5.3,6.7,7.7,6.3
		c0.1,0,0.4-0.1,0.5-0.2c0.2-0.8-2.5-3.1-5.1-4.8c-0.2-0.1-0.2-0.3-0.1-0.5c0.1-0.2,0.3-0.2,0.5-0.1c1.4,0.9,5.8,4,5.4,5.6
		c-0.1,0.3-0.3,0.7-1.1,0.8C33.2,225.9,33,226,32.9,226z"/>
</g>
<g>
	<path d="M85.9,218.9c-0.2,0-0.4-0.2-0.4-0.4c0-0.2,0.1-0.4,0.4-0.4l28.6-1.4c0.2,0,0.4,0.1,0.4,0.4c0,0.2-0.1,0.4-0.4,0.4
		L85.9,218.9C86,218.9,86,218.9,85.9,218.9z"/>
</g>
<g>
	<path d="M98.4,107.3c-0.2,0-0.4-0.2-0.4-0.4l0.5-7.4c0-0.2,0.2-0.4,0.4-0.3c0.2,0,0.4,0.2,0.3,0.4l-0.5,7.4
		C98.8,107.1,98.6,107.3,98.4,107.3z"/>
</g>
<g>
	<path d="M103.7,109C103.7,109,103.7,109,103.7,109c-0.3,0-0.4-0.2-0.4-0.4l1.4-7.8c0-0.2,0.2-0.3,0.4-0.3c0.2,0,0.3,0.2,0.3,0.4
		l-1.4,7.8C104.1,108.9,103.9,109,103.7,109z"/>
</g>
<g>
	<path class="st4" d="M321.3,92.7c-0.7,0.1-1.3,0.2-2,0.4c-3.4,0.9-14.9,4.1-16.2,5.4c-1.6,1.5-4.1,10.6-3.4,13.9
		c0.7,3.3,2.8,3.4,2.8,3.4s0.8,1.7,2.5,1.8c1.7,0.2,3.2-0.8,3.2-0.8s2.6,1.4,4.5,0.9s3.4-3.9,2.9-4.9s-2.5,0.3-2.5,0.3l0.8-3
		c0,0,4.7,0.5,7.2-1s2.7-4,2.7-4h3.8L327,91.8L321.3,92.7z"/>
</g>
<g>
	<path d="M302.5,116.2c-0.2,0-0.3-0.1-0.4-0.3c-0.3-1.3-0.5-6.5,0.9-10c0.1-0.2,0.3-0.3,0.5-0.2c0.2,0.1,0.3,0.3,0.2,0.5
		c-1.3,3.4-1.1,8.3-0.8,9.6C302.9,115.9,302.8,116.1,302.5,116.2C302.5,116.2,302.5,116.2,302.5,116.2z"/>
</g>
<g>
	<path d="M307.5,117c-0.2,0-0.3-0.1-0.4-0.3c0-0.2-1.2-4,0.7-10.2c0.1-0.2,0.3-0.3,0.5-0.3c0.2,0.1,0.3,0.3,0.3,0.5
		c-1.8,6-0.7,9.7-0.7,9.8c0.1,0.2-0.1,0.4-0.3,0.5C307.6,117,307.5,117,307.5,117z"/>
</g>
<g>
	<path d="M311.5,114.9c-0.1,0-0.1,0-0.2-0.1c-0.2-0.1-0.2-0.3-0.1-0.5l2.2-3.5c0.1-0.2,0.3-0.2,0.5-0.1c0.2,0.1,0.2,0.3,0.1,0.5
		l-2.2,3.5C311.8,114.8,311.6,114.9,311.5,114.9z"/>
</g>
<g>
	<path d="M313.7,111.4c0,0-0.1,0-0.1,0l-2-0.7c-0.2-0.1-0.3-0.3-0.2-0.5c0.1-0.2,0.3-0.3,0.5-0.2l2,0.7c0.2,0.1,0.3,0.3,0.2,0.5
		C314,111.3,313.8,111.4,313.7,111.4z"/>
</g>
<g>
	<path class="st5" d="M337.5,52.6c0,0,33.2,11.3,32.5,37.7c-0.7,26.3-45.5,22-45.5,22V88L337.5,52.6z"/>
</g>
<g>
	<path class="st2" d="M324.5,88.4c-0.2,0-0.4-0.1-0.4-0.3c0-0.2,0.1-0.4,0.3-0.4c0.1,0,9-0.8,16-1.4c0.9-0.7,4-3.1,7.5-3.8
		c1.5-0.3,2.7-0.1,3.2,0.6c0.4,0.4,0.4,1,0.2,1.6c-0.4,1-1.7,1.7-3.3,1.8c-1.3,0.1-4.1,0.3-7.3,0.6c0,0-0.1,0.1-0.1,0.1
		c-0.1,0.1-0.4,0.1-0.5,0C333.3,87.6,324.7,88.3,324.5,88.4C324.5,88.4,324.5,88.4,324.5,88.4z M349.3,83c-0.3,0-0.7,0-1.1,0.1
		c-2.6,0.6-4.9,2-6.3,3c2.7-0.2,5-0.4,6.2-0.5c1.6-0.1,2.5-0.8,2.7-1.3c0.1-0.3,0.1-0.6-0.1-0.8C350.4,83.2,349.9,83,349.3,83z"/>
</g>
<g>
	<path class="st2" d="M338.5,112.7h-14c-0.2,0-0.4-0.2-0.4-0.4c0-0.2,0.2-0.4,0.4-0.4h14c0.2,0,0.4,0.2,0.4,0.4
		C338.9,112.5,338.7,112.7,338.5,112.7z"/>
</g>
<g>
	<path d="M206.9,137.6c-9.4,0-17.4,5.5-20.8,13.2c0-0.3-0.1-0.5-0.1-0.7c-0.7-7.8-5.8-12.4-13.5-12.1c-7.1,0.2-12,5.5-12,13.1
		c0,5.3,0,10.6,0,15.9c0,3-1.3,4.5-3.5,4.5c-2.2,0-3.3-1.5-3.3-4.4c0-5.3,0-10.6,0-15.9c0-7.9-5.2-13.1-12.8-13.1
		c-7.7,0-12.8,5.1-12.8,13c0,8.6,0,27.4,0,28.2h9.4c0-1.4,0-2.7,0-3.9c0-8.4,0-16.7,0-25.1c0-2.4,1.3-3.9,3.3-3.9
		c1.9,0,3.4,1.5,3.5,3.8c0,0.7,0,1.4,0,2.1c0,5.3-0.1,10.6,0,15.9c0.1,5.4,3.4,9.6,8.6,11.2c8.8,2.7,16.8-3.1,16.9-12.3
		c0.1-5.6,0-11.2,0-16.7c0-2.5,1.5-4.1,3.5-4c2.4,0.2,3.2,1.8,3.3,3.9c0,0.6,0,1.2,0,1.8c0,8.1,0,26.1,0,27l9.5,0v-12.3
		c0.1,0.2,0.2,0.4,0.3,0.5c3.5,7.4,11.3,12.6,20.5,12.6c12.4,0,22.4-9.5,22.4-21.2C229.3,147,219.3,137.6,206.9,137.6z M206.9,171.3
		c-6.9,0-12.5-5.6-12.5-12.6c0-6.9,5.6-12.6,12.5-12.6s12.5,5.6,12.5,12.6C219.4,165.7,213.8,171.3,206.9,171.3z"/>
	<g>
		<circle class="st8" cx="234.5" cy="175.2" r="3.6"/>
		<circle class="st8" cx="234.5" cy="163.7" r="3.6"/>
	</g>
	<g>
		<path class="st8" d="M261.7,146.3c2.9,0,5.1-2.2,5.1-5.1c0-2.9-2.4-5.4-5.2-5.4c-2.8,0-5.3,2.7-5.2,5.5
			C256.5,144.1,258.9,146.3,261.7,146.3z"/>
		<path d="M251.5,149.5c-4.1-0.1-7.6,0.7-9.9,5.1c-0.5,1.1-0.5,1.9-0.5,2.6c0,5,0,19.7,0,21.6c3.8,0,4.4,0,9,0c0-5.4,0-10.9,0-16.4
			c0-5.9,0.1-6.5,6-6.1v-6.8C254.5,149.6,253,149.6,251.5,149.5z"/>
		<path d="M257.2,149.6c0,0,0,22.2,0,29.5c3.1,0,5.9,0,8.9,0c0-8.8,0-17.4,0-26c0-1.1,0-2.2,0-3.6
			C262.7,149.6,260.4,149.6,257.2,149.6z"/>
	</g>
</g>
</svg>
