<svg width="11" height="13" viewBox="0 0 11 13" fill="none" xmlns="http://www.w3.org/2000/svg">
<path d="M9.42857 0H6.28571V2.63835C7.4103 2.74071 8.48842 3.06604 9.42857 3.5867V0ZM4.71429 0H1.57143V3.5867C2.51158 3.06604 3.5897 2.74071 4.71429 2.63835V0ZM5.5 13C6.95869 13 8.35764 12.5206 9.38909 11.6673C10.4205 10.814 11 9.65673 11 8.45C11 7.24326 10.4205 6.08595 9.38909 5.23266C8.35764 4.37937 6.95869 3.9 5.5 3.9C4.04131 3.9 2.64236 4.37937 1.61091 5.23266C0.579463 6.08595 0 7.24326 0 8.45C0 9.65673 0.579463 10.814 1.61091 11.6673C2.64236 12.5206 4.04131 13 5.5 13ZM4.5375 7.46265L5.5 5.85L6.4625 7.46265L8.61379 7.7207L7.05729 8.9765L7.425 10.7491L5.5 9.9125L3.57579 10.7491L3.9435 8.9765L2.387 7.7207L4.5375 7.46265Z" fill="#C75555"/>
</svg>
