<?xml version="1.0" encoding="utf-8"?>
<!-- Generator: Adobe Illustrator 24.0.2, SVG Export Plug-In . SVG Version: 6.00 Build 0)  -->
<svg version="1.1" id="Layer_1" xmlns="http://www.w3.org/2000/svg" xmlns:xlink="http://www.w3.org/1999/xlink" x="0px" y="0px"
	 viewBox="0 0 265.39 84.36" style="enable-background:new 0 0 265.39 84.36;" xml:space="preserve">
<style type="text/css">
	.st0{fill:#0762E5;}
</style>
<path d="M150.81,3.33c-17.94,0-33.3,10.43-39.68,25.23c-0.09-0.49-0.16-0.9-0.19-1.31C109.63,12.41,99.79,3.61,85.06,4.12
	C71.42,4.58,62.14,14.63,62.06,29.09c-0.05,10.16,0.02,20.33-0.03,30.49c-0.03,5.7-2.43,8.66-6.77,8.57
	c-4.13-0.09-6.23-2.86-6.25-8.48c-0.04-10.16,0.03-20.33-0.02-30.49C48.91,14.12,39.1,4.11,24.52,4.09
	C9.8,4.07,0.1,13.89,0.03,29.04c-0.07,16.5,0,52.33,0,53.84H18c0-2.77,0-5.08,0-7.38c0-16-0.04-31.99,0.02-47.99
	c0.02-4.65,2.49-7.41,6.26-7.48c3.7-0.07,6.42,2.81,6.72,7.19c0.09,1.33,0.02,2.67,0.03,4c0.02,10.16-0.11,20.33,0.09,30.49
	c0.2,10.36,6.51,18.36,16.46,21.39c16.9,5.13,32.13-5.87,32.35-23.48c0.13-10.66-0.02-21.33,0.06-31.99
	c0.03-4.72,2.81-7.89,6.69-7.56c4.5,0.37,6.19,3.38,6.29,7.55c0.03,1.17,0.01,2.33,0.01,3.5c0,15.5,0.01,49.98,0.01,51.53
	l18.07,0.02V59.17c0.19,0.38,0.37,0.71,0.55,1.01c6.64,14.24,21.69,24.18,39.2,24.18c23.66,0,42.84-18.14,42.84-40.51
	C193.65,21.47,174.47,3.33,150.81,3.33z M150.81,67.88c-13.2,0-23.9-10.76-23.9-24.03c0-13.27,10.7-24.03,23.9-24.03
	c13.2,0,23.9,10.76,23.9,24.03C174.72,57.12,164.01,67.88,150.81,67.88z"/>
<g>
	<circle class="st0" cx="203.56" cy="75.25" r="6.97"/>
	<circle class="st0" cx="203.56" cy="53.31" r="6.97"/>
</g>
<g>
	<path class="st0" d="M255.6,19.99c5.49-0.05,9.74-4.29,9.79-9.76c0.05-5.5-4.65-10.3-10.01-10.23c-5.34,0.07-10.06,5.07-9.87,10.45
		C245.68,15.78,250.2,20.04,255.6,19.99z"/>
	<path d="M236.02,26.23c-7.76-0.16-14.62,1.3-19.02,9.67c-1.01,2.15-0.93,3.6-0.94,5c0,9.49,0.03,37.57,0,41.32
		c7.17-0.04,8.49,0,17.23,0c0-10.38,0-20.85,0-31.33c0-11.27,0.1-12.37,11.41-11.67V26.31C241.8,26.3,238.9,26.28,236.02,26.23z"/>
	<path d="M246.94,26.31c0,0,0,42.41,0,56.48c6,0,11.26,0,17.02,0c0-16.73,0-33.18,0-49.64c0-2.12,0-4.25,0-6.89
		C257.55,26.27,253.03,26.33,246.94,26.31z"/>
</g>
</svg>
