<svg id="Layer_1" data-name="Layer 1" xmlns="http://www.w3.org/2000/svg" viewBox="0 0 265.4 84.4"><defs><style>.cls-1{fill:#fff;}</style></defs><title>mori_logo_wh</title><path class="cls-1" d="M150.8,3.3c-17.9,0-33.3,10.5-39.7,25.3-.1-.5-.1-.9-.2-1.3C109.6,12.4,99.8,3.6,85.1,4.1s-23,10.5-23,25c-.1,10.2,0,20.3-.1,30.5,0,5.7-2.4,8.6-6.7,8.6S49,65.3,49,59.7V29.2C48.9,14.1,39.1,4.1,24.5,4.1S.1,13.9,0,29V82.9H18V27.5c0-4.6,2.5-7.4,6.3-7.5s6.4,2.8,6.7,7.2c.1,1.4,0,2.7,0,4,.1,10.2-.1,20.4.1,30.5s6.5,18.4,16.5,21.4c16.9,5.1,32.1-5.9,32.3-23.5.2-10.6,0-21.3.1-32,0-4.7,2.8-7.9,6.7-7.5s6.2,3.4,6.3,7.5V82.7h18.1V59.2l.5,1c6.7,14.2,21.7,24.2,39.2,24.2,23.7,0,42.9-18.2,42.9-40.5S174.5,3.3,150.8,3.3Zm0,64.6a24.1,24.1,0,1,1,23.9-24A24,24,0,0,1,150.8,67.9Z"/><circle class="cls-1" cx="203.6" cy="75.3" r="7"/><circle class="cls-1" cx="203.6" cy="53.3" r="7"/><path class="cls-1" d="M255.6,20a9.8,9.8,0,0,0,9.8-9.8c0-5.5-4.7-10.3-10-10.2a10.4,10.4,0,0,0-9.9,10.5A10,10,0,0,0,255.6,20Z"/><path class="cls-1" d="M236,26.2c-7.7-.1-14.6,1.3-19,9.7a10.2,10.2,0,0,0-.9,5V82.2h17.2V50.9c0-11.3.1-12.4,11.4-11.7V26.3Z"/><path class="cls-1" d="M246.9,26.3V82.8H264V26.3Z"/></svg>