<?xml version="1.0" encoding="utf-8"?>
<!-- Generator: Adobe Illustrator 24.0.2, SVG Export Plug-In . SVG Version: 6.00 Build 0)  -->
<svg version="1.1" id="Layer_1" xmlns="http://www.w3.org/2000/svg" xmlns:xlink="http://www.w3.org/1999/xlink" x="0px" y="0px"
	 viewBox="0 0 356.6 219.8" style="enable-background:new 0 0 356.6 219.8;" xml:space="preserve">
<style type="text/css">
	.st0{fill:#F48462;}
	.st1{fill:#40507F;}
	.st2{fill:#F7B369;}
	.st3{fill:#A37B90;}
	.st4{fill:#FFFFFF;}
	.st5{fill:#FFB655;}
	.st6{fill:#FFDD92;}
	.st7{fill:#5C69A5;}
	.st8{fill:#92B4EA;}
	.st9{fill:#D2F2FA;}
</style>
<g>
	<g>
		<path class="st0" d="M177,64.8c0,0-0.2,9,2.7,9.3c2.9,0.3,6.3,0,6.3,0s3.9-6.1,2.6-8.6C184.6,57.8,177,64.8,177,64.8z"/>
	</g>
	<g>
		<path d="M181.6,70.2C181.5,70.2,181.5,70.2,181.6,70.2c-0.2,0-0.2-0.2-0.2-0.3c0.7-2,3-2.8,3.1-2.9c0.1,0,0.2,0,0.3,0.1
			c0,0.1,0,0.2-0.1,0.3c0,0-2.2,0.8-2.9,2.6C181.7,70.2,181.6,70.2,181.6,70.2z"/>
	</g>
	<g>
		<path d="M166.3,79.6c0,0,3.1-8.1,8.4-3.6c5.2,4.6-3.8,10.1-6.5,8.7C165.4,83.3,166.3,79.6,166.3,79.6z"/>
	</g>
	<g>
		<g>
			<path class="st0" d="M139.7,127.4c0,0-5,4.2-8.9,5.6c-3.9,1.4-5.5,1-5.8,0.5c-0.3-0.5,1.9-2,1.9-2s-3.7,1.2-4.3,0
				c-0.6-1.2,2.5-2.7,2.5-2.7s-2.8,0.3-2.7-0.9c0.1-1.2,5-2.9,5-2.9s-3.7-0.2-3.6-1.2c0.1-0.9,5.8-2.9,7.6-2.8c1.8,0.1,4.3,1,4.3,1
				L139.7,127.4z"/>
		</g>
	</g>
	<g>
		<path d="M132.1,126.3c-2.9,0-4.1-1.4-4.2-1.5c-0.1-0.1-0.1-0.2,0-0.3c0.1-0.1,0.2-0.1,0.3,0c0,0,1.8,2.1,6.7,0.9
			c0.1,0,0.2,0,0.2,0.1c0,0.1,0,0.2-0.1,0.2C133.9,126.1,132.9,126.3,132.1,126.3z"/>
	</g>
	<g>
		<path class="st1" d="M131.9,120.9c0,0,7.2-4.9,10.8-10c5.4-7.7,10.4-12.6,10.4-12.6l11.7,14.3l-12.6,13.3l-12.7,6L131.9,120.9z"/>
	</g>
	<g>
		<path d="M158.2,77.5c0,0,3.3-1.4,6.7,0c3.4,1.4,3.9,4.9,3.9,4.9s1.5,1.5,0,3.8c-1.5,2.2-4.4,3.4-4.4,3.4L158.2,77.5z"/>
	</g>
	<g>
		<polygon class="st0" points="167.2,198.3 166.5,204.8 153,204.8 153,197.2 		"/>
	</g>
	<g>
		<polygon class="st0" points="207.6,153 214.3,152.1 217.4,165 209.7,166.7 		"/>
	</g>
	<g>
		<path class="st2" d="M209.4,151.2c0,0-16.1,1.8-22.4-6.2c-7.5-9.5-13.1-21.5-13.1-21.5l-24.8,1.3c0,0-2.5,26.1-2.1,43.6
			s2.1,31.9,2.7,32.6c0.6,0.6,19.8,0.2,20.9,0c1.1-0.2-0.7-20.1-0.9-25.9s0-14.4,0-14.4s5.9,8.5,16.8,10.4c10.9,1.9,24.9,0,25.8-0.6
			C213.2,169.9,209.4,151.2,209.4,151.2z"/>
	</g>
	<g>
		<path class="st2" d="M146.7,210C146.7,210,146.6,210,146.7,210c-0.3-0.1-6.5-2.1-7.1-4.1c-0.1-0.4-0.1-0.7,0.1-1
			c0.2-0.3,0.6-0.5,1-0.6c1.3-0.1,3.3,1.6,4.5,2.8c-0.8-1.5-1.9-3.8-1.5-5c0.1-0.4,0.4-0.6,0.7-0.7c0.4-0.1,0.7-0.1,1,0.1
			c1.7,0.9,2.7,5.8,2.7,6c0,0.1,0,0.2-0.2,0.2c-0.1,0-0.2,0-0.2-0.2c0,0-1-4.9-2.5-5.8c-0.2-0.1-0.5-0.1-0.7-0.1
			c-0.2,0.1-0.4,0.3-0.5,0.5c-0.5,1.7,2.3,6.1,2.3,6.1c0.1,0.1,0,0.2,0,0.3c-0.1,0.1-0.2,0.1-0.3,0c0,0-3.4-3.8-5.3-3.8
			c0,0,0,0-0.1,0c-0.3,0-0.5,0.1-0.7,0.4c-0.1,0.2-0.2,0.4-0.1,0.7c0.5,1.5,5.1,3.3,6.8,3.8c0.1,0,0.2,0.1,0.1,0.3
			C146.8,209.9,146.8,210,146.7,210z"/>
	</g>
	<g>
		<path class="st3" d="M133.4,217.6c0.4,0.2,13.6,0.5,22.7,0.6c0.6-0.4,0.7-3.6,2.4-3.6c1.6,0,2,1.1,2.6,2.5
			c0.3,0.7,0.9,1.2,1.7,1.2c1.9-0.1,4.1-0.4,4.2-0.6c0.2-0.3,0.4-1.5,0.5-3c0.3-3.5,0.3-8.7,0.3-8.7s0.2-1.8,0.2-2.6
			c0-0.8-15.4-0.5-15.4-0.5l-10,7.7c0,0-2.7-0.5-5.8,0c-1.6,0.2-2.6,2.1-3.1,3.9C133.1,216,133.1,217.5,133.4,217.6z"/>
	</g>
	<g>
		<path class="st2" d="M221.6,177.9c-0.1,0-0.3,0-0.4-0.1c-0.4-0.1-0.7-0.4-0.8-0.8c-0.4-1.2,0.6-3.5,1.4-5
			c-1.2,1.2-3.2,2.8-4.5,2.8c-0.4,0-0.7-0.2-1-0.4c-0.2-0.3-0.3-0.6-0.2-1c0.4-1.9,5-4.1,5.2-4.2c0.1,0,0.2,0,0.3,0.1
			c0,0.1,0,0.2-0.1,0.3c-1.3,0.6-4.7,2.6-5,4c-0.1,0.2,0,0.5,0.1,0.6c0.2,0.2,0.4,0.3,0.6,0.3c1.9,0,5.4-3.8,5.4-3.9
			c0.1-0.1,0.2-0.1,0.3,0c0.1,0.1,0.1,0.2,0,0.3c0,0-2.9,4.4-2.3,6.1c0.1,0.3,0.3,0.5,0.6,0.6c0.3,0.1,0.5,0,0.7-0.1
			c1.6-1.1,1.8-7.4,1.8-7.4c0-0.1,0.1-0.2,0.2-0.2c0.1,0,0.2,0.1,0.2,0.2c0,0.3-0.2,6.5-2,7.7C222,177.8,221.8,177.9,221.6,177.9z"
			/>
	</g>
	<g>
		<path class="st3" d="M235.5,180.1c0-0.4-3.3-12.8-5.8-21.4c-0.6-0.4-3.8,0.3-4.3-1.2c-0.5-1.5,0.5-2.2,1.7-3.1
			c0.6-0.4,0.9-1.2,0.7-1.9c-0.6-1.8-1.5-3.7-1.7-3.8c-0.4-0.1-1.6,0.1-3.1,0.4c-3.5,0.7-8.7,2.2-8.7,2.2s-1.8,0.3-2.6,0.6
			c-0.8,0.3,3.8,14.6,3.8,14.6l10.4,7.2c0,0,0.3,2.7,1.6,5.4c0.7,1.4,2.8,1.8,4.8,1.8C234,180.8,235.4,180.5,235.5,180.1z"/>
	</g>
	<g>
		<path class="st4" d="M169.7,160.9c0,0-0.1,0-0.1,0c-0.2-0.1-3.7-2.6-6.6-10.5c-1.8-4.8-3.2-10.7-3.5-11.7l-7.1-0.9
			c-0.1,0-0.2-0.1-0.2-0.2c0-0.1,0.1-0.2,0.2-0.2l7.2,0.9c0.1,0,0.2,0.1,0.2,0.2c0,0.1,1.6,6.6,3.5,11.8c2.9,7.7,6.5,10.3,6.5,10.3
			c0.1,0.1,0.1,0.2,0,0.3C169.9,160.9,169.8,160.9,169.7,160.9z"/>
	</g>
	<g>
		<path class="st4" d="M177.3,134.1c-0.1,0-4.7-0.2-5.5-4.7c0-0.1,0.1-0.2,0.2-0.2c0.1,0,0.2,0.1,0.2,0.2c0.7,4.2,4.9,4.4,5.1,4.4
			c0.1,0,0.2,0.1,0.2,0.2C177.5,134,177.4,134.1,177.3,134.1z"/>
	</g>
	<g>
		<g>
			<g>
				<g>
					<path class="st0" d="M164.4,91.3l-0.1,5.3c0,0-1,1.5-4.2,1.7c-2.4,0.1-3.1-1.1-3.1-1.1l0.7-4.7l5.8-1.1L164.4,91.3z"/>
				</g>
			</g>
		</g>
	</g>
	<g>
		<g>
			<g>
				<g>
					<path d="M164.4,91c0,0.1-0.1,0.3-0.2,0.5c-1.3,2.6-5.6,3.6-7,3.7l0.4-2.6L164.4,91z"/>
				</g>
			</g>
		</g>
	</g>
	<g>
		<g>
			<g>
				<g>
					<path class="st0" d="M156.7,80.4c0,0-2.8,7.3-2,10.4c1,3.8,4.5,3.2,6.6,2.5c2.1-0.7,3.1-1.9,3.1-1.9s1.9,0.7,3.3-1.1
						c1.3-1.8,0.5-3.8-0.6-4.3c-1.1-0.5-2.4,0.3-2.4,0.3l1.1-1.9C165.7,84.3,161.4,74.4,156.7,80.4z"/>
				</g>
			</g>
		</g>
	</g>
	<g>
		<g>
			<g>
				<g>
					<path d="M164.7,86.2c0,0-2.9,0.6-5-2.6c-2-3.2-1.8-4.5-1.8-4.5l-2,3.3c0,0-0.5-2.3,0.5-3.7c0.9-1.5,1.9-1.1,1.9-1.1l6.5,1.6
						l1.7,5L164.7,86.2z"/>
				</g>
			</g>
		</g>
	</g>
	<g>
		<path d="M156.9,88.8c-0.1,0-0.2-0.1-0.2-0.1c-0.4-1.4,0.6-2.9,0.6-2.9c0.1-0.1,0.2-0.1,0.3,0c0.1,0.1,0.1,0.2,0,0.3
			c0,0-1,1.3-0.6,2.6C157.2,88.7,157.1,88.8,156.9,88.8C157,88.8,157,88.8,156.9,88.8z"/>
	</g>
	<g>
		<path d="M164.9,89.3c-0.1,0-0.1,0-0.1-0.1c-0.1-0.1-0.1-0.2,0-0.3l1.9-1.9c0.1-0.1,0.2-0.1,0.3,0c0.1,0.1,0.1,0.2,0,0.3l-1.9,1.9
			C165,89.3,165,89.3,164.9,89.3z"/>
	</g>
	<g>
		<path d="M166.9,88.8c0,0-1.3-0.2-1.3-0.2c-0.1,0-0.2-0.1-0.2-0.2c0-0.1,0.1-0.2,0.2-0.2l1.3,0.2c0.1,0,0.2,0.1,0.2,0.2
			C167.1,88.7,167,88.8,166.9,88.8z"/>
	</g>
	<g>
		<path d="M155.6,86.1C155.6,86.1,155.6,86.1,155.6,86.1c-0.2,0-0.2-0.2-0.2-0.3l0.4-1.1l-0.3-0.7c0-0.1,0-0.2,0.1-0.3
			c0.1-0.1,0.2,0,0.3,0.1l0.4,0.8c0,0,0,0.1,0,0.2l-0.4,1.2C155.8,86,155.7,86.1,155.6,86.1z"/>
	</g>
	<g>
		<path class="st1" d="M162.9,96.1c0,0,10.4-18.1,12.1-27.6l14.1,4.2c-2.6,20.7-13,32.9-13,32.9s-0.2,19.2-0.5,19.5
			c-0.3,0.4-7.7,2-15.9,1.5c-8.3-0.4-10.1-1.6-10.5-1.9c-0.5-0.3,3.9-26.6,3.9-26.6S156.4,96.2,162.9,96.1z"/>
	</g>
	<g>
		<path d="M159.1,86.4C159.1,86.4,159,86.4,159.1,86.4c-0.2,0-0.2-0.2-0.2-0.3l0.4-1.1l-0.3-0.6c-0.1-0.1,0-0.2,0.1-0.3
			c0.1-0.1,0.2,0,0.3,0.1l0.4,0.6c0,0,0,0.1,0,0.2l-0.4,1.2C159.2,86.4,159.2,86.4,159.1,86.4z"/>
	</g>
	<g>
		<path d="M155.6,83.4c-0.1,0-0.2-0.1-0.2-0.2c0-0.1,0.1-0.2,0.2-0.2l1.2-0.2c0.1,0,0.2,0.1,0.2,0.2c0,0.1-0.1,0.2-0.2,0.2
			L155.6,83.4C155.6,83.4,155.6,83.4,155.6,83.4z"/>
	</g>
	<g>
		<path d="M160.7,84.1C160.6,84.1,160.6,84.1,160.7,84.1l-2.1-1c-0.1,0-0.1-0.2-0.1-0.3c0-0.1,0.2-0.1,0.3-0.1l2,1
			c0.1,0,0.1,0.2,0.1,0.3C160.8,84.1,160.7,84.1,160.7,84.1z"/>
	</g>
	<g>
		<path class="st3" d="M149.1,123.8c-0.1,0-0.2-0.1-0.2-0.2l1.1-12.2c0-0.1,0.1-0.2,0.2-0.2c0.1,0,0.2,0.1,0.2,0.2l-1.1,12.2
			C149.3,123.7,149.2,123.8,149.1,123.8z"/>
	</g>
	<g>
		<path class="st0" d="M162.9,96.1c0,0-4.3,3.4-5.5,0.9C156.1,94.4,162.9,96.1,162.9,96.1z"/>
	</g>
	<g>
		<path d="M158.5,90.6c-0.1,0-0.2,0-0.3,0c-0.1,0-0.2-0.1-0.1-0.2c0-0.1,0.1-0.2,0.2-0.1c0.7,0.2,1-0.5,1-0.6c0-0.1,0.2-0.1,0.3-0.1
			c0.1,0,0.1,0.2,0.1,0.3C159.5,90.1,159.1,90.6,158.5,90.6z"/>
	</g>
	<g>
		<path class="st3" d="M159.3,98.1c0,0-0.1,0-0.1,0c-0.8,0-1.4-0.4-2-1c-0.1-0.1-0.1-0.2,0-0.3c0.1-0.1,0.2-0.1,0.3,0
			c0.5,0.5,1,0.8,1.7,0.8c0,0,0.1,0,0.1,0c1.7,0,3.5-1.7,3.5-1.7c0.1-0.1,0.2-0.1,0.3,0c0.1,0.1,0.1,0.2,0,0.3
			C163,96.3,161.1,98.1,159.3,98.1z"/>
	</g>
	<g>
		<g>
			<path class="st5" d="M183.1,1l-12,21.2c-0.1,0.1-0.2,0.2-0.4,0.3l-23.9,4.9c-1.5,0.2-2.1,2.1-1,3.1l16.8,17.7
				c0.1,0.1,0.2,0.3,0.1,0.5l-4.2,24.7c-0.3,1.5,1.3,2.6,2.7,1.9l23.3-11.9c0.2-0.1,0.3-0.1,0.5,0l22.8,11.9
				c1.3,0.7,2.9-0.4,2.7-1.9l-3.9-24.6c0-0.2,0-0.3,0.1-0.5l16.9-17.8c1.1-1.1,0.5-2.9-1-3.1l-24.1-4.9c-0.2,0-0.3-0.1-0.4-0.3
				L186.4,1C185.7-0.3,183.7-0.3,183.1,1z"/>
		</g>
		<g>
			<path class="st6" d="M212.5,29c0,0-0.1,0-0.1,0l-14.3-3c-0.3-0.1-0.4-0.3-0.4-0.6c0.1-0.3,0.3-0.4,0.6-0.4l14.3,3
				c0.3,0.1,0.4,0.3,0.4,0.6C213,28.8,212.8,29,212.5,29z"/>
		</g>
	</g>
	<g>
		<path d="M131.9,130.6c-0.1,0-0.1,0-0.1-0.1l-3.9-4.3c-0.1-0.1-0.1-0.2,0-0.3c0.1-0.1,0.2-0.1,0.3,0l3.9,4.3c0.1,0.1,0.1,0.2,0,0.3
			C132,130.6,132,130.6,131.9,130.6z"/>
	</g>
	<g>
		<path class="st0" d="M176.2,60.7c1.7,0.2,4.4,5.1,4.1,6.1c-0.3,1-3.1,2.1-3.1,2.1S174.5,60.5,176.2,60.7z"/>
	</g>
</g>
<g>
	<g>
		<path class="st0" d="M11.2,84.6c0,0,5.9,14.8,14.5,19.6c7,3.9,14.8,2.3,14.8,2.3l-1.3-14l-8.9-3.8c-1.4-0.6-2.8-1.5-3.9-2.5
			l-7.4-6.6L11.2,84.6z"/>
	</g>
	<g>
		<path d="M51.5,75.9c0,0,2.2-5.9-0.5-6.7c-2.7-0.7-5.3,2.8-5.3,2.8s-5.6,1.5-7.2,5c-1.7,3.6,4.5,8.3,4.5,8.3L51.5,75.9z"/>
	</g>
	<g>
		<path class="st0" d="M90.2,92.5c0,0-2,13.5-10.9,17.7c-7.2,3.4-14.8-0.6-14.8-0.6l4.6-14.5c0,0,4.9,0.6,9-1.9
			c3.8-2.3,4.6-6.2,4.6-6.2L90.2,92.5z"/>
	</g>
	<g>
		<g>
			<polygon class="st0" points="72.1,199.9 69.2,195.6 79.4,188.6 84,192.5 77.1,200.5 			"/>
		</g>
	</g>
	<g>
		<g>
			<polygon class="st0" points="52.1,196.2 52.3,203.7 39,203.6 39.6,195.6 			"/>
		</g>
	</g>
	<g>
		<g>
			<path class="st7" d="M60.7,154.3L59,122.6l-20.7-0.1c0,0-2.5,8.2-3.2,16.1c-0.7,7.9-2.5,58.1-2.3,58.8c0.3,0.7,23.3,1.5,24.7,0.7
				C58.9,197.2,60.7,154.3,60.7,154.3z"/>
		</g>
	</g>
	<g>
		<g>
			<path class="st7" d="M62.7,122.3c0,0,24.4,63.1,24.1,64.5c-0.3,1.4-18.9,11.2-20,11.2c-1.1,0-9.3-14.3-9.3-14.3l-1-61.3
				L62.7,122.3z"/>
		</g>
	</g>
	<g>
		<path class="st0" d="M95.9,84c0,0-4.7,10.2-7.7,9.4c-3-0.8-4.5-2.9-4.5-2.9s-3.4-8.1,0.3-9C88.5,80.5,95.9,84,95.9,84z"/>
	</g>
	<g>
		<path class="st8" d="M40,131.2c-0.3,0-0.7,0-1-0.1c-0.1,0-0.2-0.1-0.1-0.2c0-0.1,0.1-0.2,0.2-0.1c3.9,0.9,6.4-4.1,6.4-4.2
			c0-0.1,0.2-0.1,0.3-0.1c0.1,0,0.1,0.2,0.1,0.3C45.8,126.8,43.6,131.2,40,131.2z"/>
	</g>
	<g>
		<path class="st8" d="M38,198.2c-0.1,0-0.2-0.1-0.2-0.2c0-0.3,0.3-25.3,1-40.1c0.7-14.8,2.4-27,2.4-27.1c0-0.1,0.1-0.2,0.2-0.2
			c0.1,0,0.2,0.1,0.2,0.2c0,0.1-1.7,12.2-2.4,27.1c-0.7,14.8-1,39.9-1,40.1C38.2,198.1,38.1,198.2,38,198.2z"/>
	</g>
	<g>
		<path class="st8" d="M58.9,186.5c-0.1,0-0.2-0.1-0.2-0.2l-2.5-51.7c0-0.1,0-0.1,0.1-0.2l5.5-3.6c0.1-0.1,0.2,0,0.3,0.1
			c0.1,0.1,0,0.2-0.1,0.3l-5.4,3.5l2.5,51.6C59.1,186.4,59.1,186.5,58.9,186.5C58.9,186.5,58.9,186.5,58.9,186.5z"/>
	</g>
	<g>
		<path class="st8" d="M70.8,195.8c-0.1,0-0.1,0-0.2-0.1l-12.4-21.1c-0.1-0.1,0-0.2,0.1-0.3c0.1-0.1,0.2,0,0.3,0.1L71,195.5
			c0.1,0.1,0,0.2-0.1,0.3C70.9,195.7,70.8,195.8,70.8,195.8z"/>
	</g>
	<g>
		<path class="st3" d="M52.6,91c0,0,5.3,0.2,7.4,4.1c2.1,3.9,3.7,27.2,3.7,27.2s-5.8,2.4-14.4,2.3c-8.5-0.1-11.4-2.1-11.4-2.1
			l-1.6-14.3c0,0,0.3-15.6,2.4-16.6C40.7,90.4,49.1,90.2,52.6,91z"/>
	</g>
	<g>
		<path class="st3" d="M73.1,95.1l-1,18c0,0-7.7,1.2-13.4-3.2c-5.7-4.4-3.2-18.4-3.2-18.4S68.9,95.2,73.1,95.1z"/>
	</g>
	<g>
		<g>
			<path class="st0" d="M44,85.9l0.5,5.6c0,0,1.2,1.5,4.4,1.4c2.4,0,3.2-0.7,3.2-0.7l-0.6-2.8L51,86.7L45,86L44,85.9z"/>
		</g>
	</g>
	<g>
		<g>
			<path d="M45,86c0,0.2,0.1,0.3,0.2,0.5c1.5,2.7,5,2.9,6.4,2.9L51,86.7L45,86z"/>
		</g>
	</g>
	<g>
		<g>
			<path class="st0" d="M50.8,74.4c0,0,3.4,6.7,2.7,10.7c-0.7,4-4.1,3.7-6.2,3.1c-2.1-0.6-3.1-1.8-3.1-1.8s-1.8,0.8-3.2-0.9
				c-1.4-1.7-0.8-3.9,0.2-4.5c1-0.6,2.4,0.1,2.4,0.1l-1.2-1.9C42.4,79.1,45.8,68.5,50.8,74.4z"/>
		</g>
	</g>
	<g>
		<path d="M43.6,84.1c0,0-0.1,0-0.1,0L41,82.5c-0.1-0.1-0.1-0.2-0.1-0.3c0.1-0.1,0.2-0.1,0.3-0.1l2.5,1.6c0.1,0.1,0.1,0.2,0.1,0.3
			C43.8,84,43.7,84.1,43.6,84.1z"/>
	</g>
	<g>
		<path d="M41.5,84.3c-0.1,0-0.2,0-0.2-0.1c0-0.1,0-0.2,0.1-0.3l1.5-0.6c0.1,0,0.2,0,0.3,0.1c0,0.1,0,0.2-0.1,0.3L41.5,84.3
			C41.5,84.3,41.5,84.3,41.5,84.3z"/>
	</g>
	<g>
		<path d="M46.7,77.8c0,0-0.1,0-0.1,0c-0.1-0.1-0.1-0.2-0.1-0.3c0.8-1.3,2-0.8,2-0.8c0.1,0,0.1,0.2,0.1,0.3c0,0.1-0.2,0.1-0.3,0.1
			c0,0-0.9-0.4-1.5,0.6C46.8,77.7,46.7,77.8,46.7,77.8z"/>
	</g>
	<g>
		<path d="M51.8,77c0,0-0.1,0-0.1,0c-0.6-0.4-1.2,0-1.2,0c-0.1,0.1-0.2,0-0.3,0c-0.1-0.1,0-0.2,0-0.3c0.3-0.2,1-0.5,1.7,0
			c0.1,0.1,0.1,0.2,0,0.3C51.9,76.9,51.8,77,51.8,77z"/>
	</g>
	<g>
		<path d="M51.5,82.5c-0.1,0-0.2-0.1-0.2-0.2c0.4-2-1.1-2.6-1.2-2.6c-0.1,0-0.2-0.2-0.1-0.3c0-0.1,0.2-0.2,0.3-0.1
			c0,0,1.9,0.7,1.4,3.1C51.7,82.4,51.6,82.5,51.5,82.5z"/>
	</g>
	<g>
		<path d="M52,79.6c-0.1,0-0.2-0.1-0.2-0.1l-0.4-1.2c0-0.1,0-0.2,0.1-0.3c0.1,0,0.2,0,0.3,0.1l0.4,1.2C52.2,79.5,52.2,79.6,52,79.6
			C52,79.6,52,79.6,52,79.6z"/>
	</g>
	<g>
		<path d="M48.7,80c-0.1,0-0.2-0.1-0.2-0.1L48,78.7c0-0.1,0-0.2,0.1-0.3c0.1,0,0.2,0,0.3,0.1l0.4,1.2C48.9,79.9,48.8,80,48.7,80
			C48.7,80,48.7,80,48.7,80z"/>
	</g>
	<g>
		<path d="M51.5,75.9c0,0-0.7-1.1-2-0.9c-1.3,0.1-2,1.2-2,1.2s0.8,2.3-0.9,3.7c-1.7,1.4-3.1,1.2-3.1,1.2l-1.3-0.4l-1.1-1.9l3.4-4.6
			l4.6-3.2l2.7,2.1L51.5,75.9z"/>
	</g>
	<g>
		<path d="M50,84.7c-0.5,0-1.3-0.2-1.7-1c-0.1-0.1,0-0.2,0.1-0.3c0.1-0.1,0.2,0,0.3,0.1c0.5,1,1.6,0.8,1.6,0.8c0.1,0,0.2,0,0.2,0.2
			c0,0.1,0,0.2-0.2,0.2C50.2,84.7,50.1,84.7,50,84.7z"/>
	</g>
	<g>
		<path class="st4" d="M62.8,112.2c-0.1,0-0.2-0.1-0.2-0.2l-1.1-9.1c0-0.1,0.1-0.2,0.2-0.2c0.1,0,0.2,0.1,0.2,0.2L63,112
			C63,112.1,62.9,112.2,62.8,112.2C62.8,112.2,62.8,112.2,62.8,112.2z"/>
	</g>
	<g>
		<path class="st4" d="M49.1,93.1c-1.3,0-3-0.3-4.7-1.5c-0.1-0.1-0.1-0.2-0.1-0.3c0.1-0.1,0.2-0.1,0.3-0.1c4.1,2.7,7.4,0.8,7.5,0.8
			c0.1-0.1,0.2,0,0.3,0.1c0.1,0.1,0,0.2-0.1,0.3C52.3,92.4,51,93.1,49.1,93.1z"/>
	</g>
	<g>
		<g>
			<path class="st0" d="M19.2,78.9c0,0-0.8-3.7-2.8-5.4c-2-1.7-4.3-2.8-3.9-1.3c0.4,1.5,1.8,4,1.8,4l-3.6-1c0,0-2.3-1.1-4-1.5
				c-1.7-0.5-2.2,0.8-2.2,0.8s-1.7-0.5-2.4,0c-0.7,0.5-0.2,1.6-0.2,1.6s-2.4,0-1.5,1.9c0.9,1.9,5.7,5,8.1,6.1
				c2.3,1.1,7.6,1.8,7.6,1.8S20.6,87,19.2,78.9z"/>
		</g>
	</g>
	<g>
		<path d="M6.1,79.7c-0.1,0-0.1,0-0.2-0.1c-0.1-0.1,0-0.2,0.1-0.3l6.2-3.3c0.1-0.1,0.2,0,0.3,0.1c0.1,0.1,0,0.2-0.1,0.3L6.1,79.7
			C6.1,79.7,6.1,79.7,6.1,79.7z"/>
	</g>
	<g>
		<path d="M18.2,81.8C18.2,81.8,18.2,81.7,18.2,81.8c-2.1-0.5-3.4-1.4-3.9-2.6c-0.6-1.3-0.1-2.5-0.1-2.5c0-0.1,0.2-0.1,0.3-0.1
			c0.1,0,0.1,0.2,0.1,0.3c0,0-0.5,1.1,0.1,2.2c0.5,1.1,1.7,1.8,3.6,2.3c0.1,0,0.2,0.1,0.1,0.2C18.4,81.7,18.3,81.8,18.2,81.8z"/>
	</g>
	<g>
		<path class="st1" d="M72,216.6c-0.8,0.3-32.4-0.5-33.1-1.7c-0.2-0.4-0.3-1.6-0.3-3.2c-0.1-3.7,0.2-9.2,0.2-9.2s-0.1-1.9,0-2.7
			C38.8,198.9,54,200,54,200l9.5,8.6c0,0,2.7-0.4,5.7,0.3c1.6,0.3,2.5,2.4,2.9,4.3C72.4,214.9,72.3,216.4,72,216.6z"/>
	</g>
	<g>
		<path class="st2" d="M72,216.6c-0.8,0.3-32.4-0.5-33.1-1.7c-0.2-0.4-0.3-1.6-0.3-3.2c6,0.8,20.7,2.4,33.5,1.5
			C72.4,214.9,72.3,216.4,72,216.6z"/>
	</g>
	<g>
		<path class="st9" d="M61.2,206.8c0,0-5.6-0.9-5.6-0.9c-0.1,0-0.1-0.1-0.2-0.1c0-0.1,0-0.1,0-0.2l2.1-2.3c0.1-0.1,0.2-0.1,0.3,0
			c0.1,0.1,0.1,0.2,0,0.3l-1.8,2l5.2,0.8c0.1,0,0.2,0.1,0.2,0.2C61.4,206.7,61.3,206.8,61.2,206.8z"/>
	</g>
	<g>
		<path class="st1" d="M108,198.4c-0.5,0.6-28.7,15.1-29.9,14.3c-0.4-0.2-1-1.3-1.8-2.7c-1.8-3.2-4.2-8.1-4.2-8.1s-1-1.6-1.4-2.4
			c-0.3-0.8,13.5-7.1,13.5-7.1l12.4,3c0,0,2.2-1.6,5.1-2.5c1.5-0.4,3.3,0.9,4.6,2.4C107.6,196.7,108.3,198.1,108,198.4z"/>
	</g>
	<g>
		<path class="st2" d="M108,198.4c-0.5,0.6-28.7,15.1-29.9,14.3c-0.4-0.2-1-1.3-1.8-2.7c5.6-2.2,19.3-7.9,30.1-14.7
			C107.6,196.7,108.3,198.1,108,198.4z"/>
	</g>
	<g>
		<path class="st9" d="M88.4,196.8c0,0-0.1,0-0.1-0.1c-0.1,0-0.1-0.1-0.1-0.2l0.7-3c0-0.1,0.1-0.2,0.2-0.1c0.1,0,0.2,0.1,0.1,0.2
			l-0.6,2.7l5-1.8c0.1,0,0.2,0,0.3,0.1c0,0.1,0,0.2-0.1,0.3L88.4,196.8C88.5,196.8,88.5,196.8,88.4,196.8z"/>
	</g>
	<g>
		<g>
			<path class="st5" d="M91.9,18.9l12.2,21.6c0.1,0.1,0.2,0.2,0.4,0.3l24.4,5c1.5,0.2,2.2,2.1,1,3.2l-17.1,18
				c-0.1,0.1-0.2,0.3-0.1,0.5l4.3,25.1c0.3,1.5-1.3,2.7-2.7,2L90.4,82.5c-0.2-0.1-0.4-0.1-0.5,0L66.7,94.6c-1.4,0.7-3-0.4-2.7-2
				l3.9-25.1c0-0.2,0-0.4-0.1-0.5L50.5,49c-1.1-1.1-0.5-3,1-3.2l24.5-5c0.2,0,0.3-0.1,0.4-0.3l12.1-21.6
				C89.2,17.5,91.2,17.5,91.9,18.9z"/>
		</g>
		<g>
			<path class="st6" d="M61.8,47.4c-0.2,0-0.4-0.2-0.5-0.4c-0.1-0.3,0.1-0.5,0.4-0.6l14.5-3c0.3-0.1,0.5,0.1,0.6,0.4
				c0.1,0.3-0.1,0.5-0.4,0.6l-14.5,3C61.9,47.4,61.9,47.4,61.8,47.4z"/>
		</g>
	</g>
	<g>
		<path class="st3" d="M28.2,87l-3,18.5c0,0,13.7,5.8,15.9,0.7c2.2-5.1,3.1-15.6,3.1-15.6S33.7,90.2,28.2,87z"/>
	</g>
	<g>
		<path class="st0" d="M82.5,86.4c0,0-0.4-2.8,0.2-3.8c0.6-1,3.3-2.6,4.1-2c0.8,0.6-1.1,2.7-1.1,2.7s1.2,2.4,1.3,4.7
			c0.1,2.3-2.3,2.5-2.3,2.5L82.5,86.4z"/>
	</g>
	<g>
		<path d="M88.1,89.6c-0.1,0-0.2-0.1-0.2-0.2c-0.1-2.5-1.3-4.5-1.3-4.5c-0.1-0.1,0-0.2,0.1-0.3c0.1-0.1,0.2,0,0.3,0.1
			c0.1,0.1,1.3,2.1,1.4,4.7C88.4,89.5,88.3,89.6,88.1,89.6C88.2,89.6,88.2,89.6,88.1,89.6z"/>
	</g>
	<g>
		<path d="M92.7,86.2C92.7,86.2,92.7,86.2,92.7,86.2L88.1,85c-0.1,0-0.2-0.1-0.1-0.2c0-0.1,0.1-0.2,0.2-0.1l4.6,1.2
			c0.1,0,0.2,0.1,0.1,0.2C92.9,86.1,92.8,86.2,92.7,86.2z"/>
	</g>
</g>
<g>
	<g>
		<path d="M347.6,138.4c-0.1,0-0.2-0.1-0.2-0.2l-0.3-2.4c0-0.1,0.1-0.2,0.2-0.2c0.1,0,0.2,0.1,0.2,0.2l0.3,2.4
			C347.8,138.3,347.7,138.4,347.6,138.4C347.6,138.4,347.6,138.4,347.6,138.4z"/>
	</g>
	<g>
		<g>
			<path class="st0" d="M278.8,89.3c0,0,6.5,7,9.1,5.2c2.6-1.7,3.3-4.3,3.3-4.3s1.2-8.7-2.6-8.3C284,82.5,278.8,89.3,278.8,89.3z"/>
		</g>
		<g>
			<path class="st8" d="M281.2,95.2c0,0,5.9,14.6,15.9,17.7c11,3.4,16.5-1.5,16.5-1.5l3.9-16.2c0,0-11,1.1-15.8-1.4
				c-2.6-1.4-7.9-6.8-7.9-6.8L281.2,95.2z"/>
		</g>
		<g>
			<g>
				<path class="st5" d="M263.9,40.5L276.2,62c0.1,0.1,0.2,0.2,0.4,0.3l24.4,5c1.5,0.2,2.2,2.1,1,3.2l-17.1,18
					c-0.1,0.1-0.2,0.3-0.1,0.5l4.3,25.1c0.3,1.5-1.3,2.7-2.7,2l-23.8-12.1c-0.2-0.1-0.4-0.1-0.5,0l-23.3,12.1c-1.4,0.7-3-0.4-2.7-2
					l3.9-25.1c0-0.2,0-0.4-0.1-0.5l-17.2-18.1c-1.1-1.1-0.5-3,1-3.2l24.5-5c0.2,0,0.3-0.1,0.4-0.3l12.1-21.6
					C261.3,39.1,263.2,39.1,263.9,40.5z"/>
			</g>
			<g>
				<path class="st6" d="M233.9,69c-0.2,0-0.4-0.2-0.5-0.4c-0.1-0.3,0.1-0.5,0.4-0.6l14.5-3c0.3-0.1,0.5,0.1,0.6,0.4
					c0.1,0.3-0.1,0.5-0.4,0.6L234,69C234,69,233.9,69,233.9,69z"/>
			</g>
		</g>
		<g>
			<g>
				<path class="st2" d="M312.9,216.7c0,0,0.6,2.7,0.6,2.7c0.1,0.3,0.3,0.4,0.6,0.4l29.5-6.4c0.2-0.1,0.4-0.3,0.4-0.6l-0.7-3.8
					l-0.8,0.2c0,0,0.1-2.8,0-5.2c-0.1-2.4-1.6-8.2-2.3-8.3c-0.5,0-8.5,1.4-11.8,2c-0.8,0.2-1.5,0.8-1.6,1.7c-0.2,1.5-0.9,4-2.7,5.1
					c-2.8,1.7-9.2,4.8-10.2,6.9c-0.7,1.6-0.5,3.3-0.3,4.1c0,0.1,0,0.2,0,0.3c0,0.1-0.2,0.3-0.3,0.3l-0.1,0
					C313,216.3,312.9,216.5,312.9,216.7z"/>
			</g>
		</g>
		<g>
			<g>
				<path class="st2" d="M277.2,214c0,0,0.1,2.8,0.1,2.8c0,0.3,0.2,0.5,0.5,0.5l30.1-1c0.3,0,0.5-0.2,0.5-0.5l0-3.9l-0.8,0.1
					c0,0,0.6-2.7,1-5.1c0.3-2.3-0.1-8.4-0.8-8.5c-0.5-0.1-8.6-0.2-12-0.2c-0.9,0-1.6,0.5-1.9,1.4c-0.5,1.5-1.6,3.7-3.6,4.5
					c-3.1,1.2-9.9,3.1-11.3,5c-1,1.4-1,3.2-1,4c0,0.1,0,0.2-0.1,0.3c-0.1,0.1-0.2,0.2-0.4,0.2l-0.1,0
					C277.4,213.6,277.3,213.8,277.2,214z"/>
			</g>
		</g>
		<g>
			<path class="st3" d="M307.5,129.2c0,0-15,22.2-18,31.5c-3,9.3,0,40.1,0,40.1h20.9c0,0-1-26,0-30.5c1-4.5,4.6-10.8,4.6-10.8
				l7.9,42l22.8-1.9c0,0-13.3-69.3-14.6-72.6C329.9,123.7,307.5,129.2,307.5,129.2z"/>
		</g>
		<g>
			<path class="st0" d="M341.8,133.8c0.2,0.9,1.9,2.6,1.9,2.6s0.9,3.3,2,3.4c1,0.1,1.9-1.6,1.9-1.6s2.2,0.7,2.9,0.4
				c0.8-0.3,4.5-1.1,5.1-3.1c0.6-2-3.7-9.9-3.7-9.9l-8.3,0.3C343.6,125.9,341.6,132.9,341.8,133.8z"/>
		</g>
		<g>
			<path d="M343.7,136.6c-0.1,0-0.2-0.1-0.2-0.2l-0.5-5.5c0-0.1,0.1-0.2,0.2-0.2c0.1,0,0.2,0.1,0.2,0.2l0.5,5.5
				C343.9,136.5,343.8,136.6,343.7,136.6C343.7,136.6,343.7,136.6,343.7,136.6z"/>
		</g>
		<g>
			<path class="st2" d="M326.3,95.4l-11.2,1.5l-5.5,33.8c0,0,6.8,1.4,12,0.9c5.3-0.5,6.7-1.3,6.7-1.3L326.3,95.4z"/>
		</g>
		<g>
			<path class="st8" d="M317.5,95.4c-0.1,0.2-0.2,0.4-0.2,0.6c0,0-1.4,4.6-3.2,17.4c-1.1,8.3-1.7,15.8-2,19.2l-7.1-0.9
				c0,0,2.6-30.5,4.5-33C310.9,96.8,315.4,95.8,317.5,95.4z"/>
		</g>
		<g>
			<path class="st8" d="M356.6,126.4l-16.1,1.7c0,0-1-6-2.8-8.8c-1.6-2.5-4.1-2.9-4.1-2.9v16.3H323l1.5-35.4l-0.1-2.6
				c5.6-0.2,14.2,0.7,21.2,6.5C356.5,110.1,356.6,126.4,356.6,126.4z"/>
		</g>
		<g>
			<g>
				<path class="st0" d="M325,91.7l-0.5,5.6c0,0-1.2,1.5-4.4,1.4c-2.4,0-3.2-0.7-3.2-0.7l0.6-2.8l0.6-2.7l6-0.7L325,91.7z"/>
			</g>
		</g>
		<g>
			<g>
				<path d="M324,91.8c0,0.2-0.1,0.3-0.2,0.5c-1.5,2.7-5,2.9-6.4,2.9l0.6-2.7L324,91.8z"/>
			</g>
		</g>
		<g>
			<g>
				<path class="st0" d="M318.3,80.3c0,0-3.5,6.5-2.7,10.4c0.7,3.9,4.2,3.6,6.3,3c2.1-0.6,3.2-1.8,3.2-1.8s1.9,0.8,3.3-0.9
					c1.4-1.7,0.8-3.8-0.2-4.4c-1.1-0.6-2.4,0.1-2.4,0.1l1.2-1.9C326.9,85,323.4,74.6,318.3,80.3z"/>
			</g>
		</g>
		<g>
			<path d="M325.6,89.8c-0.1,0-0.1,0-0.2-0.1c-0.1-0.1,0-0.2,0.1-0.3l2.6-1.5c0.1-0.1,0.2,0,0.3,0.1c0.1,0.1,0,0.2-0.1,0.3l-2.6,1.5
				C325.7,89.8,325.7,89.8,325.6,89.8z"/>
		</g>
		<g>
			<path d="M327.8,90C327.8,90,327.8,90,327.8,90l-1.6-0.6c-0.1,0-0.2-0.2-0.1-0.3c0-0.1,0.2-0.2,0.3-0.1l1.6,0.6
				c0.1,0,0.2,0.2,0.1,0.3C328,89.9,327.9,90,327.8,90z"/>
		</g>
		<g>
			<path d="M322.5,83.9c-0.1,0-0.2,0-0.2-0.1c-0.4-1.1-1.4-0.9-1.4-0.8c-0.1,0-0.2,0-0.2-0.1c0-0.1,0-0.2,0.1-0.2
				c0.5-0.1,1.4,0,1.9,1.1C322.7,83.8,322.7,83.9,322.5,83.9C322.5,83.9,322.5,83.9,322.5,83.9z"/>
		</g>
		<g>
			<path d="M317.4,82.8c-0.1,0-0.1,0-0.2-0.1c-0.1-0.1,0-0.2,0.1-0.3c0.7-0.5,1.3-0.2,1.4,0c0.1,0.1,0.1,0.2,0,0.3
				c-0.1,0.1-0.2,0.1-0.3,0c0,0-0.3-0.4-0.9,0C317.5,82.8,317.4,82.8,317.4,82.8z"/>
		</g>
		<g>
			<path d="M318.3,88.3c-0.1,0-0.2-0.1-0.2-0.2c-0.4-2.3,0.7-3,0.8-3c0.1-0.1,0.2,0,0.3,0.1c0.1,0.1,0,0.2-0.1,0.3
				c0,0-1,0.6-0.6,2.6C318.5,88.1,318.4,88.2,318.3,88.3C318.3,88.3,318.3,88.3,318.3,88.3z"/>
		</g>
		<g>
			<path d="M317.2,85.4C317.1,85.4,317.1,85.4,317.2,85.4c-0.2-0.1-0.2-0.2-0.2-0.3l0.5-1.2c0-0.1,0.2-0.2,0.3-0.1
				c0.1,0,0.2,0.2,0.1,0.3l-0.5,1.2C317.3,85.4,317.2,85.4,317.2,85.4z"/>
		</g>
		<g>
			<path d="M320.5,85.8C320.5,85.8,320.5,85.8,320.5,85.8c-0.2-0.1-0.2-0.2-0.2-0.3l0.5-1.2c0-0.1,0.2-0.2,0.3-0.1
				c0.1,0,0.2,0.2,0.1,0.3l-0.5,1.2C320.7,85.8,320.6,85.8,320.5,85.8z"/>
		</g>
		<g>
			<path d="M317.6,81.8c0,0,0.7-1,2-0.9c1.3,0.1,2,1.2,2,1.2s-0.8,2.2,0.9,3.6c1.7,1.4,3.1,1.2,3.1,1.2l1.4-0.3l1.2-1.9l-3.4-4.5
				l-4.5-2.4l-2.7,2.1L317.6,81.8z"/>
		</g>
		<g>
			<path class="st3" d="M317,83.2c0,0,0.4-1,1.3-2c0.9-1.1,4.6,0.3,5.8,2.5c1.2,2.2,1.6,3.4,1.6,3.4s1.2-0.5,2.1-0.3
				c1,0.2,1.1,0.8,1.1,0.8s1.4-2.3,1.5-2.7c0.1-0.5,0.1-0.5,0.1-0.5s0.4,0.3,1-0.5c0.6-0.8,0.6-5.6-4.4-7.8c-5-2.2-8.5,1.5-9.7,3.1
				C316.2,80.9,317,83.2,317,83.2z"/>
		</g>
		<g>
			<path class="st4" d="M319.8,99c-1.9,0-3-0.7-3.1-0.8c-0.1-0.1-0.1-0.2-0.1-0.3c0.1-0.1,0.2-0.1,0.3-0.1c0,0,1.6,1,4,0.6
				c2.5-0.4,3.5-1.6,3.5-1.6c0.1-0.1,0.2-0.1,0.3,0c0.1,0.1,0.1,0.2,0,0.3c0,0.1-1.1,1.3-3.7,1.8C320.5,98.9,320.1,99,319.8,99z"/>
		</g>
		<g>
			<path class="st4" d="M300.7,98.9c-0.1,0-0.2,0-0.3,0c-0.4-0.1-0.7-0.3-0.8-0.7c-0.5-1.4,1.6-4.2,1.8-4.5c0-0.1,0.1-0.1,0.2-0.1
				c0.1,0,0.1,0.1,0.2,0.2c0.1,0.4,0.7,3.8-0.4,4.8C301.2,98.8,301,98.9,300.7,98.9z M301.5,94.3c-0.7,1-1.8,2.9-1.5,3.7
				c0.1,0.2,0.2,0.3,0.5,0.4c0.3,0.1,0.5,0,0.6-0.1C301.8,97.7,301.6,95.5,301.5,94.3z"/>
		</g>
		<g>
			<path class="st4" d="M337.7,119.4c-0.1,0-0.1,0-0.1-0.1c-0.1-0.1-0.1-0.2,0-0.2c0.1-0.1,1.4-3,2.7-3.3c0.3-0.1,0.6,0,0.8,0.1
				c0.3,0.2,0.4,0.4,0.3,0.6C341.4,117.6,338.4,119.1,337.7,119.4C337.8,119.4,337.8,119.4,337.7,119.4z M340.6,116.1
				c-0.1,0-0.1,0-0.2,0c-0.8,0.2-1.7,1.6-2.2,2.6c1.3-0.7,2.8-1.7,2.9-2.3c0-0.1,0-0.2-0.2-0.3C340.8,116.2,340.7,116.1,340.6,116.1
				z"/>
		</g>
		<g>
			<path class="st4" d="M307.1,114.1c-0.1,0-0.2-0.1-0.2-0.2l0.9-8.3c0-0.1,0.1-0.2,0.2-0.2c0.1,0,0.2,0.1,0.2,0.2l-0.9,8.3
				C307.2,114.1,307.2,114.1,307.1,114.1z"/>
		</g>
		<g>
			<path class="st4" d="M333.6,116.5c-0.1,0-0.2-0.1-0.2-0.2v-2.2c0-0.1,0.1-0.2,0.2-0.2c0.1,0,0.2,0.1,0.2,0.2v2.2
				C333.8,116.5,333.7,116.5,333.6,116.5z"/>
		</g>
		<g>
			<path class="st2" d="M315.1,159.7c-0.1,0-0.2-0.1-0.2-0.2l-2.2-18.1l-6.6-1.4c-0.1,0-0.2-0.1-0.2-0.2c0-0.1,0.1-0.2,0.2-0.2
				l6.8,1.4c0.1,0,0.1,0.1,0.2,0.2l2.2,18.2C315.3,159.6,315.2,159.7,315.1,159.7C315.1,159.7,315.1,159.7,315.1,159.7z"/>
		</g>
		<g>
			<path class="st2" d="M332,140c-4.2-0.6-6.5-4.8-6.5-5c-0.1-0.1,0-0.2,0.1-0.3c0.1,0,0.2,0,0.3,0.1c0,0,2.2,4.2,6.2,4.8
				c0.1,0,0.2,0.1,0.2,0.2C332.2,140,332.1,140,332,140z"/>
		</g>
		<g>
			<path class="st2" d="M310.5,170.4c-0.7,0-4.3-0.1-4.7-1.1c-0.1-0.1-0.1-0.4,0.2-0.7c1.2-1.4,4.5,1.3,4.7,1.4
				c0.1,0.1,0.1,0.1,0.1,0.2C310.7,170.4,310.6,170.4,310.5,170.4z M307,168.7c-0.3,0-0.5,0.1-0.7,0.3c-0.1,0.1-0.1,0.2-0.1,0.2
				c0.2,0.4,2.1,0.7,3.7,0.8C309.1,169.4,307.8,168.7,307,168.7z"/>
		</g>
		<g>
			<path class="st4" d="M324,207.1c-0.6,0-5.9,0-7-1.6c-0.2-0.3-0.3-0.7-0.1-1.2c0.2-0.4,0.5-0.7,0.9-0.9c0.7-0.2,1.7-0.1,2.6,0.3
				c-0.8-0.6-1.5-1.4-1.7-2c-0.1-0.4,0-0.7,0.2-1c0.2-0.3,0.5-0.5,0.9-0.4c1.7,0.1,4.3,4.1,4.4,4.3c0.1,0.1,0,0.2-0.1,0.3
				c-0.1,0.1-0.2,0-0.3-0.1c-0.7-1.1-2.8-4-4.1-4.1c-0.2,0-0.4,0.1-0.6,0.3c-0.2,0.2-0.2,0.4-0.1,0.7c0.2,1,1.8,2.1,3.1,2.9
				c1.1,0.5,1.9,1,2,1.1c0.1,0.1,0.1,0.2,0.1,0.3c-0.1,0.1-0.2,0.1-0.3,0.1c-0.1,0-0.9-0.5-2-1.1c-1.4-0.7-3.1-1.3-4.2-1
				c-0.3,0.1-0.5,0.3-0.6,0.6c-0.1,0.3-0.1,0.6,0.1,0.8c0.9,1.2,5,1.5,6.7,1.5c0,0,0.1,0,0.1,0c0.1,0,0.2,0.1,0.2,0.2
				C324.2,207,324.1,207.1,324,207.1C324,207.1,324,207.1,324,207.1z"/>
		</g>
		<g>
			<path class="st4" d="M291.2,205.4c-0.4,0-6,0-7.1-1.7c-0.2-0.3-0.3-0.7-0.1-1.2c0.2-0.4,0.4-0.6,0.8-0.8c0.9-0.3,2.4,0.1,3.7,0.6
				c-1.2-0.9-2.5-2.1-2.6-2.9c0-0.2,0-0.5,0.2-0.6c0.4-0.5,0.8-0.7,1.3-0.6c1.9,0.2,3.9,4.3,4,4.5c0,0.1,0,0.2-0.1,0.3
				c-0.1,0-0.2,0-0.3-0.1c0,0-2-4.1-3.7-4.2c-0.4,0-0.7,0.1-1,0.5c-0.1,0.1-0.1,0.2-0.1,0.3c0.2,1.2,3.7,3.5,5,4.3
				c0.1,0.1,0.1,0.2,0.1,0.3c-0.1,0.1-0.2,0.1-0.3,0.1c0,0-4.4-2.6-6.1-2c-0.3,0.1-0.5,0.3-0.6,0.6c-0.1,0.3-0.1,0.6,0.1,0.8
				c0.8,1.2,5.1,1.5,6.7,1.5c0.2,0,0.2,0.1,0.2,0.2C291.4,205.3,291.4,205.4,291.2,205.4C291.2,205.4,291.2,205.4,291.2,205.4z"/>
		</g>
		<g>
			<path class="st4" d="M330.5,84.6c-0.1,0-0.2-0.1-0.2-0.1l-0.4-1.1c0-0.1,0-0.2,0.1-0.3c0.1,0,0.2,0,0.3,0.1l0.4,1.1
				C330.8,84.4,330.7,84.5,330.5,84.6C330.6,84.6,330.6,84.6,330.5,84.6z"/>
		</g>
		<g>
			<path class="st0" d="M290.1,82.5c0,0-5.3-4.1-6.8-2.9c-1.5,1.2,5.2,7.7,5.2,7.7S292.4,85.5,290.1,82.5z"/>
		</g>
		<g>
			<path d="M320,90.6c-0.5,0-1-0.4-1.1-0.4c-0.1,0-0.1-0.1-0.1-0.2c0-0.1,0.1-0.1,0.1-0.2l1.8-0.8c0.1,0,0.1,0,0.2,0
				c0.1,0,0.1,0.1,0.1,0.2c0,0.1-0.1,1-0.6,1.3C320.2,90.5,320.1,90.6,320,90.6z M319.4,90c0.3,0.1,0.6,0.2,0.7,0.1
				c0.2-0.1,0.3-0.4,0.3-0.6L319.4,90z"/>
		</g>
	</g>
</g>
</svg>
