<svg width="9" height="7" viewBox="0 0 9 7" fill="none" xmlns="http://www.w3.org/2000/svg">
<path d="M0 0H7.59783V0.933333H0V0ZM0 2.8H5.22351V3.73333H0V2.8ZM0 5.6H3.32405V6.53333H0V5.6ZM8.45258 4.15333L8.92745 3.64C8.97417 3.58866 9 3.52221 9 3.45333C9 3.38446 8.97417 3.318 8.92745 3.26667L8.07269 2.42667C8.02045 2.38075 7.95283 2.35537 7.88275 2.35537C7.81266 2.35537 7.74504 2.38075 7.6928 2.42667L7.21794 2.89333L8.45258 4.15333ZM6.88553 3.22L4.27378 5.74V7H5.50843L8.16767 4.43333L6.88553 3.17333V3.22Z" fill="#4B9DFF"/>
</svg>
