<svg width="21" height="21" viewBox="0 0 21 21" fill="none" xmlns="http://www.w3.org/2000/svg">
<path d="M11.8787 15.1117L7.4075 12.673C6.97831 13.0991 6.43259 13.3885 5.83914 13.5048C5.24569 13.6212 4.63109 13.5592 4.07281 13.3268C3.51453 13.0943 3.03757 12.7018 2.70205 12.1986C2.36654 11.6955 2.1875 11.1043 2.1875 10.4995C2.1875 9.89481 2.36654 9.3036 2.70205 8.80047C3.03757 8.29733 3.51453 7.90479 4.07281 7.67234C4.63109 7.43988 5.24569 7.37791 5.83914 7.49425C6.43259 7.61058 6.97831 7.90001 7.4075 8.32605L11.8787 5.88742C11.7254 5.16794 11.8362 4.4173 12.1908 3.77277C12.5454 3.12824 13.1201 2.63289 13.81 2.3773C14.4998 2.12172 15.2585 2.12297 15.9475 2.38085C16.6365 2.63872 17.2096 3.13598 17.5621 3.78168C17.9145 4.42738 18.0228 5.17839 17.8671 5.89736C17.7113 6.61633 17.302 7.25521 16.7139 7.69719C16.1258 8.13916 15.3983 8.35468 14.6644 8.30435C13.9305 8.25401 13.2392 7.94117 12.717 7.42305L8.24575 9.86167C8.33518 10.2819 8.33518 10.7163 8.24575 11.1365L12.717 13.576C13.2392 13.0579 13.9305 12.7451 14.6644 12.6948C15.3983 12.6444 16.1258 12.8599 16.7139 13.3019C17.302 13.7439 17.7113 14.3828 17.8671 15.1017C18.0228 15.8207 17.9145 16.5717 17.5621 17.2174C17.2096 17.8631 16.6365 18.3604 15.9475 18.6182C15.2585 18.8761 14.4998 18.8774 13.81 18.6218C13.1201 18.3662 12.5454 17.8709 12.1908 17.2263C11.8362 16.5818 11.7254 15.8312 11.8787 15.1117Z" fill="#777777"/>
</svg>
