<svg width="29" height="32" viewBox="0 0 29 32" fill="none" xmlns="http://www.w3.org/2000/svg">
<path d="M23.49 14.047L10.6842 27.0515V31.5H3.05263C1.35842 31.5 0 30.1205 0 28.4V3.6C0 2.77783 0.321615 1.98933 0.894095 1.40797C1.46657 0.826606 2.24302 0.5 3.05263 0.5H4.57895V11.35L8.39474 9.025L12.2105 11.35V0.5H21.3684C22.178 0.5 22.9545 0.826606 23.527 1.40797C24.0994 1.98933 24.4211 2.77783 24.4211 3.6V13.365C24.0853 13.551 23.7647 13.768 23.49 14.047ZM13.7368 28.338V31.5H16.8505L26.2068 22.014L23.0932 18.8365L13.7368 28.338ZM28.7711 18.2785L26.7563 16.2325C26.4511 15.9225 25.9474 15.9225 25.6574 16.2325L24.1616 17.7515L27.2753 20.9135L28.7711 19.3945C29.0763 19.1 29.0763 18.5885 28.7711 18.2785Z" fill="#2A91E5"/>
</svg>
