<svg width="19" height="21" viewBox="0 0 19 21" fill="none" xmlns="http://www.w3.org/2000/svg">
<path d="M15.39 9.24L7 17.63V20.5H2C0.89 20.5 0 19.61 0 18.5V2.5C0 1.96957 0.210714 1.46086 0.585786 1.08579C0.960859 0.710714 1.46957 0.5 2 0.5H3V7.5L5.5 6L8 7.5V0.5H14C14.5304 0.5 15.0391 0.710714 15.4142 1.08579C15.7893 1.46086 16 1.96957 16 2.5V8.8C15.78 8.92 15.57 9.06 15.39 9.24ZM9 18.46V20.5H11.04L17.17 14.38L15.13 12.33L9 18.46ZM18.85 11.97L17.53 10.65C17.33 10.45 17 10.45 16.81 10.65L15.83 11.63L17.87 13.67L18.85 12.69C19.05 12.5 19.05 12.17 18.85 11.97Z" fill="#4E4E4E"/>
</svg>
