<svg width="29" height="30" viewBox="0 0 29 30" fill="none" xmlns="http://www.w3.org/2000/svg">
<path d="M8.28571 26.6362V13.55H10.4952C10.6563 13.55 10.8175 13.5684 10.9786 13.6051C11.1397 13.6418 11.3008 13.6839 11.4619 13.7313L21.025 17.465C21.3472 17.5858 21.6064 17.8033 21.8025 18.1175C21.9986 18.4317 22.0962 18.7579 22.0952 19.0962C22.0952 19.6037 21.9281 20.0146 21.5939 20.3288C21.2598 20.6429 20.8745 20.8 20.4381 20.8H16.8131C16.698 20.8 16.6119 20.7942 16.5549 20.7826C16.4978 20.771 16.4227 20.7406 16.3298 20.6913L14.1202 19.785L13.6714 21.1987L16.3298 22.1775C16.3758 22.2017 16.4448 22.22 16.5369 22.2326C16.629 22.2452 16.7095 22.251 16.7786 22.25H26.2381C26.9746 22.25 27.619 22.5279 28.1714 23.0838C28.7238 23.6396 29 24.3283 29 25.15L17.9869 29.5L8.28571 26.6362ZM0 29.5V13.55H5.52381V29.5H0ZM20.7143 16.45L14.9833 10.5775C14.2698 9.8525 13.6659 9.0492 13.1715 8.1676C12.6771 7.286 12.4295 6.32514 12.4286 5.285C12.4286 3.95584 12.8719 2.82629 13.7584 1.89635C14.645 0.966421 15.7208 0.500971 16.9857 0.500004C17.7222 0.500004 18.4127 0.663371 19.0571 0.990104C19.7016 1.31684 20.254 1.75764 20.7143 2.3125C21.1746 1.75667 21.727 1.31539 22.3714 0.988654C23.0159 0.661921 23.7063 0.499038 24.4429 0.500004C25.7087 0.500004 26.7849 0.965454 27.6715 1.89635C28.5581 2.82725 29.0009 3.9568 29 5.285C29 6.32417 28.7583 7.28504 28.275 8.1676C27.7917 9.05017 27.1933 9.85347 26.4798 10.5775L20.7143 16.45Z" fill="#2A91E5"/>
</svg>
