<svg width="20" height="21" viewBox="0 0 20 21" fill="none" xmlns="http://www.w3.org/2000/svg">
<path d="M5.71429 18.525V9.5H7.2381C7.34921 9.5 7.46032 9.51267 7.57143 9.538C7.68254 9.56333 7.79365 9.59233 7.90476 9.625L14.5 12.2C14.7222 12.2833 14.901 12.4333 15.0362 12.65C15.1714 12.8667 15.2387 13.0917 15.2381 13.325C15.2381 13.675 15.1229 13.9583 14.8924 14.175C14.6619 14.3917 14.3962 14.5 14.0952 14.5H11.5952C11.5159 14.5 11.4565 14.496 11.4171 14.488C11.3778 14.48 11.326 14.459 11.2619 14.425L9.7381 13.8L9.42857 14.775L11.2619 15.45C11.2936 15.4667 11.3413 15.4793 11.4048 15.488C11.4683 15.4967 11.5238 15.5007 11.5714 15.5H18.0952C18.6032 15.5 19.0476 15.6917 19.4286 16.075C19.8095 16.4583 20 16.9333 20 17.5L12.4048 20.5L5.71429 18.525ZM0 20.5V9.5H3.80952V20.5H0ZM14.2857 11.5L10.3333 7.45C9.84127 6.95 9.42476 6.396 9.08381 5.788C8.74286 5.18 8.57206 4.51734 8.57143 3.8C8.57143 2.88334 8.87714 2.10434 9.48857 1.463C10.1 0.82167 10.8419 0.50067 11.7143 0.500003C12.2222 0.500003 12.6984 0.61267 13.1429 0.838003C13.5873 1.06334 13.9683 1.36734 14.2857 1.75C14.6032 1.36667 14.9841 1.06234 15.4286 0.837003C15.873 0.611669 16.3492 0.499336 16.8571 0.500003C17.7302 0.500003 18.4724 0.821003 19.0838 1.463C19.6952 2.105 20.0006 2.884 20 3.8C20 4.51667 19.8333 5.17934 19.5 5.788C19.1667 6.39667 18.754 6.95067 18.2619 7.45L14.2857 11.5Z" fill="#4E4E4E"/>
</svg>
