<svg width="17" height="10" viewBox="0 0 17 10" fill="none" xmlns="http://www.w3.org/2000/svg">
<path d="M12.7739 10C13.8101 10 14.7325 9.68666 15.377 9.08749C16.0223 8.48748 16.3594 7.63164 16.3594 6.66829C16.3594 5.76578 16.1891 5.03494 15.723 4.4591C15.3537 4.0041 14.7549 3.73243 14.1364 3.44826C14.1346 2.53408 14.1543 2.19157 14.9252 0.938226C15.2712 0.374052 14.5774 -0.245122 13.9858 0.0990484C12.1716 1.15239 10.9749 1.96574 10.2077 2.97658C9.43949 3.98743 9.18851 5.15161 9.18851 6.66829C9.18851 7.63164 9.52374 8.48748 10.1691 9.08749C10.8145 9.6875 11.7378 10 12.7739 10ZM3.81035 10C4.84655 10 5.7689 9.68666 6.41338 9.08749C7.05876 8.48748 7.39579 7.63164 7.39579 6.66829C7.39579 5.76578 7.22548 5.03494 6.75938 4.4591C6.39008 4.00409 5.79131 3.73242 5.17282 3.44825C5.17103 2.53408 5.19075 2.19157 5.96162 0.938225C6.30761 0.374051 5.61383 -0.245123 5.02223 0.0990476C3.208 1.15239 2.01136 1.96574 1.24408 2.97658C0.4759 3.98743 0.224921 5.15161 0.224921 6.66829C0.22492 7.63164 0.560158 8.48748 1.20554 9.08749C1.85091 9.68749 2.77416 10 3.81035 10Z" fill="#2A91E5"/>
</svg>
