<svg width="28" height="28" viewBox="0 0 28 28" fill="none" xmlns="http://www.w3.org/2000/svg">
<path d="M2.75 13.75C2.75 7.68625 7.68625 2.75 13.75 2.75C19.8137 2.75 24.75 7.68625 24.75 13.75C24.75 19.8137 19.8137 24.75 13.75 24.75C7.68625 24.75 2.75 19.8137 2.75 13.75ZM-6.01032e-07 13.75C-2.69262e-07 21.34 6.16 27.5 13.75 27.5C21.34 27.5 27.5 21.34 27.5 13.75C27.5 6.16 21.34 -9.32801e-07 13.75 -6.01032e-07C6.16 -2.69262e-07 -9.32801e-07 6.16 -6.01032e-07 13.75ZM13.75 12.375L8.25 12.375L8.25 15.125L13.75 15.125L13.75 19.25L19.25 13.75L13.75 8.25L13.75 12.375Z" fill="white"/>
</svg>
