<?xml version="1.0" encoding="utf-8"?>
<!-- Generator: Adobe Illustrator 24.0.2, SVG Export Plug-In . SVG Version: 6.00 Build 0)  -->
<svg version="1.1" id="Layer_1" xmlns="http://www.w3.org/2000/svg" xmlns:xlink="http://www.w3.org/1999/xlink" x="0px" y="0px"
	 viewBox="0 0 15 17" style="enable-background:new 0 0 15 17;" xml:space="preserve">
<style type="text/css">
	.st0{fill:#0689E8;}
</style>
<path class="st0" d="M0,7.6C0,3.4,3.4,0,7.5,0C11.6,0,15,3.4,15,7.6v3.9c0,1.3-1.1,2.2-2.3,2.2h-2.3V7.6h3c0-1.6-0.6-3.2-1.8-4.3
	c-1.1-1.1-2.7-1.8-4.2-1.8S4.4,2.2,3.3,3.3S1.5,6,1.5,7.6h3v6.1H3c0.1,0.3,0.3,0.6,0.5,0.8c0.3,0.2,0.6,0.3,0.9,0.3h1.2
	c0.2-0.3,0.6-0.6,1.1-0.6h1.5c0.3,0,0.7,0.1,0.9,0.4c0.2,0.3,0.4,0.6,0.4,0.9s-0.1,0.7-0.4,0.9C8.9,16.9,8.6,17,8.3,17H6.8
	c-0.4,0-0.8-0.2-1.1-0.6H4.5c-0.8,0-1.5-0.3-2-0.8c-0.6-0.5-0.9-1.2-1-2C0.7,13.3,0,12.6,0,11.6V7.6z"/>
</svg>
