<svg width="15" height="17" viewBox="0 0 15 17" fill="none" xmlns="http://www.w3.org/2000/svg">
<path d="M0 7.64045C0 3.42063 3.35775 0 7.5 0C11.6423 0 15 3.42063 15 7.64045V11.5783C15 12.836 13.935 13.7528 12.75 13.7528H10.5V7.64045H13.5C13.5 6.01935 12.8679 4.46465 11.7426 3.31836C10.6174 2.17207 9.0913 1.52809 7.5 1.52809C5.9087 1.52809 4.38258 2.17207 3.25736 3.31836C2.13214 4.46465 1.5 6.01935 1.5 7.64045H4.5V13.7528H3.04725C3.1304 14.0809 3.31823 14.3715 3.58121 14.579C3.84419 14.7864 4.16739 14.899 4.5 14.8989H5.673C5.91 14.5528 6.30375 14.3258 6.75 14.3258H8.25C8.5981 14.3258 8.93194 14.4667 9.17808 14.7175C9.42422 14.9682 9.5625 15.3083 9.5625 15.6629C9.5625 16.0175 9.42422 16.3576 9.17808 16.6084C8.93194 16.8591 8.5981 17 8.25 17H6.75C6.30375 17 5.91 16.7731 5.673 16.427H4.5C3.74843 16.4271 3.02421 16.1398 2.47061 15.6219C1.91702 15.1041 1.57438 14.3934 1.5105 13.6306C0.6555 13.3425 0 12.5655 0 11.5791V7.64045Z" fill="#555555"/>
</svg>
