<?xml version="1.0" encoding="utf-8"?>
<!-- Generator: Adobe Illustrator 24.0.2, SVG Export Plug-In . SVG Version: 6.00 Build 0)  -->
<svg version="1.1" xmlns="http://www.w3.org/2000/svg" xmlns:xlink="http://www.w3.org/1999/xlink" x="0px" y="0px"
	 viewBox="0 0 432.3 379.4" style="enable-background:new 0 0 432.3 379.4;" xml:space="preserve">
<style type="text/css">
	.st0{fill:#1B314F;}
	.st1{fill:#FFFFFF;stroke:#4475AB;stroke-miterlimit:10;}
	.st2{fill:#4475AB;}
	.st3{opacity:0.74;fill:#BFC8DE;}
	.st4{fill:#D4603F;}
	.st5{fill:#EDC794;}
	.st6{fill:#AD4021;}
	.st7{fill:#FFFFFF;}
	.st8{fill:none;stroke:#FFFFFF;stroke-width:0.5478;stroke-miterlimit:10;}
	.st9{clip-path:url(#SVGID_2_);}
	.st10{fill:#FAE9CF;}
	.st11{fill:#E37059;}
	.st12{fill:#FFB264;}
</style>
<g id="BACKGROUND">
</g>
<g id="OBJECTS">
	<g>
		<g>
			<path class="st0" d="M175.8,34.3H77V17.6C77,7.9,84.9,0,94.7,0h63.5c9.7,0,17.6,7.9,17.6,17.6V34.3z"/>
			<path class="st1" d="M208.5,369.5H0.5V42.8h251.8v283C235.2,342.8,225.6,352.4,208.5,369.5z"/>
			<rect x="52.4" y="27.2" class="st2" width="148.1" height="42.7"/>
			<path class="st2" d="M208.5,369.5v-26.4c0-9.6,7.8-17.3,17.3-17.3h26.5L208.5,369.5z"/>
			
				<ellipse transform="matrix(0.9736 -0.2282 0.2282 0.9736 -27.8912 20.1286)" class="st3" cx="73.1" cy="130.7" rx="16.1" ry="16.1"/>
			
				<ellipse transform="matrix(0.9736 -0.2282 0.2282 0.9736 -44.1609 22.0096)" class="st3" cx="73.1" cy="202" rx="16.1" ry="16.1"/>
			
				<ellipse transform="matrix(0.9736 -0.2282 0.2282 0.9736 -62.3265 24.1098)" class="st3" cx="73.1" cy="281.6" rx="16.1" ry="16.1"/>
			<g>
				<g>
					<path class="st4" d="M56.9,194.6c4.8,4.5,9.1,9.5,12.9,14.9c1.3,1.8,4.4,2.3,5.6,0c6.1-12.3,14.4-23.2,24.7-32.3
						c1.3-1.2,1.2-3.4,0-4.6c-1.3-1.3-3.2-1.2-4.6,0c-10.6,9.4-19.4,20.9-25.7,33.6c1.9,0,3.7,0,5.6,0c-4.1-5.8-8.7-11.3-13.9-16.2
						C58.5,187.2,53.9,191.8,56.9,194.6L56.9,194.6z"/>
				</g>
			</g>
			<g>
				<g>
					<path class="st4" d="M56.9,124.7c4.8,4.5,9.1,9.5,12.9,14.9c1.3,1.8,4.4,2.3,5.6,0c6.1-12.3,14.4-23.2,24.7-32.3
						c1.3-1.2,1.2-3.4,0-4.6c-1.3-1.3-3.2-1.2-4.6,0c-10.6,9.4-19.4,20.9-25.7,33.6c1.9,0,3.7,0,5.6,0c-4.1-5.8-8.7-11.3-13.9-16.2
						C58.5,117.3,53.9,121.8,56.9,124.7L56.9,124.7z"/>
				</g>
			</g>
			<g>
				<path class="st3" d="M202,136.3h-91.8c-4,0-7.3-3.3-7.3-7.3l0,0c0-4,3.3-7.3,7.3-7.3H202c4,0,7.3,3.3,7.3,7.3l0,0
					C209.3,133.1,206,136.3,202,136.3z"/>
				<path class="st3" d="M202,212.1h-91.8c-4,0-7.3-3.3-7.3-7.3l0,0c0-4,3.3-7.3,7.3-7.3H202c4,0,7.3,3.3,7.3,7.3l0,0
					C209.3,208.8,206,212.1,202,212.1z"/>
				<path class="st3" d="M202,292.2h-91.8c-4,0-7.3-3.3-7.3-7.3l0,0c0-4,3.3-7.3,7.3-7.3H202c4,0,7.3,3.3,7.3,7.3l0,0
					C209.3,289,206,292.2,202,292.2z"/>
			</g>
		</g>
		<g>
			<g>
				<g>
					<path class="st5" d="M303.5,80.6c-0.5-2.2,3-7.8,4.9-9c2.2-1.5,4.7-2.6,7.3-3.2c5.5-1.3,10.7,0.5,14.7,4.5
						c12.9,12.7-8.8,27.2-8.8,27.2"/>
					<path class="st5" d="M328.2,95.7c0-3.3,2.7-6,6-6s6,2.7,6,6c0,3.3-2.7,6-6,6S328.2,99,328.2,95.7z"/>
					<path class="st4" d="M325.2,86c0,0.3,0.3,0.5,0.6,0.5c1.2-0.1,4-0.6,4.7,2.5c0.7,3.2-2.2,5.3-4.1,5.6c-0.5,0.1-3.1,2.2-3.4,2.6
						c-1,1.3,1.5,14.2,2,18.2c1,7.5-10,11.1-10,11.1s-6.3-1.7-7-11.1c0,0,0.3-18.2,0.2-18.3c-1.6-1.4-7.5-1.5-4.9-14.2
						c2.4-11.7,10.8-11.7,13-11.5C318.1,71.6,324.4,71.4,325.2,86z"/>
					<path class="st5" d="M310.3,70.8c0,0,13.1,14.5,15.2,15.6C325.5,86.4,331.8,66.8,310.3,70.8z"/>
					<g>
						<path class="st6" d="M329.2,90.1c0,0-2.3-3.9-4.2,1.8"/>
						<path class="st6" d="M314.6,86.9c-1.6,0.1-2.8,1.5-2.7,3.1c0.1,1.6,1.5,2.8,3.1,2.7c1.6-0.1,2.8-1.5,2.7-3.1
							C317.6,88,316.2,86.8,314.6,86.9z"/>
						<path class="st6" d="M302.8,89.1c1.3-0.4,2.2-1.6,2.1-3c-0.1-1.1-0.7-2-1.6-2.4C303.2,83.7,302.3,87,302.8,89.1z"/>
						<path class="st7" d="M305,87.4l4.6,1.8c0,0-2,1.7-3.2,1C305.1,89.4,305,87.4,305,87.4z"/>
						<path class="st6" d="M308.1,83.9l-0.4,3.2l-1.6-0.5c-0.3-0.1-0.4-0.5-0.1-0.7L308.1,83.9z"/>
						<path d="M313.6,82.2c0.4,0.5,0-1.3-0.6-1.7c-0.7-0.4-1.5-0.2-1.8,0.4C311.2,80.9,312.6,81,313.6,82.2z"/>
						<path d="M305.1,79.8c-0.6,0.2,0.6-1.2,1.4-1.2c0.8,0,1.4,0.5,1.4,1.2C307.8,79.8,306.6,79.3,305.1,79.8z"/>
						<path d="M311.3,84.7c-0.2,0.5-0.5,0.9-0.8,0.8c-0.3-0.1-0.3-0.6-0.2-1.1c0.2-0.5,0.5-0.9,0.8-0.8
							C311.4,83.7,311.5,84.2,311.3,84.7z"/>
						<path d="M307.1,83.2c-0.2,0.5-0.5,0.9-0.7,0.8c-0.3-0.1-0.3-0.6-0.2-1.1c0.2-0.5,0.5-0.9,0.7-0.8
							C307.2,82.2,307.2,82.7,307.1,83.2z"/>
						<path class="st6" d="M308.2,97.1c0,0,5.5,0.6,8.3,0.1C319.2,96.8,307.8,105.7,308.2,97.1z"/>
					</g>
					<g>
						<ellipse class="st8" cx="305.2" cy="82.3" rx="3.5" ry="3.9"/>
						<ellipse class="st8" cx="312.4" cy="85.1" rx="3.5" ry="3.9"/>
						<line class="st8" x1="315.9" y1="85.1" x2="325.5" y2="86.4"/>
					</g>
				</g>
				<g>
					<path class="st4" d="M312.3,349.8l-2,14.1c0,0-3.2,9.4-6.2,5.7c-3-3.6-5.9-5.5-5.9-5.5l-1-14.7L312.3,349.8z"/>
					<path class="st4" d="M359.5,348.7l4.4,14.1c0,0,3.3,2.9,4.6,2.9c2.2-0.1,3.4-3.9,3.4-3.9l0.4-13H359.5z"/>
					<path class="st0" d="M297.2,364l-11.8,9.6c-0.6,0.4-0.2,1.2,0.7,1.2l17.5,0.1c0.4,0,0.8-0.2,0.9-0.5l1.3-2.7
						c0.4-0.8,1.1-0.8,1.1,0l0.6,2.6c0,0.4,4.1,0.3,4.2-0.1c0.2-2.3-0.3-9.9-0.7-12c-0.1-0.3-0.4-0.5-0.8-0.6l0,0
						c-0.4-0.1-0.7,0-1,0.3c-1.2,1.1-5,4.6-7,3.9c-1.3-0.5-3.1-1.3-3.6-1.8C298.3,363.7,297.6,363.7,297.2,364z"/>
					<path class="st0" d="M372,361.2l6.7,11.3c0.7,1.1,0.3,2.4-1,3.2c-2.1,1.3-3.8,3.7-5.1,3.8c-2.4,0.1-6.1-2.5-8.3-3.4
						c-1.5-0.6-2.6-1.6-2.4-2.8l1.7-11.3c0-0.1,0.3-0.2,0.4-0.1l2.6,2.3c0.8,0.8,3.1,0.7,3.7-0.3c0.4-0.7,1.4-2.8,1.4-2.8
						C371.7,361.1,371.9,361.1,372,361.2z"/>
				</g>
				<g>
					<path class="st0" d="M336.3,162.9c5.4,9.6,8.3,16.6,11.4,28.8c3.6,14.1,42.8,133.8,44.5,159.6c-4.5,1.1-34.1,0.9-36.9,0.8
						c-9-25.7-31.6-109.1-35.5-125.3c-0.6-2.5-4.4-1.9-4.1,0.6c2.2,18.5,13.9,96.3,19.8,124.7c-2.3,1.2-36.3,0.9-39,0.6
						c-2.9-31.7-18.5-151.7,5-190.6C312.3,160.6,325.4,162.6,336.3,162.9z"/>
				</g>
				<g>
					<path class="st4" d="M254.4,171.3c0,0,15.9-3.3,29.6-8.8c-3.7-2.9-7.4-5.9-11-9.1l-16.2,8.6c-0.9,0.4-0.5,1.7-10,5.1
						L254.4,171.3z"/>
					<path class="st4" d="M256.8,162.3c0,0-11.2,2.7-11.9,3.7c-0.7,0.9,6.8,0,6.5,0.9C251.4,166.9,256.1,163.4,256.8,162.3z"/>
				</g>
				<g>
					<defs>
						<path id="SVGID_1_" d="M336.3,162.9c5.4,9.6,8.3,16.6,11.4,28.8c3.6,14.1,42.8,133.8,44.5,159.6c-4.5,1.1-34.1,0.9-36.9,0.8
							c-9-25.7-31.6-109.1-35.5-125.3c-0.6-2.5-4.4-1.9-4.1,0.6c2.2,18.5,13.9,96.3,19.8,124.7c-2.3,1.2-36.3,0.9-39,0.6
							c-2.9-31.7-18.5-151.7,5-190.6C312.3,160.6,325.4,162.6,336.3,162.9z"/>
					</defs>
					<clipPath id="SVGID_2_">
						<use xlink:href="#SVGID_1_"  style="overflow:visible;"/>
					</clipPath>
					<g class="st9">
						<g>
							<path class="st7" d="M274.3,189.2c1.7,9.1,6.9,18.5,14.7,23.7c4,2.6,8.5,3.3,13.2,2.5c4.9-0.8,9.5-2.8,14.4-3.5
								c5-0.8,10,0.1,14.2,3c4.5,3.1,6.6,7.8,8.4,12.8c1.6,4.5,3.5,8.6,6.7,12.2c3,3.4,6.6,6.1,10.6,8.2c10.5,5.5,22.7,6.3,34.3,6.2
								c0.5,0,0.5-0.8,0-0.8c-10.7,0.1-21.8-0.5-31.7-5c-4.1-1.9-8-4.4-11.2-7.6c-3.5-3.5-5.8-7.5-7.5-12.1
								c-1.6-4.4-3.1-8.9-6.5-12.2c-3-3-7-5-11.2-5.5c-9.6-1.3-18.6,6-28.2,3.6c-5.5-1.3-9.8-5.8-13-10.3c-3.2-4.6-5.4-9.8-6.5-15.3
								C275,188.5,274.2,188.7,274.3,189.2L274.3,189.2z"/>
						</g>
					</g>
					<g class="st9">
						<g>
							<path class="st7" d="M277.4,226.3c17,5.1,27,22.2,31.3,38.4c5.1,18.8,3.6,40-8.8,55.8c-5.9,7.5-13.8,13.3-23,16
								c-0.5,0.1-0.3,0.9,0.2,0.8c17.3-5,29.6-20.5,33.5-37.6c2.4-10.2,2-20.9-0.2-31.2c-2-9.1-5.4-18-10.7-25.7
								c-5.4-7.9-12.9-14.4-22.2-17.2C277.1,225.3,276.9,226.1,277.4,226.3L277.4,226.3z"/>
						</g>
					</g>
					<g class="st9">
						<g>
							<path class="st7" d="M331.5,300c-7.7,7.7-12.3,18.2-13.5,29c-1.1,10.7,1.2,22.2,7.9,30.8c3.6,4.7,8.6,8.2,14.6,9
								c0.5,0.1,0.5-0.8,0-0.8c-10.9-1.4-17.7-12.1-20.3-21.8c-2.8-10.1-1.9-21,2-30.7c2.3-5.5,5.6-10.6,9.8-14.9
								C332.4,300.2,331.8,299.6,331.5,300L331.5,300z"/>
						</g>
					</g>
					<g class="st9">
						<g>
							<path class="st7" d="M323.8,258.6c3.2,6.1,7.6,11.4,13.1,15.4c2.7,2,5.8,3.8,9.3,4.3c3.3,0.5,6.5-0.5,9.5-1.9
								c3.4-1.6,6.7-3.6,10.3-4.7c3.8-1.2,8-1.5,11.9-0.4c6.6,1.9,11.6,7.5,15.3,13.1c4.3,6.4,8.8,15.4,4.6,23
								c-0.3,0.5,0.5,0.9,0.7,0.4c3.5-6.2,1.2-13.5-1.9-19.3c-3.1-5.8-7.3-11.6-12.8-15.2c-6.2-4.1-13.5-4.2-20.3-1.5
								c-3.5,1.4-6.6,3.5-10.2,4.8c-3.9,1.4-7.7,1.3-11.5-0.5c-7.5-3.6-13.5-10.6-17.3-17.9C324.2,257.7,323.5,258.1,323.8,258.6
								L323.8,258.6z"/>
						</g>
					</g>
					<g class="st9">
						<g>
							<path class="st7" d="M337.3,300.6c0.4,1.9,2.4,2.8,4.1,3.3c2.7,0.7,5.3,1.4,8,2.2c5.5,1.8,10.7,4.1,15.7,7
								c9.6,5.6,17.8,13.5,23.2,23.3c2.9,5.3,4.9,11.2,5.8,17.2c0.1,0.5,0.9,0.3,0.8-0.2c-1.5-10.4-6.4-20.1-13.3-27.9
								c-7.2-8.2-16.7-14.2-26.8-18.3c-2.9-1.1-5.8-2.1-8.8-3c-1.4-0.4-2.9-0.7-4.3-1.1c-1.5-0.4-3.2-1-3.5-2.7
								C338,299.8,337.2,300,337.3,300.6L337.3,300.6z"/>
						</g>
					</g>
				</g>
			</g>
		</g>
		<g>
			<path class="st7" d="M270.3,154l11.9-6.7c0.1-0.1,0.2-0.1,0.2-0.2c0.1-0.2,10.5-24.6,13.4-30.4c1.9-3.8,7-4.4,9.9-4.4
				c0.8,0,1.4,0,1.8,0.1c0,0.4,0,0.8-0.1,1.2c0,0.3,0.2,0.5,0.4,0.5c0.9,0.1,1.9,0.2,2.8,0.2c0,0,0,0,0,0c7.8,0,12.3-4.4,13.2-5.5
				c1.5,0.3,5.5,2.8,10.7,6.8c0.1,0,0.1,0.1,0.2,0.1c17.3,4.6,33.7,36.7,36.6,42.5l-22.7-4.4c-0.5-0.8-2.6-4-5-7.8
				c-0.1-0.1-0.3-0.2-0.4-0.2c-0.1,0-0.1,0-0.2,0c-0.2,0.1-0.4,0.3-0.3,0.5c0.5,8.3-0.9,14.1-4.2,17c-9.9,1.6-18.3,2.3-25,2.3
				c-8.4,0-11.5-1.3-12.2-1.7c0-0.7-0.5-2.2-1.4-5.3c-0.4-1.4-0.9-3-1.4-4.7c-0.1-0.2-0.2-0.3-0.4-0.4c0,0,0,0,0,0
				c-0.2,0-0.4,0.1-0.5,0.3c-0.9,2-1.8,3.5-2.6,4.2c-5.1,4.6-15,7.3-16.9,7.8L270.3,154z"/>
			<path class="st2" d="M324.1,109.4c1.3,0.4,4.6,2.4,10.3,6.7c0.1,0.1,0.2,0.1,0.3,0.2c16.3,4.4,32,33.8,35.8,41.4l-21.5-4.1
				c-0.7-1-2.6-4.1-4.9-7.6c-0.2-0.3-0.5-0.5-0.8-0.5c-0.1,0-0.2,0-0.3,0.1c-0.4,0.1-0.7,0.6-0.7,1c0.5,8.1-0.9,13.7-3.9,16.5
				c-9.8,1.5-18.2,2.3-24.7,2.3c-7.6,0-10.8-1.1-11.8-1.5c-0.1-0.8-0.5-2.2-1.4-5.1c-0.4-1.4-0.9-3-1.4-4.7
				c-0.1-0.4-0.5-0.7-0.9-0.7c0,0-0.1,0-0.1,0c-0.4,0-0.7,0.2-0.9,0.6c-1.1,2.5-2,3.5-2.5,4c-4.8,4.3-13.8,6.9-16.4,7.6l-7.2-11.3
				l11.5-6.4c0.2-0.1,0.3-0.3,0.4-0.5c0.1-0.2,10.5-24.6,13.4-30.4c1.8-3.6,6.7-4.1,9.5-4.1c0.5,0,0.9,0,1.3,0c0,0.2,0,0.5,0,0.7
				c0,0.5,0.3,1,0.9,1.1c1,0.1,1.9,0.2,2.8,0.2C318.2,114.8,322.7,110.8,324.1,109.4 M323.7,108.3c0,0-4.5,5.5-13,5.5
				c-0.9,0-1.8-0.1-2.7-0.2c0-0.7,0.1-1.2,0.1-1.7c0,0-0.9-0.1-2.3-0.1c-3.1,0-8.4,0.6-10.4,4.7c-2.9,5.9-13.4,30.4-13.4,30.4
				l-12.4,6.9l8.2,12.8c0,0,11.7-2.7,17.5-8c0.9-0.8,1.8-2.3,2.7-4.3c1.5,5.1,3,9.5,2.8,10.1c0,0,2.4,1.9,12.8,1.9
				c5.7,0,13.8-0.6,25.2-2.4c3.9-3.4,4.9-10.1,4.5-17.5c2.8,4.3,5.1,8,5.1,8l23.9,4.6c0,0-18-38.5-37.3-43.7
				C331.9,112.9,325.8,108.4,323.7,108.3L323.7,108.3z"/>
		</g>
		<g>
			<g>
				<polygon class="st10" points="204.1,145.4 180.8,97.8 229.6,94.6 290.6,125.2 265,176.1 				"/>
				<path class="st11" d="M193.1,115.8c3.5-6.2,6.1-12.9,9.1-19.3l-21.5,1.4l10.5,21.4C191.9,118,192.5,116.9,193.1,115.8z"/>
				
					<rect x="281.2" y="63.8" transform="matrix(-0.4491 0.8935 -0.8935 -0.4491 597.6426 -35.1758)" class="st12" width="56.9" height="205.7"/>
				<path class="st2" d="M372.5,230.1l25.5-50.8l25.5,12.8c7.8,3.9,11,13.5,7.1,21.3l-11.3,22.4c-3.9,7.8-13.5,11-21.3,7.1
					L372.5,230.1z"/>
			</g>
			<g>
				<g>
					<path class="st4" d="M229.4,112.4c7.8,4,15.6,7.9,23.3,11.9c1.1,0.6,2.2,1.1,3.4,1.7c1.8,0.9,4.3,0.5,5.3-1.4
						c0.9-1.8,0.5-4.3-1.4-5.3c-7.8-4-15.6-7.9-23.3-11.9c-1.1-0.6-2.2-1.1-3.4-1.7c-1.8-0.9-4.3-0.5-5.3,1.4
						C227.1,108.9,227.5,111.4,229.4,112.4L229.4,112.4z"/>
				</g>
			</g>
			<g>
				<g>
					<path class="st7" d="M394.5,178.3c-5.1,10.2-10.2,20.4-15.3,30.6c-0.9,1.8-0.5,4.3,1.4,5.3c1.8,0.9,4.3,0.5,5.3-1.4
						c5.1-10.2,10.2-20.4,15.3-30.6c0.9-1.8,0.5-4.3-1.4-5.3C398.1,176,395.5,176.4,394.5,178.3L394.5,178.3z"/>
				</g>
			</g>
		</g>
		<g>
			<path class="st4" d="M249.8,164.3l-3,2.9c0,0,0.4,1.6,1.7,1.5c1.3-0.1,2.6-3.4,2.6-4.1C251.2,162.8,249.8,164.3,249.8,164.3z"/>
			<path class="st4" d="M251,165.2l-2.1,3.6c0,0,0.8,1.5,2,1s1.6-4,1.4-4.7C251.9,163.4,251,165.2,251,165.2z"/>
			<path class="st4" d="M252.8,166.2l-2.1,3.6c0,0,0.8,1.5,2,1c1.2-0.4,1.7-4,1.4-4.7C253.7,164.4,252.8,166.2,252.8,166.2z"/>
			<path class="st4" d="M254.1,168.2l-1.6,2.8c0,0,0.6,1.2,1.6,0.8c0.9-0.3,1.3-3.1,1.1-3.7C254.8,166.8,254.1,168.2,254.1,168.2z"
				/>
		</g>
		<g>
			<path class="st4" d="M335,172.4c0,0,36.6-6.2,35.4-13.9l-20.7-4c0.4,0.3-26.5,9.8-26.5,9.8s-14.1,6.5-12.7,7.9
				c1,0.9,7.9-3.4,7.4-2.7c-0.1,0.1-6.6,3.5-6.4,4.6c0.3,1.6,8-2.8,8.5-2.4c0,0-7.2,3.5-6.5,4.3c0.6,0.7,8.6-2.6,8.7-2.3
				c0.1,0.3-5.6,2.8-4.8,3.9C318,178.7,335,172.4,335,172.4z"/>
			<path class="st4" d="M319,166.9c0,0-8.4,0.3-6.9-0.6c1.6-0.9,14.2-2.9,14.2-2.9"/>
		</g>
	</g>
</g>
</svg>
