<svg width="20" height="21" viewBox="0 0 20 21" fill="none" xmlns="http://www.w3.org/2000/svg">
<path d="M10.0011 5.51771C10.0012 5.18707 9.9362 4.85966 9.80973 4.55417C9.68325 4.24869 9.49782 3.97112 9.26402 3.73732C9.03023 3.50353 8.75266 3.3181 8.44717 3.19162C8.14169 3.06514 7.81427 3.0001 7.48364 3.00021H5.01864C4.68534 2.99592 4.3545 3.05786 4.04533 3.18245C3.73616 3.30703 3.45481 3.49177 3.2176 3.72594C2.98039 3.96012 2.79204 4.23908 2.66349 4.54662C2.53494 4.85416 2.46875 5.18417 2.46875 5.5175C2.46875 5.85083 2.53494 6.18084 2.66349 6.48838C2.79204 6.79592 2.98039 7.07488 3.2176 7.30905C3.45481 7.54323 3.73616 7.72797 4.04533 7.85255C4.3545 7.97714 4.68534 8.03908 5.01864 8.03479H5.50114V9.25021C5.50114 9.25021 10.0011 8.64271 10.0011 5.51771ZM7.70947 12.1669C7.70947 13.0877 6.96364 13.8335 6.0428 13.8335C5.12197 13.8335 4.37614 13.0877 4.37614 12.1669C4.37614 11.246 5.12197 10.5002 6.0428 10.5002C6.96364 10.5002 7.70947 11.246 7.70947 12.1669ZM6.0428 14.6669C4.86072 14.6669 2.50114 15.2627 2.50114 16.4448V18.0002H9.58447V16.4448C9.58447 15.2623 7.22489 14.6669 6.0428 14.6669ZM13.9595 13.8335C14.8803 13.8335 15.6261 13.0877 15.6261 12.1669C15.6261 11.246 14.8803 10.5002 13.9595 10.5002C13.0386 10.5002 12.2928 11.246 12.2928 12.1669C12.2928 13.0877 13.0386 13.8335 13.9595 13.8335ZM13.9595 14.6669C12.7774 14.6669 10.4178 15.2627 10.4178 16.4448V18.0002H17.5011V16.4448C17.5011 15.2623 15.1416 14.6669 13.9595 14.6669ZM13.352 3.41688C13.0213 3.41677 12.6939 3.48181 12.3884 3.60829C12.0829 3.73476 11.8054 3.9202 11.5716 4.15399C11.3378 4.38778 11.1524 4.66535 11.0259 4.97084C10.8994 5.27633 10.8344 5.60374 10.8345 5.93438C10.8345 9.05937 14.8345 9.66687 14.8345 9.66687V8.45146H14.9836C15.3169 8.45575 15.6478 8.3938 15.9569 8.26922C16.2661 8.14464 16.5475 7.9599 16.7847 7.72572C17.0219 7.49154 17.2102 7.21259 17.3388 6.90505C17.4673 6.5975 17.5335 6.26749 17.5335 5.93417C17.5335 5.60084 17.4673 5.27083 17.3388 4.96329C17.2102 4.65574 17.0219 4.37679 16.7847 4.14261C16.5475 3.90843 16.2661 3.72369 15.9569 3.59911C15.6478 3.47453 15.3169 3.41259 14.9836 3.41688H13.352Z" fill="#0689E8"/>
</svg>
