<svg width="12" height="12" viewBox="0 0 12 12" fill="none" xmlns="http://www.w3.org/2000/svg">
<path d="M6 1.425C6.20683 1.425 6.41164 1.46574 6.60273 1.54489C6.79381 1.62404 6.96744 1.74005 7.11369 1.88631C7.25995 2.03256 7.37596 2.20619 7.45511 2.39727C7.53426 2.58836 7.575 2.79317 7.575 3C7.575 3.20683 7.53426 3.41164 7.45511 3.60273C7.37596 3.79381 7.25995 3.96744 7.11369 4.11369C6.96744 4.25995 6.79381 4.37596 6.60273 4.45511C6.41164 4.53426 6.20683 4.575 6 4.575C5.58228 4.575 5.18168 4.40906 4.88631 4.11369C4.59094 3.81832 4.425 3.41772 4.425 3C4.425 2.58228 4.59094 2.18168 4.88631 1.88631C5.18168 1.59094 5.58228 1.425 6 1.425ZM6 8.175C8.2275 8.175 10.575 9.27 10.575 9.75V10.575H1.425V9.75C1.425 9.27 3.7725 8.175 6 8.175ZM6 0C4.3425 0 3 1.3425 3 3C3 4.6575 4.3425 6 6 6C7.6575 6 9 4.6575 9 3C9 1.3425 7.6575 0 6 0ZM6 6.75C3.9975 6.75 0 7.755 0 9.75V12H12V9.75C12 7.755 8.0025 6.75 6 6.75Z" fill="#6C6C6C"/>
</svg>
