<svg width="29" height="29" viewBox="0 0 29 29" fill="none" xmlns="http://www.w3.org/2000/svg">
<path d="M3.5 14.5C3.5 8.43625 8.43625 3.5 14.5 3.5C20.5637 3.5 25.5 8.43625 25.5 14.5C25.5 20.5637 20.5637 25.5 14.5 25.5C8.43625 25.5 3.5 20.5637 3.5 14.5ZM0.749999 14.5C0.75 22.09 6.91 28.25 14.5 28.25C22.09 28.25 28.25 22.09 28.25 14.5C28.25 6.91 22.09 0.749999 14.5 0.749999C6.91 0.75 0.749999 6.91 0.749999 14.5ZM14.5 13.125L9 13.125L9 15.875L14.5 15.875L14.5 20L20 14.5L14.5 9L14.5 13.125Z" fill="white"/>
</svg>
