<svg width="87" height="28" viewBox="0 0 87 28" fill="none" xmlns="http://www.w3.org/2000/svg">
<path d="M49.7003 1.10156C43.7881 1.10156 38.7262 4.56181 36.6236 9.47186C36.5939 9.30929 36.5709 9.17327 36.561 9.03725C36.1293 4.11394 32.8865 1.19446 28.0322 1.36365C23.5371 1.51626 20.4788 4.85045 20.4524 9.64769C20.436 13.0184 20.459 16.3924 20.4425 19.763C20.4327 21.6541 19.6417 22.6361 18.2115 22.6062C16.8504 22.5764 16.1584 21.6574 16.1518 19.7929C16.1386 16.4222 16.1617 13.0482 16.1452 9.67755C16.1188 4.68125 12.8859 1.36034 8.08101 1.3537C3.22999 1.34706 0.0333215 4.60494 0.0102528 9.6311C-0.012816 15.1051 0.0102528 26.9921 0.0102528 27.493H5.93232C5.93232 26.5741 5.93232 25.8077 5.93232 25.0447C5.93232 19.7365 5.91914 14.4317 5.93891 9.12351C5.94551 7.58083 6.7595 6.66517 8.00192 6.64195C9.22126 6.61872 10.1176 7.57419 10.2165 9.0273C10.2462 9.46854 10.2231 9.9131 10.2264 10.3543C10.233 13.725 10.1901 17.099 10.2561 20.4697C10.322 23.9067 12.4015 26.5608 15.6805 27.566C21.25 29.2679 26.269 25.6186 26.3415 19.7763C26.3844 16.2398 26.335 12.6999 26.3613 9.16332C26.3712 7.59741 27.2874 6.54574 28.566 6.65522C30.049 6.77797 30.606 7.77657 30.6389 9.16C30.6488 9.54816 30.6422 9.933 30.6422 10.3212C30.6422 15.4634 30.6455 26.9025 30.6455 27.4167L36.6005 27.4234V19.627C36.6632 19.7531 36.7225 19.8626 36.7818 19.9621C38.97 24.6863 43.9298 27.984 49.7003 27.984C57.4975 27.984 63.8183 21.9659 63.8183 14.5445C63.8183 7.11968 57.4975 1.10156 49.7003 1.10156ZM49.7003 22.5166C45.3502 22.5166 41.824 18.9469 41.824 14.5445C41.824 10.142 45.3502 6.57228 49.7003 6.57228C54.0504 6.57228 57.5766 10.142 57.5766 14.5445C57.5799 18.9469 54.0504 22.5166 49.7003 22.5166Z" fill="white"/>
<path d="M67.2775 27.2732C68.546 27.2732 69.5744 26.2379 69.5744 24.9608C69.5744 23.6837 68.546 22.6484 67.2775 22.6484C66.0089 22.6484 64.9805 23.6837 64.9805 24.9608C64.9805 26.2379 66.0089 27.2732 67.2775 27.2732Z" fill="white"/>
<path d="M67.2775 19.9919C68.546 19.9919 69.5744 18.9566 69.5744 17.6796C69.5744 16.4025 68.546 15.3672 67.2775 15.3672C66.0089 15.3672 64.9805 16.4025 64.9805 17.6796C64.9805 18.9566 66.0089 19.9919 67.2775 19.9919Z" fill="white"/>
<path d="M83.7723 6.62431C85.5816 6.60772 86.9822 5.20106 86.9987 3.38634C87.0151 1.56166 85.4662 -0.0307848 83.6998 -0.00756163C81.94 0.0156615 80.3845 1.67446 80.4471 3.45933C80.5032 5.2276 81.9927 6.6409 83.7723 6.62431Z" fill="white"/>
<path d="M77.324 8.69906C74.7666 8.64597 72.5059 9.13034 71.0559 11.9072C70.723 12.6205 70.7494 13.1015 70.7461 13.566C70.7461 16.7144 70.756 26.0302 70.7461 27.2743C73.109 27.261 73.544 27.2743 76.4243 27.2743C76.4243 23.8306 76.4243 20.3571 76.4243 16.8802C76.4243 13.1413 76.4572 12.7764 80.1845 13.0086V8.7256C79.2288 8.72228 78.2731 8.71564 77.324 8.69906Z" fill="white"/>
<path d="M80.9219 8.71971C80.9219 8.71971 80.9219 22.7896 80.9219 27.4575C82.8992 27.4575 84.6326 27.4575 86.5309 27.4575C86.5309 21.9072 86.5309 16.4497 86.5309 10.9889C86.5309 10.2856 86.5309 9.57897 86.5309 8.70312C84.4184 8.70644 82.9289 8.72635 80.9219 8.71971Z" fill="white"/>
</svg>
