<?xml version="1.0" encoding="utf-8"?>
<!-- Generator: Adobe Illustrator 24.0.2, SVG Export Plug-In . SVG Version: 6.00 Build 0)  -->
<svg version="1.1" id="Layer_1" xmlns="http://www.w3.org/2000/svg" xmlns:xlink="http://www.w3.org/1999/xlink" x="0px" y="0px"
	 viewBox="0 0 15 15" style="enable-background:new 0 0 15 15;" xml:space="preserve">
<style type="text/css">
	.st0{fill-rule:evenodd;clip-rule:evenodd;fill:#0689E8;}
</style>
<path class="st0" d="M9.2,2.1c0.3,0.1,0.7,0.2,1,0.4l1.4-0.8c0.1-0.1,0.3-0.1,0.5-0.1c0.2,0,0.3,0.1,0.4,0.2l0.8,0.8
	c0.1,0.1,0.2,0.3,0.2,0.4s0,0.3-0.1,0.5l-0.8,1.4c0.2,0.3,0.3,0.6,0.4,1l1.6,0.4c0.2,0,0.3,0.1,0.4,0.3C14.9,6.6,15,6.8,15,7V8
	c0,0.2-0.1,0.3-0.2,0.5c-0.1,0.1-0.2,0.2-0.4,0.3l-1.6,0.4c-0.1,0.3-0.2,0.7-0.4,1l0.8,1.4c0.1,0.1,0.1,0.3,0.1,0.5
	s-0.1,0.3-0.2,0.4l-0.8,0.8c-0.1,0.1-0.3,0.2-0.4,0.2s-0.3,0-0.5-0.1l-1.4-0.8c-0.3,0.2-0.6,0.3-1,0.4l-0.4,1.6
	c0,0.2-0.1,0.3-0.3,0.4C8.4,14.9,8.2,15,8,15H7c-0.2,0-0.3-0.1-0.5-0.2c-0.1-0.1-0.2-0.2-0.3-0.4l-0.4-1.6c-0.3-0.1-0.7-0.2-1-0.4
	l-1.4,0.8c-0.1,0.1-0.3,0.1-0.5,0.1s-0.3-0.1-0.4-0.2l-0.8-0.8c-0.1-0.1-0.2-0.3-0.2-0.4c0-0.2,0-0.3,0.1-0.5l0.8-1.4
	c-0.2-0.3-0.3-0.6-0.4-1L0.6,8.8c-0.2,0-0.3-0.1-0.4-0.3C0.1,8.4,0,8.2,0,8V7c0-0.2,0.1-0.3,0.2-0.5c0.1-0.1,0.2-0.2,0.4-0.3
	l1.6-0.4c0.1-0.3,0.2-0.7,0.4-1L1.7,3.5C1.6,3.4,1.6,3.2,1.6,3c0-0.2,0.1-0.3,0.2-0.4l0.8-0.8C2.7,1.7,2.9,1.6,3,1.6
	c0.2,0,0.3,0,0.5,0.1l1.4,0.8c0.3-0.2,0.6-0.3,1-0.4l0.4-1.6c0-0.2,0.1-0.3,0.3-0.4C6.6,0.1,6.8,0,7,0H8c0.2,0,0.3,0.1,0.5,0.2
	c0.1,0.1,0.2,0.2,0.3,0.4L9.2,2.1z M7.5,10.5c0.8,0,1.6-0.3,2.1-0.9c0.6-0.6,0.9-1.3,0.9-2.1s-0.3-1.6-0.9-2.1
	C9.1,4.8,8.3,4.5,7.5,4.5S5.9,4.8,5.4,5.4S4.5,6.7,4.5,7.5s0.3,1.6,0.9,2.1C5.9,10.2,6.7,10.5,7.5,10.5z"/>
</svg>
