<svg width="15" height="15" viewBox="0 0 15 15" fill="none" xmlns="http://www.w3.org/2000/svg">
<path fill-rule="evenodd" clip-rule="evenodd" d="M9.156 2.1225C9.496 2.2275 9.821 2.3625 10.131 2.5275L11.5057 1.7025C11.6491 1.61652 11.8171 1.58089 11.983 1.60128C12.1489 1.62166 12.3032 1.69688 12.4215 1.815L13.185 2.5785C13.3031 2.69678 13.3783 2.85112 13.3987 3.01703C13.4191 3.18294 13.3835 3.3509 13.2975 3.49425L12.4725 4.869C12.6375 5.179 12.7725 5.504 12.8775 5.844L14.4323 6.23325C14.5944 6.27388 14.7384 6.36754 14.8413 6.49934C14.9441 6.63115 15 6.79355 15 6.96075V8.03925C15 8.20645 14.9441 8.36885 14.8413 8.50066C14.7384 8.63246 14.5944 8.72612 14.4323 8.76675L12.8775 9.156C12.7725 9.496 12.6375 9.821 12.4725 10.131L13.2975 11.5057C13.3835 11.6491 13.4191 11.8171 13.3987 11.983C13.3783 12.1489 13.3031 12.3032 13.185 12.4215L12.4215 13.185C12.3032 13.3031 12.1489 13.3783 11.983 13.3987C11.8171 13.4191 11.6491 13.3835 11.5057 13.2975L10.131 12.4725C9.821 12.6375 9.496 12.7725 9.156 12.8775L8.76675 14.4323C8.72612 14.5944 8.63246 14.7384 8.50066 14.8413C8.36885 14.9441 8.20645 15 8.03925 15H6.96075C6.79355 15 6.63115 14.9441 6.49934 14.8413C6.36754 14.7384 6.27388 14.5944 6.23325 14.4323L5.844 12.8775C5.50702 12.7734 5.18058 12.6378 4.869 12.4725L3.49425 13.2975C3.3509 13.3835 3.18294 13.4191 3.01703 13.3987C2.85112 13.3783 2.69678 13.3031 2.5785 13.185L1.815 12.4215C1.69688 12.3032 1.62166 12.1489 1.60128 11.983C1.58089 11.8171 1.61652 11.6491 1.7025 11.5057L2.5275 10.131C2.36223 9.81942 2.22663 9.49298 2.1225 9.156L0.56775 8.76675C0.40569 8.72615 0.261824 8.63261 0.158972 8.50095C0.0561202 8.3693 0.000171482 8.20707 0 8.04V6.9615C4.39533e-06 6.7943 0.0558766 6.6319 0.158742 6.50009C0.261606 6.36829 0.405565 6.27463 0.56775 6.234L2.1225 5.84475C2.2275 5.50475 2.3625 5.17975 2.5275 4.86975L1.7025 3.495C1.61652 3.35165 1.58089 3.18369 1.60128 3.01778C1.62166 2.85187 1.69688 2.69753 1.815 2.57925L2.5785 1.815C2.69678 1.69688 2.85112 1.62166 3.01703 1.60128C3.18294 1.58089 3.3509 1.61652 3.49425 1.7025L4.869 2.5275C5.179 2.3625 5.504 2.2275 5.844 2.1225L6.23325 0.56775C6.27385 0.40569 6.36739 0.261824 6.49905 0.158972C6.6307 0.0561202 6.79293 0.000171482 6.96 0H8.0385C8.2057 4.39533e-06 8.3681 0.0558766 8.49991 0.158742C8.63171 0.261606 8.72537 0.405565 8.766 0.56775L9.156 2.1225ZM7.5 10.5C8.29565 10.5 9.05871 10.1839 9.62132 9.62132C10.1839 9.05871 10.5 8.29565 10.5 7.5C10.5 6.70435 10.1839 5.94129 9.62132 5.37868C9.05871 4.81607 8.29565 4.5 7.5 4.5C6.70435 4.5 5.94129 4.81607 5.37868 5.37868C4.81607 5.94129 4.5 6.70435 4.5 7.5C4.5 8.29565 4.81607 9.05871 5.37868 9.62132C5.94129 10.1839 6.70435 10.5 7.5 10.5Z" fill="#555555"/>
</svg>
