<?xml version="1.0" encoding="utf-8"?>
<!-- Generator: Adobe Illustrator 24.0.2, SVG Export Plug-In . SVG Version: 6.00 Build 0)  -->
<svg version="1.1" id="Layer_1" xmlns="http://www.w3.org/2000/svg" xmlns:xlink="http://www.w3.org/1999/xlink" x="0px" y="0px"
	 viewBox="0 0 15 13" style="enable-background:new 0 0 15 13;" xml:space="preserve">
<style type="text/css">
	.st0{fill:#0689E8;}
</style>
<path class="st0" d="M0,10.6c0,0.5,0.2,1,0.5,1.3c0.4,0.4,0.8,0.6,1.3,0.6h11.3c0.5,0,1-0.2,1.3-0.6c0.4-0.4,0.5-0.8,0.5-1.3V5.3H0
	V10.6z M2.2,8c0-0.3,0.1-0.5,0.3-0.7C2.7,7.1,2.9,7,3.2,7h1.6c0.3,0,0.5,0.1,0.7,0.3C5.7,7.5,5.8,7.7,5.8,8v0.7
	c0,0.3-0.1,0.5-0.3,0.7C5.3,9.6,5.1,9.7,4.8,9.7H3.2c-0.3,0-0.5-0.1-0.7-0.3C2.3,9.2,2.2,9,2.2,8.7V8z M13.1,0.5H1.9
	c-0.5,0-1,0.2-1.3,0.6C0.2,1.4,0,1.9,0,2.4v0.9h15V2.4c0-0.5-0.2-1-0.5-1.3C14.1,0.7,13.6,0.5,13.1,0.5z"/>
</svg>
