<svg width="15" height="13" viewBox="0 0 15 13" fill="none" xmlns="http://www.w3.org/2000/svg">
<path d="M0 10.5909C0 11.0972 0.197544 11.5828 0.549175 11.9408C0.900805 12.2989 1.37772 12.5 1.875 12.5H13.125C13.6223 12.5 14.0992 12.2989 14.4508 11.9408C14.8025 11.5828 15 11.0972 15 10.5909V5.34091H0V10.5909ZM2.20982 8C2.20982 7.72876 2.31565 7.46862 2.50402 7.27682C2.6924 7.08502 2.94789 6.97727 3.21429 6.97727H4.82143C5.08783 6.97727 5.34332 7.08502 5.53169 7.27682C5.72007 7.46862 5.82589 7.72876 5.82589 8V8.68182C5.82589 8.95306 5.72007 9.2132 5.53169 9.405C5.34332 9.59679 5.08783 9.70455 4.82143 9.70455H3.21429C2.94789 9.70455 2.6924 9.59679 2.50402 9.405C2.31565 9.2132 2.20982 8.95306 2.20982 8.68182V8ZM13.125 0.5H1.875C1.37772 0.5 0.900805 0.701136 0.549175 1.05916C0.197544 1.41718 0 1.90277 0 2.40909V3.29545H15V2.40909C15 1.90277 14.8025 1.41718 14.4508 1.05916C14.0992 0.701136 13.6223 0.5 13.125 0.5Z" fill="#555555"/>
</svg>
