<svg width="12" height="12" viewBox="0 0 12 12" fill="none" xmlns="http://www.w3.org/2000/svg">
<g clip-path="url(#clip0_510_4036)">
<path d="M7.14375 1.8975C7.14375 1.2675 6.63 0.75 5.99625 0.75C5.3625 0.75 4.845 1.2675 4.84875 1.8975V4.84875H1.8975C1.2675 4.84875 0.75 5.3625 0.75 5.99625C0.75 6.62625 1.2675 7.14375 1.8975 7.14375H4.84875V10.0912C4.84875 10.7212 5.3625 11.2387 5.99625 11.2387C6.62625 11.2387 7.14375 10.725 7.14375 10.0912V7.14375H10.0912C10.7212 7.14375 11.2387 6.63 11.2387 5.99625C11.2387 5.36625 10.725 4.84875 10.0912 4.84875H7.14375V1.8975Z" fill="#8C8C8C"/>
</g>
<defs>
<clipPath id="clip0_510_4036">
<rect width="12" height="12" fill="white"/>
</clipPath>
</defs>
</svg>
