<svg width="32" height="32" viewBox="0 0 32 32" fill="none" xmlns="http://www.w3.org/2000/svg">
<rect x="0.910156" y="0.914062" width="30.25" height="30.25" rx="5" fill="#0689E8"/>
<path d="M15.5599 7.91406H8.87182C8.36503 7.91406 7.87898 8.11539 7.52062 8.47375C7.16226 8.83211 6.96094 9.31815 6.96094 9.82495V23.2012C6.96094 23.708 7.16226 24.194 7.52062 24.5524C7.87898 24.9107 8.36503 25.112 8.87182 25.112H22.248C22.7548 25.112 23.2409 24.9107 23.5992 24.5524C23.9576 24.194 24.1589 23.708 24.1589 23.2012V16.5131" stroke="white" stroke-width="1.5" stroke-linecap="round" stroke-linejoin="round"/>
<path d="M21.6509 7.55457C22.031 7.17447 22.5465 6.96094 23.0841 6.96094C23.6216 6.96094 24.1372 7.17447 24.5173 7.55457C24.8974 7.93467 25.1109 8.4502 25.1109 8.98774C25.1109 9.52528 24.8974 10.0408 24.5173 10.4209L15.9058 19.0333C15.679 19.2599 15.3987 19.4259 15.0908 19.5158L12.3459 20.3183C12.2636 20.3423 12.1765 20.3438 12.0935 20.3225C12.0106 20.3013 11.9349 20.2581 11.8743 20.1975C11.8137 20.137 11.7706 20.0613 11.7493 19.9783C11.7281 19.8953 11.7295 19.8082 11.7535 19.726L12.5561 16.981C12.6464 16.6734 12.8126 16.3934 13.0395 16.1669L21.6509 7.55457Z" stroke="white" stroke-width="1.5" stroke-linecap="round" stroke-linejoin="round"/>
</svg>
