<svg width="13" height="13" viewBox="0 0 13 13" fill="none" xmlns="http://www.w3.org/2000/svg">
<path d="M12.875 6.5V11.4583C12.875 11.8341 12.7257 12.1944 12.4601 12.4601C12.1944 12.7257 11.8341 12.875 11.4583 12.875H1.54167C1.16594 12.875 0.805609 12.7257 0.539932 12.4601C0.274255 12.1944 0.125 11.8341 0.125 11.4583V6.5H12.875ZM9.33333 0.125C9.52119 0.125 9.70136 0.199628 9.8342 0.332466C9.96704 0.465304 10.0417 0.645472 10.0417 0.833333V1.54167H11.4583C11.8341 1.54167 12.1944 1.69092 12.4601 1.9566C12.7257 2.22228 12.875 2.58261 12.875 2.95833V5.08333H0.125V2.95833C0.125 2.58261 0.274255 2.22228 0.539932 1.9566C0.805609 1.69092 1.16594 1.54167 1.54167 1.54167H2.95833V0.833333C2.95833 0.645472 3.03296 0.465304 3.1658 0.332466C3.29864 0.199628 3.4788 0.125 3.66667 0.125C3.85453 0.125 4.0347 0.199628 4.16753 0.332466C4.30037 0.465304 4.375 0.645472 4.375 0.833333V1.54167H8.625V0.833333C8.625 0.645472 8.69963 0.465304 8.83247 0.332466C8.9653 0.199628 9.14547 0.125 9.33333 0.125Z" fill="#555555"/>
</svg>
