<svg width="345" height="287" viewBox="0 0 345 287" fill="none" xmlns="http://www.w3.org/2000/svg">
<g clip-path="url(#clip0_562_5570)">
<path d="M149.477 109.763C150.213 107.844 151.097 106.81 153.529 107.696C166.2 112.273 178.945 111.239 191.469 107.179C201.562 103.931 211.507 100.167 222.411 100.905C226.242 99.2808 229.925 98.9856 233.461 101.643C242.228 102.972 248.343 107.917 252.542 115.521C254.457 118.916 256.52 122.238 257.773 125.929C257.625 126.888 256.815 127.331 256.078 127.848C255.784 128.069 255.489 128.217 255.194 128.365C251.584 130.727 247.532 132.277 244.954 136.042C243.996 137.37 242.375 136.115 241.197 136.927C236.924 139.806 232.798 142.759 228.525 145.638C225.947 147.705 223 148.664 219.685 148C218.506 147.779 217.99 147.779 217.99 149.329C217.99 151.026 216.222 151.543 214.97 152.134C213.939 152.65 213.497 153.389 213.644 154.422C213.791 155.455 214.896 155.455 215.633 155.751C217.327 156.415 218.727 155.382 220.201 154.865C223.81 153.536 227.347 151.617 231.399 152.134C231.767 152.281 232.062 152.429 232.43 152.577C232.577 152.65 232.798 152.724 232.946 152.798C236.556 153.684 240.165 154.201 243.849 154.496C245.175 154.57 246.575 154.496 247.68 155.455C249.08 161.435 248.711 167.045 243.996 171.621C237.955 175.386 231.399 174.057 224.989 173.172C217.548 172.138 210.255 170.514 202.741 170.588C198.173 170.071 197.068 169.112 195.889 164.83C195.521 163.428 195.3 161.951 195.005 160.475C194.342 153.093 195.521 145.785 196.331 138.404C196.921 136.042 196.921 134.713 193.605 135.673C178.65 139.88 165.021 136.78 152.866 127.257C150.582 125.486 148.224 123.64 146.235 121.5C144.909 120.023 144.025 118.547 145.056 116.554C146.604 114.339 146.972 111.313 149.477 109.763Z" fill="#BCC8D2"/>
<path d="M25.0472 168.226C23.5738 167.118 22.3214 166.159 23.4264 163.797C24.3842 161.656 23.1318 160.253 20.627 159.958C15.6173 159.294 10.9024 157.596 6.33484 155.455C0.662189 152.798 -2.94768 145.416 3.24066 138.625C7.88192 133.458 13.1862 129.176 19.8166 126.74C21.511 128.512 20.9953 130.505 20.7006 132.572C20.5533 133.015 20.3323 133.458 19.8902 133.753C19.0799 134.491 17.9748 134.934 18.2695 136.337C18.3432 136.706 18.6378 137.001 19.0062 137.075C20.7006 137.222 20.4796 135.377 21.3637 134.639C22.5424 133.901 23.7211 134.344 24.8999 134.787C26.1523 135.303 27.4047 135.746 28.6571 136.263C36.3188 139.437 38.0869 138.92 43.2439 132.424C44.8646 130.431 46.2644 128.291 47.7378 126.15C48.4745 125.043 49.3585 123.935 50.7583 123.64C57.757 123.419 64.682 123.419 71.4597 121.204C75.5116 120.54 79.1952 118.547 83.3944 118.621C91.9402 116.48 99.823 112.715 107.632 108.877C108.295 108.729 108.663 109.098 108.958 109.541C110.137 111.756 110.874 114.192 111.905 116.48C112.568 119.137 110.947 121.057 109.695 123.123C103.212 132.646 94.887 140.175 84.4995 145.269C79.7109 147.852 74.5539 149.402 69.2496 150.583C65.3451 151.469 64.8294 151.986 65.5661 155.824C66.1555 159.368 65.6398 162.689 64.8294 166.085C64.019 169.407 62.0299 171.769 58.5674 172.581C54.2945 173.098 50.0952 172.95 45.8223 172.212C39.5603 171.104 33.4457 169.48 27.11 169.038C26.2996 168.964 25.6366 168.668 25.0472 168.226Z" fill="#D93526"/>
<path d="M228.305 145.197C229.999 141.653 234.198 141.653 236.777 139.07C238.471 137.372 240.534 134.493 244.07 135.896C244.291 135.969 245.175 133.755 246.059 133.164C249.154 131.098 252.1 128.735 255.637 127.407C255.858 127.702 255.784 127.997 255.858 128.366C255.858 128.071 255.858 127.702 255.637 127.481C256.373 126.964 257.11 126.447 257.92 125.857C263.667 122.609 269.339 119.287 275.528 116.999C276.191 116.039 277.075 115.448 278.253 115.965C280.022 117.294 278.474 114.341 279.653 114.932C282.968 113.234 286.578 112.865 290.188 112.422C291.146 112.422 292.104 112.422 293.061 112.717C293.798 113.012 294.314 113.455 294.461 114.341C294.24 115.891 294.535 117.368 295.566 118.622C297.334 123.863 298.808 129.104 302.86 133.164C307.722 138.036 313.468 139.808 320.246 138.848C321.425 138.701 322.603 138.258 323.856 138.701C324.445 138.996 324.592 139.513 324.445 140.103C325.108 139.586 324.445 138.627 325.034 138.036C327.76 136.634 330.339 135.084 333.359 134.272C334.685 134.715 334.98 133.903 334.98 132.869C336.011 131.245 336.38 129.031 338.958 128.883C338.516 134.198 336.601 138.701 331.665 141.432C331.37 141.653 330.486 141.137 330.928 142.17C328.055 144.901 324.592 146.599 320.688 147.263C320.025 147.116 319.362 147.042 319.141 147.928C318.92 148.075 318.699 148.223 318.478 148.297C316.562 148.887 313.763 148.961 313.026 150.29C312.289 151.692 313.542 154.128 313.91 156.121C313.615 156.638 312.731 157.155 313.91 157.672C313.91 161.067 314.794 164.61 311.7 167.268C310.448 168.892 308.606 169.039 306.764 169.039C303.965 169.039 301.239 169.113 298.439 169.039C291.441 168.966 284.442 169.63 277.517 168.523C276.043 168.301 274.57 168.154 273.318 167.342C270.96 165.053 271.476 162.322 272.212 159.591C272.581 158.853 274.202 158.484 272.949 157.229C272.655 156.269 273.391 155.309 272.949 154.276C270.371 154.571 267.719 155.088 265.14 155.679C259.688 156.786 254.237 156.786 248.712 156.195C248.343 156.048 247.975 155.826 247.606 155.531C242.376 155.309 237.072 155.383 232.062 153.243C232.283 153.095 232.504 152.947 232.651 152.874C232.43 152.947 232.283 153.169 232.062 153.316C231.767 153.095 231.546 152.8 231.252 152.578C229.41 150.438 228.157 148.075 228.305 145.197Z" fill="#EECB7C"/>
<path d="M338.809 129.031C337.63 130.434 336.378 131.91 335.199 133.313C335.052 134.198 334.61 134.715 333.652 134.863C330.705 136.118 328.127 138.111 324.885 138.701C324.664 138.923 324.517 139.366 324.075 139.292C320.244 139.735 316.413 140.842 312.509 139.809C302.637 137.299 297.701 130.36 295.491 120.985C295.27 120.099 294.975 119.435 294.607 118.697C294.312 117.516 293.796 116.335 293.87 115.006C294.017 114.342 294.091 113.751 293.354 113.456C292.028 112.423 290.849 111.241 289.744 109.987C288.271 107.624 286.061 105.631 286.577 102.457C285.251 98.2497 285.84 94.2636 289.376 91.4585C293.207 88.3582 297.48 87.3986 302.342 89.6131C305.363 91.0156 307.646 93.673 310.962 94.4112C315.014 95.2232 319.065 96.0352 323.191 96.4043C325.769 96.6257 328.201 97.3639 330.558 98.6188C331.81 99.2831 332.989 100.095 334.021 101.055C334.61 101.645 335.199 102.236 335.789 102.826C336.82 103.86 337.63 105.115 338.514 106.296C338.735 106.591 338.883 106.886 339.03 107.182C339.767 108.584 340.43 110.06 340.946 111.611C342.419 114.563 341.609 117.664 341.388 120.764C341.24 123.716 339.693 126.3 338.809 129.031Z" fill="#201A23"/>
<path d="M109.032 122.905C109.548 120.691 111.832 119.067 111.242 116.483C112.79 114.047 115.515 113.383 117.873 112.128C118.831 111.611 119.936 111.39 120.672 110.504C121.409 109.544 121.556 108.437 121.188 107.404C120.672 106.149 119.567 106.665 118.683 106.813C118.168 106.887 118.831 106.961 118.315 106.887C114.926 106.444 111.832 106.739 109.695 109.913C109.474 110.282 108.811 110.061 108.369 109.692C108.075 109.397 107.78 109.101 107.559 108.88C107.338 105.78 107.927 103.122 110.137 100.539C112.495 97.8074 113.895 94.4118 114.263 90.4995C114.779 85.5538 117.431 81.7153 123.177 82.3796C125.756 82.6749 128.481 81.8629 131.06 83.1178C134.743 84.9632 136.954 89.2446 136.07 93.1569C134.743 98.767 135.112 99.2837 140.858 100.981C142.332 101.424 143.658 102.31 144.468 103.787C144.984 106.813 143.216 106.739 141.153 106.075C139.827 105.706 138.206 104.377 137.322 106.222C136.364 108.216 137.838 109.544 139.458 110.725C141.374 112.128 144.173 112.497 144.836 115.302C144.689 117.147 144.1 118.919 143.289 120.543C140.711 125.932 136.806 127.998 131.06 126.448C128.039 125.636 125.756 125.932 123.177 127.629C116.989 131.837 111.979 129.992 109.032 122.905Z" fill="#5B284B"/>
<path d="M19.7426 133.389C19.7426 131.174 19.7426 128.96 19.7426 126.745C21.1423 118.773 25.3416 112.425 31.0142 106.888C33.8874 104.526 36.6869 102.016 39.781 99.9496C43.0962 97.8089 47.0008 96.8493 50.6843 98.7685C54.7362 100.835 56.1359 104.6 55.9886 109.029C55.2519 114.565 54.0731 119.954 50.2423 124.309C47.0744 128.148 44.7906 132.65 41.1808 136.12C38.0866 139.146 35.0661 140.623 30.6459 138.187C27.8464 136.637 24.8259 135.16 21.5107 134.865C20.553 134.791 19.6689 134.644 19.7426 133.389Z" fill="#372D24"/>
<path d="M222.412 97.3666C218.802 95.6689 216.887 93.0115 217.255 88.8039C217.476 86.2203 214.529 84.4487 215.045 81.4222C215.487 78.3219 217.329 75.8121 220.423 75.8859C223.002 75.9598 224.917 74.4096 227.201 73.8191C229.411 73.3024 231.326 73.1547 232.284 76.0336C232.873 77.879 234.126 79.4291 235.968 80.2411C237.957 81.1269 238.472 82.9724 237.957 84.8178C236.999 88.5086 235.82 92.0518 234.715 95.6689C234.568 96.038 233.978 96.2594 233.61 96.6285C229.927 98.3263 226.096 96.7761 222.412 97.3666Z" fill="#0F1A3F"/>
<path d="M338.148 106.89C336.601 106.078 336.306 104.233 335.127 103.199C334.612 102.682 335.201 101.206 333.654 101.723C332.696 100.985 331.738 100.247 330.707 99.5084C330.191 97.8106 331.223 96.7771 332.328 95.8175C332.991 94.2674 333.728 92.791 334.391 91.2409C335.054 90.5027 334.906 89.1002 336.159 88.7311C337.19 88.1405 338.221 88.2144 339.253 88.5835C340.358 88.5096 340.579 91.2409 342.2 89.3954C342.863 89.174 343.526 89.3216 344.041 89.7645C345.368 91.0932 344.41 92.791 344.852 94.1935C344.336 100.32 343.747 106.521 343.231 112.648C341.316 113.903 340.947 111.688 339.769 111.171C339.179 109.769 338.59 108.293 338.148 106.89C338.295 106.669 338.516 106.595 338.737 106.521C338.442 106.595 338.295 106.669 338.148 106.89Z" fill="#EECB7C"/>
<path d="M135.848 20.8889C139.752 19.1911 143.657 19.8555 148.077 20.5198C146.162 17.9362 144.172 16.1646 143.141 12.9905C145.572 13.8763 146.53 16.0908 148.666 17.2719C148.666 13.7287 148.666 10.5545 148.666 6.9375C150.361 8.93056 150.508 9.74254 151.245 18.3791C153.013 18.6744 153.676 16.9766 154.928 16.4599C156.181 15.8693 156.991 14.0977 158.98 14.9097C157.581 16.9766 155.812 18.5267 153.013 20.1507C157.36 20.8151 160.896 21.3318 164.506 21.8485C164.506 22.07 164.432 22.3652 164.432 22.5867C160.969 22.5867 157.581 22.5867 153.897 22.5867C154.044 25.687 157.065 27.0157 157.875 30.4113C155.37 28.0491 153.529 26.2775 151.024 23.9154C152.129 28.2706 151.908 31.8138 151.392 35.4308C150.066 31.8138 149.845 27.9753 149.477 23.9154C146.383 24.2845 144.909 27.7539 141.447 28.1229C142.846 25.4655 145.056 24.063 147.488 22.1438C143.141 21.7009 139.458 21.258 135.848 20.8889Z" fill="#F0CD77"/>
<path d="M344.042 89.7601C343.305 89.7601 342.495 89.8339 341.758 89.8339C340.8 90.2768 340.211 89.6124 339.548 89.0957C338.369 89.0957 337.117 89.0957 335.938 89.0957C335.717 88.9481 335.643 88.8004 335.643 88.579C335.643 88.3575 335.717 88.2837 335.791 88.2837C337.117 84.5191 337.411 80.8282 335.422 77.1374C334.833 75.9563 333.433 74.1109 336.748 74.9967C339.106 75.661 338.517 73.0775 338.664 72.1916C338.885 69.9771 341.169 70.1248 341.905 68.6484C343.158 70.2724 345.368 71.0844 344.779 74.1109C343.895 79.2781 343.747 84.5191 344.042 89.7601Z" fill="#E29C9B"/>
<path d="M72.195 117.148C72.1214 116.631 72.1214 116.188 72.0477 115.671C71.1636 113.383 70.5006 111.021 69.3955 108.88C68.3642 107.035 68.2905 105.485 69.1745 103.639C69.5429 102.827 69.9112 101.129 70.4269 101.425C71.4583 102.089 72.9317 101.572 73.8158 103.049C74.5525 104.304 74.7735 107.699 78.015 105.485C78.6781 105.042 79.4148 106.075 78.9727 107.182C77.573 110.357 78.6044 113.309 79.5621 116.336C77.2046 118.034 74.8472 118.845 72.195 117.148Z" fill="#E29C9B"/>
<path d="M311.845 76.4015C310.004 74.9252 310.225 73.5965 310.151 72.2677C310.077 71.0867 310.74 69.5365 309.341 68.946C308.309 68.5031 307.425 69.5365 306.541 70.2009C305.804 70.7176 305.068 71.3819 303.889 71.2343C304.257 69.3889 307.352 68.7245 306.541 67.0268C305.657 65.2551 303.152 66.5838 301.458 66.2148C301.016 66.1409 300.647 65.7719 299.469 65.0337C302.637 65.0337 304.994 65.0337 307.867 65.0337C306.762 63.1145 305.952 61.6381 304.994 59.9403C307.204 59.5712 307.573 61.8596 309.341 62.1548C309.341 60.0141 309.341 57.8735 309.341 55.4375C311.551 56.9877 310.814 58.9069 310.961 60.6047C311.035 61.4167 310.593 62.4501 311.403 62.9668C312.435 63.6312 313.172 62.6716 313.982 62.1548C314.94 61.4905 315.971 60.8999 317.297 60.6785C316.045 62.081 314.792 63.5574 313.393 65.1075C315.897 66.2148 318.77 64.3693 320.907 66.8791C318.402 66.8791 316.118 66.8791 313.761 66.8791C313.245 69.0936 315.75 69.9056 315.603 71.9725C313.982 71.8248 313.466 70.0532 311.845 69.4627C311.845 71.6772 311.845 73.8179 311.845 76.4015Z" fill="#D17B78"/>
<path d="M144.469 115.006C142.554 113.751 140.786 112.201 138.723 111.463C135.555 110.355 135.923 107.55 135.923 105.41C135.923 104.524 138.796 103.712 140.638 104.967C142.185 106 144.027 107.107 144.469 103.859C146.532 103.859 146.164 105.852 147.048 106.812C147.858 107.772 148.079 109.322 149.479 109.765C148.3 111.979 147.563 114.415 145.869 116.408C145.058 116.261 144.69 115.67 144.469 115.006Z" fill="#E29C9B"/>
<path d="M50.0954 14.099C44.0544 10.6296 47.5906 16.1659 45.9699 16.7564C44.7175 15.5015 45.0122 13.5823 44.6438 11.8845C43.2441 11.5892 42.36 12.7703 41.1813 12.918C40.0025 11.7369 43.6861 11.0725 41.476 9.96528C40.3709 9.37474 38.9712 9.22711 37.7188 8.93184C37.9398 7.52932 39.0448 8.04604 39.7815 7.89841C40.5919 7.75077 41.476 7.75077 42.2127 7.75077C43.023 6.34825 41.0339 5.90535 41.476 4.57665C42.9494 3.76466 43.2441 5.90535 44.7175 5.83153C44.8648 4.28138 44.9385 2.65741 45.1595 0C45.8225 2.95268 46.7066 4.65046 46.4119 6.71734C48.0327 6.5697 48.9167 4.7981 50.5375 5.31482C50.9058 6.79115 49.2851 7.08642 49.1377 8.26749C50.2428 9.30093 52.3056 7.82459 53.4843 9.89146C51.7162 10.0391 50.1691 10.1129 48.3273 10.2605C48.7694 11.3678 49.2851 12.3274 50.0954 14.099Z" fill="#F0CD77"/>
<path d="M222.41 97.3667C225.946 94.7093 229.851 96.9976 233.534 96.6285C233.534 98.3263 233.534 99.9503 233.534 101.648C229.925 100.467 226.167 101.131 222.484 100.91C222.484 99.7288 222.41 98.5477 222.41 97.3667Z" fill="#E39E9B"/>
<path d="M72.1973 117.15C74.7021 117.592 77.0595 116.338 79.4907 116.411C81.5535 115.895 81.8481 118.183 83.2479 118.7C79.7117 120.545 75.8071 120.988 72.1236 122.243C72.934 120.545 70.5028 118.774 72.1973 117.15Z" fill="#EED9DC"/>
<path d="M335.862 88.2812C335.936 88.5765 335.936 88.798 336.009 89.0932C335.42 89.7576 335.42 90.8648 334.462 91.2339C334.61 90.1267 333.873 88.5765 335.862 88.2812Z" fill="#BEC8D1"/>
<path d="M25.0469 168.232C31.1615 167.494 36.9815 169.339 42.8015 170.52C48.1795 171.553 53.4838 171.923 58.9354 171.701C60.9982 172.365 62.5453 173.842 64.0187 175.244C71.3858 182.478 78.3845 190.008 83.7624 198.94C85.0148 200.933 85.8252 203.073 86.7093 205.288C88.9931 211.119 87.9617 216.36 84.1308 221.158C77.0584 229.943 67.9232 235.996 57.5357 240.351C56.2833 240.868 55.0309 241.458 53.6311 240.646C51.2737 237.398 50.1686 233.633 48.7688 229.943C48.4005 227.95 49.5792 226.695 50.758 225.44C53.4101 222.709 56.1359 220.051 58.7881 217.32C61.3665 214.663 61.4402 213.851 58.9354 211.193C55.6202 207.65 52.4524 203.885 49.2845 200.342C48.4005 210.603 47.5901 221.158 46.6324 231.714C46.6324 233.117 46.6324 234.445 46.3377 235.848C45.4537 239.539 46.1167 243.377 45.4537 247.068C45.0116 249.061 45.38 251.202 44.8643 253.195C44.2013 255.483 44.7906 257.845 44.4223 260.134C44.0539 262.57 43.3909 264.784 40.3704 264.932C36.7605 264.784 33.0033 265.965 29.5408 263.972C28.5094 263.825 28.141 263.234 28.0674 262.274C27.6253 255.114 27.036 247.954 26.594 240.794C25.9309 229.204 26.3729 217.541 25.6362 205.952C24.8259 193.403 25.4152 180.781 25.0469 168.232Z" fill="#D3DBE4"/>
<path d="M311.701 273.642C316.269 273.347 320.763 273.937 325.183 274.454C327.025 274.675 330.34 274.602 327.025 277.923C325.772 279.178 326.951 279.916 328.056 280.212C330.192 280.802 332.329 281.171 334.392 281.836C335.349 282.131 336.896 282.352 336.749 283.681C336.602 284.862 335.202 284.493 334.244 284.641C322.604 286.117 310.817 285.896 299.103 286.117C232.726 287.52 166.422 286.634 100.045 286.634C87.6684 286.634 75.2917 286.338 62.9887 285.969C50.17 285.526 37.425 284.714 24.6063 283.681C20.5544 283.386 16.3551 283.091 12.3769 281.688C11.5665 281.393 10.6088 281.245 10.5352 280.138C10.5352 279.031 11.4929 278.883 12.2296 278.588C15.6921 277.185 19.3756 276.89 22.9855 276.595C26.669 276.226 30.1316 276.299 30.0579 271.28C33.5204 269.287 36.6146 271.797 39.8561 272.018C41.5505 273.199 43.3923 272.756 45.1604 272.387C50.0963 273.494 55.1796 273.421 60.1892 272.904C67.409 272.166 74.6287 272.313 81.8484 272.387C85.753 272.387 89.6575 271.28 93.5621 271.723C96.3615 271.944 97.835 274.232 99.6767 275.856C101.519 277.407 102.771 277.48 102.55 274.528C102.403 273.42 102.624 272.461 103.802 272.018C104.465 271.723 105.202 271.575 105.939 271.649C120.305 271.944 134.597 270.394 148.889 270.837C150.141 270.911 151.32 270.911 152.499 271.354C154.414 272.535 154.046 274.528 154.046 276.299C154.046 277.997 154.856 278.883 156.403 278.883C162.297 278.883 168.117 280.138 173.937 279.695C174.968 279.621 176.221 279.843 176.663 278.44C176.589 278.145 176.442 277.776 176.221 277.554C174.674 276.373 172.684 276.004 170.99 275.118C169.811 274.528 168.338 274.38 168.043 272.756C168.043 272.018 168.485 271.575 169.075 271.28C170.401 270.763 171.727 270.763 173.053 270.763C184.177 270.763 195.301 270.763 206.426 270.763C207.752 270.763 209.151 270.763 210.404 271.206C210.993 271.501 211.435 271.944 211.509 272.609C210.993 274.823 208.857 274.897 207.31 275.709C205.984 276.373 204.51 276.668 203.405 277.628C203.258 277.923 203.184 278.219 203.11 278.514C203.773 279.99 205.173 279.547 206.278 279.695C211.877 280.138 217.403 278.883 223.002 278.883C224.254 278.883 225.506 278.588 225.506 276.89C225.506 276.447 225.506 276.078 225.506 275.709C225.58 274.38 225.58 273.051 226.832 272.166C227.716 271.649 228.674 271.501 229.632 271.501C238.62 271.427 247.681 271.427 256.669 271.501C257.406 271.501 258.142 271.649 258.806 271.87C260.058 272.461 260.058 273.125 259.027 273.937C258.29 274.528 257.332 274.823 256.816 275.709C256.448 278.071 258.142 278.071 259.542 278.071C269.561 277.997 279.581 278.735 289.526 277.185C294.683 276.373 299.914 275.856 305.144 275.34C307.797 275.414 309.859 274.823 311.701 273.642Z" fill="#F6F0E6"/>
<path d="M298.367 168.226C302.713 167.709 307.207 168.817 311.554 167.414C311.554 171.991 311.554 176.494 311.628 181.07C311.849 192.586 311.849 204.027 312.438 215.543C313.027 226.394 313.838 237.171 313.838 248.022C313.838 251.27 312.806 254.444 313.027 257.84C313.175 259.464 311.775 260.35 310.154 260.571C306.102 262.564 301.608 261.826 297.409 262.785C296.23 263.007 295.052 263.007 293.799 263.007C291.368 262.933 289.968 261.752 289.968 259.242C289.968 257.397 289.674 255.699 289.232 253.927C289.011 247.653 290.337 241.526 290.779 235.252C291.81 221.743 292.842 208.161 294.241 194.652C295.052 187.123 295.936 179.594 296.967 172.065C297.262 170.588 297.335 169.259 298.367 168.226Z" fill="#362022"/>
<path d="M256.375 275.118C257.112 273.494 259.174 274.158 260.132 272.903C261.753 271.279 263.963 270.762 266.026 270.172C266.321 270.098 266.689 270.098 266.984 270.098C268.457 269.581 270.225 270.689 271.625 269.434C275.824 269.581 279.729 267.145 283.928 267.736C284.075 267.736 284.149 267.81 284.296 267.884C286.58 268.031 284.591 271.944 287.243 271.353C288.79 270.984 290.116 269.581 291.737 268.991C292.032 268.843 292.4 268.843 292.695 268.769C294.168 267.957 296.157 269.434 297.483 267.81C300.135 267.145 302.567 266.038 305.145 265.3C306.766 264.857 308.46 264.119 310.007 265.595C311.481 267.662 310.597 269.95 310.744 272.165C310.155 272.903 309.271 273.272 308.46 273.051C305.145 272.165 302.125 273.715 299.03 274.158C298.662 274.306 298.294 274.379 297.925 274.453C295.863 274.822 293.726 274.379 291.737 275.118C291.369 275.265 290.927 275.339 290.558 275.413C280.907 276.225 271.183 276.299 261.458 276.225C259.911 276.225 258.29 276.446 256.743 275.708C256.67 275.413 256.522 275.265 256.375 275.118Z" fill="#0F1840"/>
<path d="M311.7 273.639C311.774 275.632 310.595 276.518 308.901 276.592C304.554 276.666 300.281 277.404 296.008 278.068C283.558 279.914 271.034 279.618 258.436 279.545C255.047 279.545 254.753 278.954 256.3 275.116L256.226 275.042C259.91 275.928 263.741 275.411 267.424 275.411C275.528 275.485 283.632 275.854 291.662 274.304L291.588 274.377C293.725 273.344 296.156 274.673 298.292 273.565L298.218 273.639C302.639 273.27 306.985 271.646 311.479 272.975C311.553 273.196 311.627 273.418 311.7 273.639Z" fill="#0F1840"/>
<path d="M40.3716 272.975C36.8354 273.27 33.6675 271.13 30.1314 271.499C29.321 269.063 29.3946 266.627 29.4683 264.117C33.1519 264.117 36.8354 264.117 40.5189 264.117C42.287 265.963 42.3607 268.177 41.9923 270.465C41.624 271.351 41.3293 272.385 40.3716 272.975Z" fill="#EAB4B4"/>
<path d="M310.079 265.593C307.058 265.076 304.406 266.478 301.828 267.586C300.207 268.25 298.66 268.545 296.966 268.471C296.081 267.733 296.008 266.7 296.008 265.666C296.008 264.116 296.524 262.861 297.629 261.828C301.754 260.942 305.953 260.425 310.226 260.499C310.153 262.197 310.079 263.895 310.079 265.593Z" fill="#EAB4B4"/>
<path d="M339.695 111.243C341.095 111.095 341.758 112.941 343.158 112.719C342.495 115.377 341.832 118.034 341.169 120.765C341.095 117.517 341.316 114.195 339.695 111.243Z" fill="#BEC8D1"/>
<path d="M311.554 272.973C307.06 272.235 302.713 274.006 298.293 273.637C302.271 271.57 306.544 272.161 310.817 272.087C311.038 272.456 311.333 272.678 311.554 272.973Z" fill="#C9D3DA"/>
<path d="M318.919 148.074C318.992 147.335 317.224 146.819 318.329 146.081C319.287 145.49 320.024 146.45 320.539 147.335C320.171 148.074 319.582 148.147 318.919 148.074Z" fill="#BEC8D1"/>
<path d="M313.763 157.824C313.026 157.824 312.805 159.89 312.068 158.709C311.479 157.75 312.363 156.495 313.763 156.273C313.763 156.79 313.763 157.307 313.763 157.824Z" fill="#BEC8D1"/>
<path d="M330.779 142.322C330.116 141.731 328.937 141.805 328.863 140.55C330.189 139.812 330.631 141.436 331.515 141.658C331.221 141.805 331 142.101 330.779 142.322Z" fill="#BEC8D1"/>
<path d="M155.446 167.344C155.372 171.847 155.446 176.35 150.952 179.155C150.363 180.483 149.184 180.852 147.932 180.852C140.049 180.926 132.387 182.476 124.725 184.027C118.095 185.281 111.538 186.536 104.761 185.872C97.5408 184.248 95.699 181.812 95.3307 174.504C94.9623 165.868 96.8778 157.674 99.0879 149.406C100.267 146.454 100.193 142.911 102.624 140.401C100.119 142.911 96.9514 144.239 93.6363 145.42C91.5735 146.159 89.3634 146.454 87.2269 146.232C86.1219 146.085 84.6484 146.306 84.6484 144.461C94.5203 139.294 102.329 131.838 108.96 122.98C110.139 123.644 110.728 124.825 111.538 125.933C113.969 129.476 118.242 130.214 121.705 127.63C124.873 125.268 127.598 124.235 131.798 125.785C137.249 127.852 142.185 123.866 143.585 117.296C143.806 116.41 144.027 115.672 144.469 115.008C144.911 115.451 145.427 115.967 145.869 116.41C145.206 118.108 145.353 119.437 146.9 120.913C154.783 128.295 163.329 134.569 174.232 136.046C180.862 136.931 187.64 137.153 194.123 134.717C195.302 134.274 196.702 133.093 197.807 134.126C198.912 135.234 197.365 136.636 197.365 137.891C196.112 139.072 194.491 139.22 192.944 139.589C181.378 142.172 169.664 144.387 158.098 146.897C153.825 147.783 153.678 147.93 154.562 152.285C155.225 155.533 155.667 158.781 156.183 162.103C156.477 163.875 156.772 165.72 155.446 167.344Z" fill="#EED9DC"/>
<path d="M215.927 267.736C214.233 266.481 213.57 264.857 213.57 262.716C213.643 252.013 213.57 241.383 213.57 230.68C213.57 229.572 213.864 228.539 214.085 227.432C214.527 225.291 214.822 223.003 212.686 221.453C206.276 216.876 205.171 209.863 204.066 202.851C202.298 191.852 202.593 180.706 202.593 169.559C210.181 169.19 217.548 170.888 224.989 171.995C231.398 172.955 237.66 173.988 243.848 171.036C245.248 175.317 243.627 179.525 243.112 183.658C242.006 193.402 240.754 203.146 239.207 212.816C238.765 215.547 239.502 217.836 241.417 219.902C245.101 223.962 248.858 228.022 252.615 232.008C254.309 233.78 256.593 235.478 255.636 238.578C253.499 241.974 251.068 245.222 248.637 248.47C245.764 251.791 244.88 251.865 241.417 249.134C239.87 247.879 238.544 246.477 237.218 245.074C235.523 243.45 234.86 243.967 234.492 246.034C233.534 251.57 232.65 257.18 231.693 262.716C231.177 266.038 229.63 268.179 226.167 268.548C222.705 268.695 219.169 269.729 215.927 267.736Z" fill="#A1ACD2"/>
<path d="M228.305 145.195C229.558 147.557 230.589 149.993 231.252 152.651C226.537 152.798 222.338 155.013 218.065 156.785C215.487 157.818 214.087 155.53 212.098 155.456C212.54 154.275 212.761 152.872 213.571 152.06C214.971 150.658 218.507 151.027 216.739 147.336C216.297 146.376 217.623 146.524 218.286 146.819C221.896 148.296 225.137 146.967 228.305 145.195Z" fill="#E29C9B"/>
<path d="M108.367 109.766C111.019 109.47 111.682 107.034 112.566 105.189C113.377 103.417 114.335 103.639 114.629 104.894C115.219 107.551 116.618 106.592 118.092 106.075C119.786 105.484 122.291 104.598 122.659 106.739C122.954 108.437 123.101 111.611 120.007 112.349C116.766 113.161 114.261 115.228 111.24 116.483C109.62 114.564 109.03 112.128 108.367 109.766Z" fill="#E29C9B"/>
<path d="M52.7464 147.413C50.7573 147.708 50.168 146.158 50.168 144.755C50.168 143.574 50.61 142.172 52.5254 142.172C54.2935 142.246 55.2512 142.689 55.2512 144.682C55.2512 146.527 54.6619 147.561 52.7464 147.413Z" fill="#EAEAE1"/>
<path d="M33.8873 161.806C34.0347 163.725 33.077 164.316 31.2352 164.389C29.3197 164.463 28.8777 163.135 28.8041 161.88C28.7304 160.256 29.9091 159.222 31.6035 159.148C33.4453 159.148 33.961 160.256 33.8873 161.806Z" fill="#EAEAE1"/>
<path d="M69.9843 130.142C69.395 131.249 69.395 132.725 67.4795 132.725C65.7114 132.652 64.68 132.209 64.7537 130.216C64.7537 128.665 65.1221 127.558 66.8901 127.558C68.7319 127.484 69.5423 128.592 69.9843 130.142Z" fill="#EAEAE1"/>
<path d="M85.6772 126.004C84.4248 125.782 83.246 124.896 83.3197 123.346C83.3934 121.796 84.6458 120.836 86.3402 120.91C88.182 120.91 88.403 122.091 88.403 123.568C88.403 125.192 87.8136 126.077 85.6772 126.004Z" fill="#EAEAE1"/>
<path d="M103.802 122.388C104.023 124.234 102.329 124.972 101.298 124.972C100.045 124.972 98.4244 124.234 98.6454 122.241C98.7927 120.764 99.6768 119.436 101.077 119.657C102.329 119.731 104.097 120.321 103.802 122.388Z" fill="#EAEAE1"/>
<path d="M45.821 153.242C47.5891 153.537 47.8101 155.014 47.8838 156.416C47.8838 158.262 46.5577 158.409 45.158 158.483C43.3162 158.557 42.8742 157.081 42.8742 155.9C42.8005 154.276 44.0529 153.39 45.821 153.242Z" fill="#EAEAE1"/>
<path d="M6.33574 149.625C4.27296 149.698 3.68359 148.739 3.68359 147.189C3.68359 145.712 3.97828 144.531 5.82004 144.531C7.51447 144.531 8.6932 145.491 8.76687 147.041C8.76687 148.517 7.58814 149.477 6.33574 149.625Z" fill="#EAEAE1"/>
<path d="M37.7184 143.872C37.0554 145.201 37.129 146.751 35.2136 146.677C33.7402 146.677 32.4878 146.53 32.4141 144.684C32.3405 142.986 33.2982 141.805 34.8453 141.584C36.466 141.362 36.908 142.913 37.7184 143.872Z" fill="#EAEAE1"/>
<path d="M22.7647 150.368C23.2804 152.361 21.8807 153.173 20.6283 153.173C19.0812 153.173 18.2708 152.066 18.3445 150.221C18.3445 148.449 19.3758 147.563 20.6283 147.637C22.028 147.637 23.4277 148.523 22.7647 150.368Z" fill="#EAEAE1"/>
<path d="M56.1343 159.224C57.8287 159.002 58.4917 160.626 58.5654 161.66C58.5654 162.914 57.9024 164.465 55.9132 164.391C54.1451 164.317 53.7031 163.284 53.7031 161.733C53.7768 160.183 54.2925 159.15 56.1343 159.224Z" fill="#EAEAE1"/>
<path d="M50.0197 128.957C52.6719 129.031 53.0402 130.138 52.9666 131.689C52.9666 133.313 52.3035 134.198 50.6091 134.125C48.7673 134.051 48.4727 132.944 48.4727 131.467C48.5463 129.769 49.2094 128.884 50.0197 128.957Z" fill="#EAEAE1"/>
<path d="M65.7866 145.933C63.5765 145.859 63.3555 144.604 63.3555 143.128C63.3555 141.504 64.0922 140.618 65.7866 140.692C67.6284 140.766 67.8494 141.947 67.8494 143.423C67.7757 145.195 67.039 145.933 65.7866 145.933Z" fill="#EAEAE1"/>
<path d="M19.7442 133.385C20.3336 133.901 20.8493 134.344 21.4386 134.861C21.5123 136.706 21.0703 138.257 18.9338 138.478C17.6077 138.626 17.0184 137.814 16.871 136.485C16.7237 134.418 17.3867 133.089 19.7442 133.385Z" fill="#EAEAE1"/>
<path d="M82.656 141.506C81.109 140.915 80.0776 140.399 80.2249 138.627C80.3723 136.929 81.1826 136.191 82.8034 136.339C84.6452 136.486 84.6452 137.815 84.7188 139.218C84.8662 141.063 83.1717 140.694 82.656 141.506Z" fill="#EAEAE1"/>
<path d="M272.507 263.454C271.77 263.38 271.033 263.38 270.297 263.38C265.729 263.306 264.771 262.494 266.024 258.213C267.202 254.3 266.908 250.24 267.129 246.328C267.792 235.329 269.118 224.404 269.707 213.332C270.223 204.179 271.107 195.025 271.844 185.872C272.359 179.45 273.096 173.102 273.243 166.68C277.664 168.156 282.305 168.156 286.872 168.156C290.703 168.156 294.461 168.23 298.291 168.23C297.481 175.981 296.597 183.731 295.787 191.482C295.124 197.757 294.461 204.105 293.871 210.379C292.913 221.157 291.956 232.008 290.998 242.785C290.703 246.402 290.409 250.093 290.114 253.71C289.819 255.924 290.04 258.213 289.451 260.501C288.862 262.715 287.756 264.266 285.252 264.266C281.052 264.118 276.706 265.447 272.507 263.454Z" fill="#432627"/>
<path d="M255.563 181.371C253.353 181.666 251.879 181.223 251.585 178.492C250.774 170.815 248.712 163.286 248.27 155.535C254.163 155.461 260.131 155.535 265.951 154.797C266.54 161.957 267.645 169.044 267.498 176.278C267.424 179.304 266.466 180.264 263.74 179.895C261.383 182.7 258.362 181.519 255.563 181.371Z" fill="#BCC8D2"/>
<path d="M290.188 113.386C290.261 112.131 290.261 110.95 290.335 109.695C291.514 110.729 293.134 111.541 293.282 113.386C292.25 113.386 291.219 113.386 290.188 113.386Z" fill="#E39E9B"/>
<path d="M289.377 148.223C288.345 146.304 289.377 145.565 290.555 144.68C291.292 146.377 290.334 147.116 289.377 148.223Z" fill="#BEC8D1"/>
<path d="M312.217 148.223C311.185 146.304 312.217 145.565 313.395 144.68C314.132 146.377 313.174 147.116 312.217 148.223Z" fill="#BEC8D1"/>
<path d="M290.85 121.797C290.85 123.568 290.482 124.528 289.229 125.045C288.345 123.347 289.377 122.683 290.85 121.797Z" fill="#BEC8D1"/>
<path d="M268.011 121.797C268.159 123.568 267.717 124.454 266.538 125.119C265.433 123.347 266.612 122.683 268.011 121.797Z" fill="#BEC8D1"/>
<path d="M268.011 144.68C268.159 146.451 267.717 147.337 266.538 148.001C265.433 146.23 266.612 145.565 268.011 144.68Z" fill="#BEC8D1"/>
<path d="M245.248 145.791C244.953 146.529 244.88 147.563 243.775 147.858C243.627 147.858 243.259 147.415 243.185 147.194C243.112 146.086 243.775 145.422 244.659 145.053C245.174 144.832 245.248 145.348 245.248 145.791Z" fill="#BEC8D1"/>
<path d="M263.815 131.102C261.899 130.733 261.236 130.069 260.941 128.592C262.71 128.371 263.152 129.404 263.815 131.102Z" fill="#BEC8D1"/>
<path d="M286.65 131.102C284.735 130.733 284.072 130.069 283.777 128.592C285.545 128.371 285.987 129.404 286.65 131.102Z" fill="#BEC8D1"/>
<path d="M294.977 157.523C296.45 157.523 297.334 158.335 298.439 159.59C296.376 159.812 295.787 158.409 294.977 157.523Z" fill="#BEC8D1"/>
<path d="M240.532 153.835C238.985 153.835 238.617 152.802 238.027 151.99C238.838 150.735 239.353 151.547 239.869 151.99C240.311 152.359 240.753 152.802 240.532 153.835Z" fill="#BEC8D1"/>
<path d="M261.09 151.328C262.637 151.328 263.005 152.362 263.595 153.1C262.784 154.355 262.269 153.543 261.753 153.1C261.311 152.804 260.869 152.362 261.09 151.328Z" fill="#BEC8D1"/>
<path d="M286.65 153.985C284.735 153.616 284.072 152.951 283.777 151.475C285.545 151.254 285.987 152.287 286.65 153.985Z" fill="#BEC8D1"/>
<path d="M248.711 134.273C250.847 134.495 251.658 135.455 252.984 136.931C250.774 136.709 249.963 135.75 248.711 134.273Z" fill="#BEC8D1"/>
<path d="M275.161 136.488C273.688 136.71 272.877 135.75 271.625 134.717C273.761 134.053 274.203 135.824 275.161 136.488Z" fill="#BEC8D1"/>
<path d="M298.071 136.411C296.524 136.706 295.787 135.672 294.461 134.713C296.671 134.048 297.039 135.894 298.071 136.411Z" fill="#BEC8D1"/>
<path d="M309.491 153.986C307.575 153.616 306.839 152.952 306.691 151.328C308.312 151.402 308.902 152.214 309.491 153.986Z" fill="#BEC8D1"/>
<path d="M275.379 124.975C273.464 125.344 272.875 124.532 272.285 123.572C272.875 122.687 273.538 123.056 274.053 123.499C274.495 123.868 274.79 124.384 275.379 124.975Z" fill="#BEC8D1"/>
<path d="M283.411 124.231C281.79 123.271 282.306 122.09 281.422 120.688C283.779 121.573 283.706 122.754 283.411 124.231Z" fill="#BEC8D1"/>
<path d="M278.399 116.407C278.694 116.185 278.989 115.964 279.21 115.742C280.02 117.366 278.989 118.326 277.81 119.507C277.221 118.031 278.178 117.292 278.399 116.407Z" fill="#BEC8D1"/>
<path d="M333.652 134.863C334.168 134.346 334.684 133.829 335.199 133.312C336.526 134.346 335.494 135.379 334.831 135.896C333.873 136.56 333.873 135.379 333.652 134.863Z" fill="#BEC8D1"/>
<path d="M293.137 160.992C294.978 161.583 294.831 162.838 295.494 164.166C293.284 163.723 293.505 162.395 293.137 160.992Z" fill="#BEC8D1"/>
<path d="M294.828 146.231C296.67 145.714 297.333 146.526 297.849 147.486C297.922 147.56 297.701 147.929 297.554 148.003C296.228 148.298 295.712 147.265 294.828 146.231Z" fill="#BEC8D1"/>
<path d="M272.141 146.234C273.835 145.644 274.424 146.677 275.161 147.784C273.467 148.449 272.877 147.415 272.141 146.234Z" fill="#BEC8D1"/>
<path d="M279.432 160.992C279.432 163.354 279.138 164.462 277.517 165.126C277.443 163.65 278.18 162.764 279.432 160.992Z" fill="#BEC8D1"/>
<path d="M302.271 161.219C302.492 163.507 301.829 164.393 300.355 165.279C300.355 163.581 301.018 162.695 302.271 161.219Z" fill="#BEC8D1"/>
<path d="M249.301 146.234C250.995 145.644 251.585 146.677 252.321 147.784C250.627 148.449 250.037 147.415 249.301 146.234Z" fill="#BEC8D1"/>
<path d="M249.228 141.14C248.049 140.476 247.313 139.664 247.755 138.188C249.228 138.778 249.154 140.033 249.228 141.14Z" fill="#BEC8D1"/>
<path d="M304.555 143.57C306.544 144.604 306.47 145.637 306.249 147.261C304.776 146.228 304.923 145.047 304.555 143.57Z" fill="#BEC8D1"/>
<path d="M283.482 147.044C281.714 146.305 282.377 144.977 281.641 144.165C282.893 143.648 283.188 144.46 283.409 145.05C283.63 145.641 283.482 146.232 283.482 147.044Z" fill="#BEC8D1"/>
<path d="M260.571 147.114C258.95 146.154 259.466 144.973 258.582 143.57C260.939 144.456 260.866 145.637 260.571 147.114Z" fill="#BEC8D1"/>
<path d="M270.664 138.109C271.843 138.921 272.285 139.881 272.359 141.726C270.885 140.545 270.148 139.733 270.664 138.109Z" fill="#BEC8D1"/>
<path d="M293.062 138.039C294.904 138.703 294.757 140.032 295.494 141.287C293.284 140.844 293.505 139.515 293.062 138.039Z" fill="#BEC8D1"/>
<path d="M254.605 142.32C254.679 140.77 255.268 139.884 256.226 138.703C256.963 140.622 256.226 141.434 254.605 142.32Z" fill="#BEC8D1"/>
<path d="M279.138 138.336C279.653 140.55 278.99 141.436 277.517 142.47C277.443 140.698 278.18 139.812 279.138 138.336Z" fill="#BEC8D1"/>
<path d="M301.973 138.336C302.489 140.55 301.826 141.436 300.353 142.47C300.279 140.698 301.016 139.812 301.973 138.336Z" fill="#BEC8D1"/>
<path d="M324.075 139.296C324.223 138.927 324.37 138.558 324.886 138.705C325.77 140.403 324.591 141.215 323.56 142.396C322.823 140.92 323.928 140.182 324.075 139.296Z" fill="#BEC8D1"/>
<path d="M235.965 143.719C238.101 144.383 237.88 145.564 237.807 146.967C236.112 146.524 236.628 145.121 235.965 143.719Z" fill="#BEC8D1"/>
<path d="M237.883 140.25C239.798 140.324 240.314 141.136 240.977 142.686C239.577 142.095 238.62 141.726 237.883 140.25Z" fill="#BEC8D1"/>
<path d="M260.719 140.25C262.634 140.324 263.15 141.136 263.813 142.686C262.413 142.095 261.455 141.726 260.719 140.25Z" fill="#BEC8D1"/>
<path d="M283.703 140.918C285.398 140.18 285.692 141.287 286.061 142.468C285.324 142.025 284.514 141.435 283.703 140.918Z" fill="#BEC8D1"/>
<path d="M308.901 142.616C308.091 142.025 307.354 141.508 306.102 140.549C308.164 140.106 308.68 141.139 308.901 142.616Z" fill="#BEC8D1"/>
<path d="M249.08 152.362C247.901 152.14 247.459 151.402 247.68 150.369C247.754 150.147 248.343 149.852 248.417 149.926C249.08 150.59 249.301 151.402 249.08 152.362Z" fill="#BEC8D1"/>
<path d="M272.139 152.578C270.666 151.988 270.223 151.323 270.592 150.216C270.666 150.069 271.034 149.847 271.108 149.921C272.065 150.438 271.918 151.397 272.139 152.578Z" fill="#BEC8D1"/>
<path d="M294.754 152.726C293.355 151.693 292.692 150.955 293.87 149.773C294.902 150.438 294.828 151.397 294.754 152.726Z" fill="#BEC8D1"/>
<path d="M232.06 153.316C232.649 152.357 232.723 150.954 234.565 150.438C234.27 152.135 233.828 153.243 232.06 153.316Z" fill="#BEC8D1"/>
<path d="M254.383 153.468C254.825 151.844 255.046 150.811 256.519 150.516C256.593 151.844 256.077 152.73 254.383 153.468Z" fill="#BEC8D1"/>
<path d="M277.371 153.316C277.666 151.914 277.887 150.88 279.581 150.438C279.287 151.84 278.992 152.8 277.371 153.316Z" fill="#BEC8D1"/>
<path d="M258.805 132.43C260.573 133.463 261.088 134.127 260.204 135.382C258.952 134.939 259.32 133.832 258.805 132.43Z" fill="#BEC8D1"/>
<path d="M281.641 132.43C283.409 133.463 283.924 134.127 283.04 135.382C281.788 134.939 282.156 133.832 281.641 132.43Z" fill="#BEC8D1"/>
<path d="M279.505 127.336C279.284 128.96 278.989 129.846 277.516 130.362C277.516 128.96 277.958 128.148 279.505 127.336Z" fill="#BEC8D1"/>
<path d="M255.563 127.484C257.7 128.961 255.711 129.404 254.974 130.732C254.385 129.108 255.342 128.37 255.563 127.484Z" fill="#BEC8D1"/>
<path d="M267.644 133.094C268.086 134.939 267.57 135.604 266.539 136.268C265.729 134.865 266.686 134.349 267.644 133.094Z" fill="#BEC8D1"/>
<path d="M294.975 129.696C293.501 129.105 293.059 128.441 293.428 127.333C293.501 127.186 293.87 126.964 293.943 127.038C294.901 127.555 294.754 128.514 294.975 129.696Z" fill="#BEC8D1"/>
<path d="M271.918 129.843C270.519 128.81 269.856 128.072 271.034 126.891C272.066 127.555 271.992 128.515 271.918 129.843Z" fill="#BEC8D1"/>
<path d="M306.469 163.062C308.237 163.136 308.826 163.948 309.563 165.868C308.09 164.908 307.058 164.613 306.469 163.062Z" fill="#BEC8D1"/>
<path d="M286.282 165.125C285.251 164.83 284.146 164.609 283.777 163.206C285.472 162.911 285.766 164.239 286.282 165.125Z" fill="#BEC8D1"/>
<path d="M300.281 153.096C300.429 151.989 300.65 151.029 301.755 150.66C301.902 150.586 302.27 150.882 302.27 150.955C301.976 151.767 301.902 153.022 300.281 153.096Z" fill="#BEC8D1"/>
<path d="M289.303 136.045C289.082 134.864 289.303 133.978 290.481 133.609C291.071 134.938 290.187 135.529 289.303 136.045Z" fill="#BEC8D1"/>
<path d="M289.085 159.367C289.011 157.743 289.306 156.931 290.485 156.414C291.074 157.743 290.337 158.407 289.085 159.367Z" fill="#BEC8D1"/>
<path d="M282.969 117.513C285.4 117.291 285.768 118.399 286.137 119.58C285.326 119.137 284.516 118.546 282.969 117.513Z" fill="#BEC8D1"/>
<path d="M283.116 158.483C281.79 157.597 282.232 156.638 281.348 155.383C283.484 156.121 283.779 156.933 283.116 158.483Z" fill="#BEC8D1"/>
<path d="M304.923 155.75C306.102 155.971 306.544 156.71 306.323 157.743C306.249 157.965 305.66 158.26 305.586 158.186C304.849 157.522 304.628 156.71 304.923 155.75Z" fill="#BEC8D1"/>
<path d="M293.8 114.93C294.757 116.037 294.831 117.292 294.536 118.621C293.8 117.513 292.474 116.48 293.8 114.93Z" fill="#BEC8D1"/>
<path d="M273.316 159.153C273.316 158.71 273.39 158.193 273.39 157.75C273.979 158.341 275.6 158.267 275.084 159.522C274.716 160.334 273.906 159.3 273.316 159.153Z" fill="#BEC8D1"/>
<path d="M333.652 101.643C334.168 100.905 334.536 99.9453 335.715 99.9453C336.305 101.2 335.052 102.012 335.126 103.119C334.61 102.677 334.094 102.16 333.652 101.643Z" fill="#BEC8D1"/>
<path d="M339.623 89.0938C340.359 89.3152 341.096 89.6105 341.833 89.8319C341.98 90.5701 343.38 90.5701 343.012 91.3821C342.496 92.4155 341.833 91.5297 341.391 91.1606C340.58 90.5701 339.475 90.3486 339.623 89.0938Z" fill="#BEC8D1"/>
<path d="M340.21 96.6995C338.589 95.5922 338.073 94.6326 338.368 93.1562C339.694 93.7468 339.988 94.7802 340.21 96.6995Z" fill="#BEC8D1"/>
<path d="M339.77 101.2C341.611 100.683 342.274 101.495 342.79 102.455C342.864 102.529 342.643 102.898 342.495 102.971C341.169 103.267 340.654 102.233 339.77 101.2Z" fill="#BEC8D1"/>
<path d="M338.146 106.883C338.293 106.145 337.778 104.89 339.03 104.964C339.914 105.038 340.061 106.44 339.84 107.031C339.398 107.991 338.662 106.736 338.146 106.883Z" fill="#BEC8D1"/>
<path d="M305.292 22.6632C294.61 25.6896 288.201 33.7357 284.738 44.2177C288.127 39.4196 290.779 34.1048 295.789 30.4139C300.651 26.7969 305.661 23.9919 312.217 23.3275C311.481 25.0253 310.597 26.1325 310.376 27.4612C309.86 29.971 309.418 32.9237 311.702 34.6215C313.617 36.024 316.048 35.2858 317.743 33.6619C320.1 31.4474 320.1 28.79 319.069 25.8373C317.743 21.9988 317.89 21.9988 322.163 21.7773C325.699 21.6297 329.014 22.2202 332.403 22.8108C323.489 18.8247 314.133 20.1534 305.292 22.6632ZM314.428 32.8499C312.586 33.219 312.365 31.595 312.365 29.8234C312.88 28.0518 312.512 24.9515 315.312 24.6562C316.932 24.5086 317.227 27.3136 317.374 28.79C317.448 30.5616 316.417 32.4808 314.428 32.8499Z" fill="#BCC8D2"/>
<path d="M82.5837 44.8796C73.8169 39.86 62.3979 38.7528 53.9258 43.3294C67.3339 40.0077 77.9424 43.2556 87.7406 51.8183C85.3832 52.5565 83.4677 52.8518 81.847 53.7376C79.7105 54.9187 77.6478 56.6164 78.4581 59.4953C79.3422 62.3742 81.847 62.6694 84.4255 62.5218C85.9725 62.448 87.1513 61.7098 88.33 60.7502C89.8034 59.4953 90.6138 57.7975 91.7189 56.1735C95.6971 59.6429 97.0232 61.636 99.97 68.2795C100.044 62.0789 90.3191 49.3086 82.5837 44.8796ZM88.4037 56.4688C87.225 58.2404 86.1199 60.2335 83.4677 60.3073C82.2153 60.3073 81.2576 59.8644 80.8156 58.7571C80.3736 57.7237 81.184 57.0593 81.9943 56.395C83.4677 55.2139 85.1622 54.6972 86.6356 54.4019C88.6247 54.3281 89.5087 54.771 88.4037 56.4688Z" fill="#BCC8D2"/>
<path d="M244.217 8.93142C241.197 8.85761 238.839 11.1459 238.766 14.0986C238.766 16.6084 241.197 18.9705 243.996 18.9705C247.311 19.0443 249.006 17.4204 249.006 14.2462C249.006 11.3674 246.869 9.00524 244.217 8.93142ZM243.775 17.4204C241.933 17.4204 240.976 16.2393 240.902 14.3939C240.828 12.1794 241.86 10.9245 244.07 10.8507C246.059 10.7768 247.164 11.8103 247.532 13.7295C247.238 16.0178 246.059 17.4204 243.775 17.4204Z" fill="#F0CD77"/>
<path d="M195.669 52.1155C193.533 51.6726 192.723 53.4442 192.723 55.3635C192.723 57.1351 193.165 58.9067 195.817 58.9067C198.395 58.9067 199.353 57.5042 199.574 55.4373C199.721 53.149 198.248 52.1894 195.669 52.1155ZM195.964 57.1351C195.154 57.2827 194.638 56.5445 194.564 55.8064C194.417 54.6991 194.933 53.961 196.038 53.7395C197.217 53.5181 197.438 54.4039 197.732 55.4373C197.659 56.3231 196.922 56.9875 195.964 57.1351Z" fill="#E69D9A"/>
<path d="M19.3759 51.4506C17.3868 51.303 16.9448 52.4103 16.8711 54.1819C16.8711 56.1011 18.2708 56.4702 19.4496 56.4702C21.0703 56.4702 22.028 55.2891 22.028 53.5175C22.1017 51.7459 20.923 51.3768 19.3759 51.4506ZM19.5232 55.2153C19.0812 54.6248 18.7129 54.1819 18.4919 53.739C18.4182 53.5913 18.7865 53.0746 19.0075 53.0746C19.7443 52.927 20.1126 53.5175 20.3336 53.9604C20.481 54.1081 19.8916 54.6248 19.5232 55.2153Z" fill="#3B4095"/>
<path d="M45.6741 231.566C47.0738 231.492 48.1052 230.606 49.3576 230.016C51.1994 233.337 52.5991 236.881 53.8515 240.424C52.8202 241.162 51.7888 241.9 50.831 242.638C49.947 243.376 48.9156 243.524 47.8842 243.229C44.8637 241.531 45.8214 238.578 45.6741 235.995C45.6004 234.518 45.6741 233.042 45.6741 231.566Z" fill="#EAB4B4"/>
<path d="M45.6031 235.992C46.6344 238.133 45.7504 240.938 47.8868 242.636C48.1815 243.005 48.4762 243.448 48.5499 243.891C48.6236 244.333 48.6972 244.85 48.7709 245.293C48.8446 245.957 49.1392 246.474 49.2866 247.065C49.8023 250.46 51.3494 253.782 50.0233 257.251C47.0028 254.446 45.382 250.977 44.8663 246.917C44.8663 243.374 44.4243 239.609 45.6031 235.992Z" fill="#E8E0DB"/>
<path d="M44.9376 247.062C46.6321 250.532 48.4002 253.927 50.0946 257.397C48.9159 259.98 47.7371 260.202 46.4111 257.471C45.6744 255.994 44.9376 254.444 44.2009 252.968C44.4956 250.975 43.4642 248.908 44.9376 247.062Z" fill="#E8E0DB"/>
<path d="M50.832 179.895C50.832 178.197 50.832 176.573 50.832 174.875C51.3477 176.573 52.1581 178.271 50.832 179.895Z" fill="#BEC8D1"/>
<path d="M50.8322 179.891C50.5375 181.588 51.4952 183.508 50.0955 185.058C50.3902 183.36 49.3588 181.441 50.8322 179.891Z" fill="#BEC8D1"/>
<path d="M50.0939 185.062C49.7992 186.76 50.7569 188.68 49.3572 190.23C49.6519 188.532 48.6205 186.613 50.0939 185.062Z" fill="#BEC8D1"/>
<path d="M49.3603 190.227C49.3603 191.629 49.3603 193.105 49.3603 194.508C48.771 193.032 48.0343 191.555 49.3603 190.227Z" fill="#BEC8D1"/>
<path d="M153.16 272.165C153.16 271.943 153.234 271.648 153.234 271.426C156.77 269.36 160.012 271.869 163.4 272.165C164.8 273.789 167.379 271.426 168.557 273.715C171.652 274.674 174.819 275.412 177.398 277.479C170.104 278.66 162.958 275.929 156.991 277.036C161.853 276.446 167.968 277.775 174.156 277.775C175.261 277.775 176.366 278.07 177.398 277.406C178.798 279.62 178.724 280.949 175.63 281.096C168.926 281.465 162.295 279.989 155.591 280.284C153.897 280.358 153.234 279.325 153.234 277.701C153.234 275.855 153.234 274.01 153.16 272.165Z" fill="#D3DBE4"/>
<path d="M99.4539 266.408C100.78 268.548 101.369 271.058 103.064 272.904C103.285 273.642 103.579 274.38 103.8 275.118C103.137 276.299 102.253 276.225 101.369 275.487C95.9177 270.615 89.9504 266.186 85.3828 260.355C86.1195 258.066 87.7403 256.442 89.7294 255.188C93.2656 256.738 94.1496 260.724 96.8018 263.16C97.2438 264.562 98.0542 265.743 99.4539 266.408Z" fill="#D3DBE4"/>
<path d="M226.906 271.349C226.906 271.866 226.906 272.382 226.906 272.899C226.906 274.154 226.906 275.409 226.906 276.664C219.023 277.919 211.214 278.731 203.257 277.845C203.036 277.845 202.889 277.55 202.668 277.402C205.394 275.63 208.488 274.671 211.582 273.563C212.024 272.825 211.95 271.497 213.35 272.235C214.308 272.678 215.118 272.456 216.002 272.087C218.286 271.718 220.57 271.423 222.78 270.832C224.18 270.537 225.58 270.316 226.906 271.349Z" fill="#FEFEFE"/>
<path d="M85.3831 260.352C88.3299 262.935 91.3504 265.519 94.2973 268.176C96.8021 270.391 99.3805 272.679 101.812 275.041C102.475 275.705 103.138 275.484 103.801 275.189C103.948 276.665 103.432 277.92 102.106 278.51C100.633 279.175 100.044 277.625 99.2332 276.887C97.7598 275.632 96.36 274.303 94.9603 273.048C91.3504 270.391 88.6983 266.552 84.8674 263.969C83.394 262.714 83.6887 261.311 85.3831 260.352Z" fill="#D3DBE4"/>
<path d="M226.832 277.259C226.832 278.735 227.127 280.359 224.769 280.285C217.918 280.064 211.14 281.54 204.289 281.023C201.931 280.876 200.974 280.211 202.594 277.997C210.698 277.775 218.728 276.299 226.832 277.259Z" fill="#FEFEFE"/>
<path d="M54.4422 277.991C54.7368 280.132 54.0001 280.944 51.6427 281.091C45.1596 281.386 38.7503 279.91 32.1936 280.279C29.9098 280.427 30.1308 278.729 30.1308 277.253C35.2141 277.031 40.2237 276.515 45.307 277.622C48.3275 278.212 51.4217 277.327 54.4422 277.991Z" fill="#E8E0DB"/>
<path d="M226.831 277.257C218.801 277.478 210.698 277.774 202.667 277.995C202.594 277.774 202.594 277.552 202.594 277.405C210.698 277.552 218.728 276.002 226.831 276.666C226.905 276.888 226.905 277.035 226.831 277.257Z" fill="#565E5E"/>
<path d="M54.4408 277.992C46.337 277.771 38.3069 277.475 30.2031 277.254C34.8444 275.704 39.7066 276.147 44.2006 276.885C47.6631 277.401 51.273 276.073 54.4408 277.992Z" fill="#565E5E"/>
<path d="M168.632 273.636C167.969 273.562 167.306 272.307 166.57 273.488C165.317 275.334 164.875 273.636 164.138 272.972C163.623 271.864 163.475 270.905 165.023 270.609C166.349 271.052 167.748 271.2 168.78 272.233C168.78 272.602 168.706 273.119 168.632 273.636Z" fill="#565E5E"/>
<path d="M41.2551 270.539C42.7286 270.687 43.1706 272.311 44.3493 272.827C43.0232 275.632 41.6972 274.451 40.3711 272.901C40.6658 272.163 40.2238 271.056 41.2551 270.539Z" fill="#565E5E"/>
<path d="M215.193 272.975C214.972 274.156 214.53 275.263 213.572 273.418C212.615 271.572 212.099 273.27 211.436 273.566C211.362 273.123 211.289 272.606 211.215 272.163C212.32 271.203 213.72 271.056 214.972 270.539C216.887 271.277 216.151 272.089 215.193 272.975Z" fill="#565E5E"/>
<path d="M285.841 263.453C284.588 264.856 285.546 266.923 284.367 268.399C281.568 268.546 278.768 268.916 276.116 270.023C274.348 270.761 272.801 270.687 271.107 270.023C270.296 269.506 270.37 268.62 270.223 267.808C272.064 266.923 271.622 264.856 272.506 263.453C276.927 263.453 281.421 263.453 285.841 263.453Z" fill="#EAB4B4"/>
<path d="M291.736 274.375C289.305 275.999 286.358 275.556 283.854 275.704C275.16 276.147 266.467 275.851 257.774 275.851C257.185 275.851 256.522 275.851 256.301 275.113C268.162 275.187 279.949 275.113 291.736 274.375Z" fill="#C9D3DA"/>
<path d="M294.681 267.732C295.565 267.216 295.197 265.444 296.744 265.518C296.817 266.477 296.817 267.511 296.891 268.471C296.817 269.061 296.744 269.652 296.67 270.537C295.565 269.725 294.681 268.397 293.134 269.283C292.618 267.659 293.06 267.068 294.681 267.732Z" fill="#F0EEE7"/>
<path d="M270.296 267.734C271.254 268.177 271.033 269.137 271.18 269.949C270.885 271.13 270.885 273.344 269.338 270.613C268.454 269.063 268.159 272.016 267.423 270.761C266.907 269.137 267.275 268.546 268.97 269.211C269.338 268.694 269.78 268.251 270.296 267.734Z" fill="#F0EEE7"/>
<path d="M298.364 273.636C296.301 275.26 293.87 274.005 291.66 274.448C293.723 272.824 296.154 274.005 298.364 273.636Z" fill="#C9D3DA"/>
<path d="M268.897 269.213C267.866 269.213 267.35 269.729 267.35 270.763C267.129 270.689 266.834 270.615 266.613 270.541C266.687 268.917 266.982 267.736 268.897 269.213Z" fill="#C9D3DA"/>
<path d="M294.681 267.737C293.649 267.737 293.134 268.254 293.134 269.287L292.839 269.213L292.544 269.287C292.471 267.737 292.471 266.113 294.681 267.737Z" fill="#C9D3DA"/>
<path d="M151.688 264.854C148.52 266.773 147.489 264.337 146.752 262.123C143.879 253.265 141.079 244.333 138.427 235.401C135.407 225.067 132.46 214.659 129.513 204.324C126.272 199.157 125.977 193.03 124.135 187.494C123.62 186.018 123.251 184.394 124.356 182.991C133.049 180.851 142.037 180.408 150.878 179.227C151.835 184.984 152.94 190.668 153.825 196.426C155.814 208.606 157.729 220.859 159.645 233.113C161.192 242.931 162.665 252.748 164.138 262.64C164.286 263.452 164.359 264.411 163.475 265.002C159.645 266.626 155.666 266.404 151.688 264.854Z" fill="#ADB0B4"/>
<path d="M151.688 264.852C155.666 264.852 159.57 264.852 163.548 264.852C163.327 266.918 164.138 268.764 165.022 270.609C163.991 271.126 164.433 272.159 164.138 272.971C160.381 273.193 156.992 270.978 153.235 271.421C152.793 269.207 152.719 266.918 151.688 264.852Z" fill="#EAB4B4"/>
<path d="M215.19 272.975C215.117 272.163 216.516 271.278 215.043 270.613C215.706 269.801 215.853 268.768 215.853 267.734C219.463 267.734 223.147 267.734 226.757 267.734C226.757 268.989 226.83 270.17 226.83 271.425C222.926 271.204 219.242 273.492 215.19 272.975Z" fill="#EAB4B4"/>
<path d="M124.503 182.922C125.167 189.049 127.524 194.806 128.924 200.786C129.218 201.967 129.439 203.148 129.66 204.329C127.966 207.281 128.703 210.751 128.408 213.851C127.524 225.145 122.809 234.889 117.284 244.338C114.19 249.579 110.432 254.303 106.97 259.322C105.128 261.98 103.728 261.98 101.592 260.061C101.297 259.765 100.708 259.765 100.266 259.691C96.4349 258.437 92.9724 256.443 90.0256 253.712C89.8782 250.464 92.4567 248.471 93.8565 246.035C101.15 234.077 105.349 221.454 104.686 207.208C104.318 199.826 104.686 192.444 104.686 185.136C111.316 185.063 117.947 184.472 124.503 182.922Z" fill="#A7A8A9"/>
<path d="M254.9 238.875C255.858 239.392 256.594 240.056 257.036 241.09C255.784 244.19 254.826 247.512 252.395 250.095C252.1 250.243 251.732 250.317 251.437 250.317C250.553 250.243 249.817 249.948 249.154 249.283C248.859 248.766 248.564 248.25 248.27 247.733C250.406 244.78 252.1 241.459 254.9 238.875Z" fill="#EAB4B4"/>
<path d="M225.359 197.68C225.359 198.861 225.359 200.116 225.359 201.592C223.591 200.189 224.843 198.861 225.359 197.68Z" fill="#8894B6"/>
<path d="M255.564 181.367C258.069 179.522 261.237 181.588 263.741 179.891C263.078 184.984 262.71 190.077 263.668 195.171C264.036 197.311 263.741 199.304 260.868 199.969C259.321 200.338 258.069 200.338 257.848 198.714C257.479 196.204 257.332 193.621 253.133 194.58C256.006 190.151 257.406 186.017 255.564 181.367Z" fill="#E29C9B"/>
<path d="M260.792 244.852C263.959 244.852 264.107 246.402 262.56 248.542C258.508 254.079 254.456 259.541 250.404 265.004C249.888 265.742 249.373 266.406 248.341 265.816C246.5 264.782 247.826 263.158 247.605 261.829C251.067 256.146 255.414 251.126 259.318 245.811C259.613 245.294 260.129 244.925 260.792 244.852Z" fill="#FEFEFE"/>
<path d="M260.792 244.847C256.445 250.605 252.835 256.805 247.531 261.825C246.942 258.725 249.226 256.141 249.005 253.115C249.226 252.672 249.594 252.376 250.036 252.155C250.994 251.786 251.141 250.679 251.878 250.088C254.088 247.431 254.161 243.445 257.035 241.156C259.097 241.525 260.35 242.78 260.792 244.847Z" fill="#FEFEFE"/>
<path d="M250.48 252.826C249.965 252.9 249.523 252.974 249.007 253.047C247.312 251.793 249.744 250.538 249.081 249.283C249.817 249.283 250.775 248.84 251.217 249.947C251.143 250.095 251.143 250.242 251.07 250.316C250.849 250.833 250.996 251.423 250.922 252.014C250.849 252.457 250.701 252.678 250.48 252.826Z" fill="#565E5E"/>
<path d="M89.952 253.633C93.5619 255.257 97.0981 257.028 100.192 259.612C99.6766 260.572 99.2345 261.531 98.7188 262.417C98.1295 263.377 97.2454 263.377 96.3614 263.303C93.3409 261.236 92.2358 257.693 89.8047 255.183C89.8784 254.666 89.8784 254.15 89.952 253.633Z" fill="#EAB4B4"/>
<path d="M47.8867 244.035C47.8867 243.592 47.8867 243.15 47.8867 242.633C48.8444 242.633 49.8022 242.633 50.7599 242.633C50.9809 243.666 50.6862 244.626 50.0968 245.512C50.1705 247.062 49.3601 246.693 48.4761 246.25C47.9604 245.585 48.9181 244.552 47.8867 244.035Z" fill="#565E5E"/>
<path d="M48.5475 245.518C49.0632 246.33 49.5789 246.33 50.0946 245.518C50.6103 245.666 51.568 245.444 51.4206 246.33C51.2733 247.585 50.0209 246.847 49.3579 247.216C48.4738 247.142 47.6634 246.847 47.8845 245.666C48.0318 245.297 48.2528 245.223 48.5475 245.518Z" fill="#565E5E"/>
<path d="M48.5498 245.511C48.3287 245.585 48.1077 245.659 47.8867 245.659C47.8867 245.142 47.8867 244.551 47.8867 244.035C48.5498 244.108 49.0655 242.927 49.7285 243.666C49.8758 243.813 48.9918 244.847 48.5498 245.511Z" fill="#ECE4DE"/>
<path d="M96.3594 263.308C96.8751 262.274 97.9065 262.717 98.7168 262.422C99.9692 262.791 98.1275 265.005 100.559 265.153C101.443 265.227 100.117 266.113 99.4535 266.334C95.8437 267.958 96.7277 265.005 96.3594 263.308Z" fill="#565E5E"/>
<path d="M177.474 277.33C176.074 278.806 174.232 278.142 172.685 277.994C166.644 277.403 160.603 277.182 154.488 277.108C162.15 275.779 169.812 277.551 177.474 277.33Z" fill="#565E5E"/>
<path d="M250.48 252.821C250.48 252.599 250.48 252.378 250.48 252.156C250.849 251.492 250.407 250.532 251.217 250.016L251.144 250.089C251.365 250.089 251.586 250.089 251.807 250.163C251.586 251.123 252.985 252.968 250.48 252.821Z" fill="#565E5E"/>
<path d="M251.215 250.016C250.994 250.754 251.731 251.787 250.479 252.156C249.816 251.123 249.226 250.089 251.215 250.016Z" fill="#FAF0F0"/>
</g>
<defs>
<clipPath id="clip0_562_5570">
<rect width="345" height="287" fill="white"/>
</clipPath>
</defs>
</svg>
