<svg width="18" height="19" viewBox="0 0 18 19" fill="none" xmlns="http://www.w3.org/2000/svg">
<g clip-path="url(#clip0_673_3869)">
<path d="M4 10V6H2.5C2.10218 6 1.72064 6.15804 1.43934 6.43934C1.15804 6.72064 1 7.10218 1 7.5V16.5C1.00074 16.5929 1.02733 16.6837 1.07679 16.7623C1.12624 16.8409 1.19661 16.9041 1.28 16.945C1.36034 16.9815 1.44892 16.9962 1.53674 16.9874C1.62456 16.9786 1.70849 16.9467 1.78 16.895L4.355 15H11.075C11.2645 15.0056 11.4531 14.9722 11.6292 14.902C11.8053 14.8317 11.9651 14.726 12.0987 14.5915C12.2323 14.457 12.3368 14.2965 12.4059 14.1199C12.4749 13.9433 12.5069 13.7545 12.5 13.565V13H7C6.20435 13 5.44129 12.6839 4.87868 12.1213C4.31607 11.5587 4 10.7956 4 10Z" fill="#0689E8"/>
<path d="M15.5 2.5H7C6.60218 2.5 6.22064 2.65804 5.93934 2.93934C5.65804 3.22064 5.5 3.60218 5.5 4V10C5.5 10.3978 5.65804 10.7794 5.93934 11.0607C6.22064 11.342 6.60218 11.5 7 11.5H13.775L16.165 13.355C16.2361 13.4075 16.3197 13.4403 16.4076 13.45C16.4954 13.4596 16.5842 13.4458 16.665 13.41C16.7501 13.3695 16.822 13.3057 16.8724 13.2261C16.9228 13.1465 16.9497 13.0542 16.95 12.96V4C16.9502 3.61069 16.7991 3.23654 16.5285 2.95663C16.2579 2.67672 15.8891 2.51298 15.5 2.5Z" fill="#0689E8"/>
</g>
<defs>
<clipPath id="clip0_673_3869">
<rect width="18" height="18" fill="white" transform="translate(0 0.5)"/>
</clipPath>
</defs>
</svg>
